<svg width="18" height="18" viewBox="0 0 18 18" fill="none" xmlns="http://www.w3.org/2000/svg">
<path fill-rule="evenodd" clip-rule="evenodd" d="M18 9C18 13.9706 13.9706 18 9 18C4.02944 18 0 13.9706 0 9C0 4.02944 4.02944 0 9 0C13.9706 0 18 4.02944 18 9ZM9 4C9.55229 4 10 4.44772 10 5V8C10 8.55228 9.55229 9 9 9C8.44771 9 8 8.55228 8 8V5C8 4.44772 8.44771 4 9 4ZM10 11C10 10.4477 9.55229 10 9 10C8.44771 10 8 10.4477 8 11V12C8 12.5523 8.44771 13 9 13C9.55229 13 10 12.5523 10 12V11Z" fill="#FF2C20"/>
</svg>
