<svg width="18" height="16" viewBox="0 0 18 16" fill="none" xmlns="http://www.w3.org/2000/svg">
<path fill-rule="evenodd" clip-rule="evenodd" d="M7.26798 1C8.03778 -0.333333 9.96229 -0.333333 10.7321 1L17.6603 13C18.4301 14.3333 17.4678 16 15.9282 16H2.07183C0.532231 16 -0.43002 14.3333 0.339781 13L7.26798 1ZM9.00003 5C9.55232 5 10 5.44771 10 6V9C10 9.55228 9.55232 10 9.00003 10C8.44775 10 8.00003 9.55228 8.00003 9V6C8.00003 5.44771 8.44775 5 9.00003 5ZM10 12C10 11.4477 9.55232 11 9.00003 11C8.44775 11 8.00003 11.4477 8.00003 12V13C8.00003 13.5523 8.44775 14 9.00003 14C9.55232 14 10 13.5523 10 13V12Z" fill="#FFD600"/>
</svg>
