<svg width="37" height="35" viewBox="0 0 37 35" fill="none" xmlns="http://www.w3.org/2000/svg">
<path d="M11.8901 23.4207L32.1948 30.7914C32.5924 30.9342 33.0154 30.9722 33.4292 30.902C33.8427 30.832 34.2353 30.6558 34.5742 30.3883C34.9158 30.1234 35.1947 29.7739 35.388 29.3682C35.581 28.9628 35.6828 28.5131 35.6846 28.0562V4.36044C35.6828 3.90366 35.581 3.45393 35.388 3.04842C35.1947 2.64292 34.9158 2.29324 34.5742 2.0283C34.2329 1.76554 33.8395 1.59463 33.4257 1.52956C33.0123 1.46452 32.5903 1.50716 32.1948 1.654L11.8901 9.02474V23.4207Z" fill="#F7FAF8" stroke="#536F5A" stroke-width="2" stroke-linecap="round" stroke-linejoin="round"/>
<path d="M1.31494 16.2231C1.31494 17.1684 1.4859 18.1044 1.81807 18.9777C2.15023 19.851 2.6371 20.6445 3.25084 21.3129C4.49037 22.6628 6.17156 23.4211 7.92453 23.4211H11.8903V9.02515H7.92453C7.05655 9.02515 6.19707 9.21132 5.39514 9.57306C4.59324 9.9348 3.8646 10.465 3.25084 11.1334C2.01131 12.4833 1.31494 14.3141 1.31494 16.2231Z" fill="#F7FAF8" stroke="#536F5A" stroke-width="2" stroke-linecap="round" stroke-linejoin="round"/>
<path d="M7.92456 23.4226V26.3019C7.92456 27.2472 8.09551 28.1832 8.42768 29.0564C8.75985 29.9297 9.24672 30.7232 9.86045 31.3915C10.4742 32.06 11.2029 32.5901 12.0048 32.952C12.8067 33.3136 13.6662 33.4999 14.5341 33.4999" fill="#F7FAF8"/>
<path d="M7.92456 23.4226V26.3019C7.92456 27.2472 8.09551 28.1832 8.42768 29.0564C8.75985 29.9297 9.24672 30.7232 9.86045 31.3915C10.4742 32.06 11.2029 32.5901 12.0048 32.952C12.8067 33.3136 13.6662 33.4999 14.5341 33.4999" stroke="#536F5A" stroke-width="2" stroke-linecap="round" stroke-linejoin="round"/>
</svg>
