<svg width="35" height="34" viewBox="0 0 35 34" fill="none" xmlns="http://www.w3.org/2000/svg">
<path d="M17.0653 32.5527C8.94168 32.5527 0.17749 27.4572 0.17749 16.2763C0.17749 5.09546 8.94168 0 17.0653 0C21.5784 0 25.7421 1.48496 28.8285 4.19283C32.177 7.16276 33.9531 11.3556 33.9531 16.2763C33.9531 21.1971 32.177 25.3608 28.8285 28.3307C25.7421 31.0386 21.5493 32.5527 17.0653 32.5527Z" fill="url(#paint0_radial_525_2479)"/>
<path d="M31.0093 6.60083C32.5612 9.10488 33.3707 12.0865 33.3707 15.4029C33.3707 20.3236 31.5945 24.4873 28.2461 27.4573C25.1597 30.1651 20.9669 31.6792 16.4829 31.6792C11.2244 31.6792 5.70961 29.5391 2.45435 24.9998C5.58732 30.1418 11.4806 32.5527 17.0652 32.5527C21.5492 32.5527 25.742 31.0386 28.8284 28.3308C32.1769 25.3608 33.953 21.1971 33.953 16.2764C33.953 12.5669 32.9426 9.27085 31.0093 6.60083Z" fill="#EB8F00"/>
<path d="M17.0653 32.5527C8.94168 32.5527 0.17749 27.4572 0.17749 16.2763C0.17749 5.09546 8.94168 0 17.0653 0C21.5784 0 25.7421 1.48496 28.8285 4.19283C32.177 7.16276 33.9531 11.3556 33.9531 16.2763C33.9531 21.1971 32.177 25.3608 28.8285 28.3307C25.7421 31.0386 21.5493 32.5527 17.0653 32.5527Z" fill="url(#paint1_linear_525_2479)"/>
<path d="M17.0653 32.5527C8.94168 32.5527 0.17749 27.4572 0.17749 16.2763C0.17749 5.09546 8.94168 0 17.0653 0C21.5784 0 25.7421 1.48496 28.8285 4.19283C32.177 7.16276 33.9531 11.3556 33.9531 16.2763C33.9531 21.1971 32.177 25.3608 28.8285 28.3307C25.7421 31.0386 21.5493 32.5527 17.0653 32.5527Z" fill="url(#paint2_linear_525_2479)"/>
<path d="M31.0093 6.60083C32.5612 9.10488 33.3707 12.0865 33.3707 15.4029C33.3707 20.3236 31.5945 24.4873 28.2461 27.4573C25.1597 30.1651 20.9669 31.6792 16.4829 31.6792C11.2244 31.6792 5.70961 29.5391 2.45435 24.9998C5.58732 30.1418 11.4806 32.5527 17.0652 32.5527C21.5492 32.5527 25.742 31.0386 28.8284 28.3308C32.1769 25.3608 33.953 21.1971 33.953 16.2764C33.953 12.5669 32.9426 9.27085 31.0093 6.60083Z" fill="#EB8F00"/>
<path d="M17.1817 29.9119C15.4289 29.9002 14.0109 28.4822 13.9993 26.7294V23.0607C13.9993 21.302 15.4231 19.8782 17.1817 19.8782C18.9404 19.8782 20.3642 21.302 20.3642 23.0607V26.7323C20.3526 28.4851 18.9346 29.9002 17.1817 29.9119Z" fill="#422B0D"/>
<path d="M11.1516 10.1384C11.7456 10.1384 12.3279 10.3102 12.8287 10.6305C14.4709 11.67 15.1581 14.1245 13.8332 16.6606C12.919 18.4076 11.5447 19.2142 10.2431 19.2142C9.64915 19.2142 9.06681 19.0424 8.566 18.7221C6.92381 17.6826 6.23665 15.2281 7.56147 12.692C8.47574 10.945 9.84714 10.1384 11.1516 10.1384Z" fill="white"/>
<path opacity="0.66" d="M33.1787 19.2171C32.7798 18.926 32.8293 18.6028 31.7228 19.0483C31.2657 19.2346 30.7416 20.2828 30.7416 20.2828C30.7416 20.2828 29.9525 18.7047 28.3918 20.804C25.5559 24.6125 24.3155 24.4378 22.6471 26.1848C21.5727 27.3029 20.6438 28.3686 21.002 30.4854C21.2029 31.6675 21.7648 31.9907 21.7648 31.9907C21.7648 31.9907 22.1084 31.9907 25.4802 30.2437C28.8519 28.4967 31.7956 26.0247 33.4145 22.0648" fill="url(#paint3_linear_525_2479)"/>
<path d="M24.094 26.9389C25.3606 25.978 26.5835 25.0958 27.16 24.3358C27.7366 23.5759 28.3568 21.9832 28.7295 20.9408C29.1021 19.8984 30.1853 19.3888 30.7676 20.2798C30.919 20.5186 30.7997 21.4445 30.7676 21.7997C31.085 21.2727 31.3092 20.6933 31.4315 20.0906C31.7227 18.6697 33.2076 18.2096 33.4697 20.1197C33.4697 20.1197 34.5732 20.1634 34.084 23.5875C33.8395 24.9211 33.3998 26.2139 32.7738 27.4164C31.2044 30.3747 29.9757 31.7461 28.3859 32.835C25.8993 34.5355 23.5437 34.1307 22.8071 33.1641C21.5492 31.5015 21.887 28.6131 24.094 26.9389Z" fill="url(#paint4_radial_525_2479)"/>
<path d="M30.7561 20.2798C30.7561 20.8476 30.2087 22.8246 30.002 23.3312C29.2886 25.2093 27.9871 26.0828 28.3511 26.3798C28.715 26.6768 29.4109 26.0449 30.4154 23.6603C30.7241 22.8479 30.9046 21.9948 30.9454 21.1271C30.9425 20.833 30.8784 20.5447 30.7561 20.2798Z" fill="#ED6C30"/>
<path d="M32.672 18.8416C33.0418 19.0017 33.5921 20.0557 32.7681 23.0082C32.2586 25.2385 30.564 26.9739 30.9716 27.169C31.452 27.4922 32.5498 25.6724 33.3272 23.1509C33.531 22.388 33.6591 21.6077 33.7028 20.8215C33.7144 20.4255 33.5805 18.9493 32.672 18.8416Z" fill="#ED6C30"/>
<path opacity="0.66" d="M1.03052 19.2171C1.42943 18.926 1.37993 18.6028 2.48637 19.0483C2.9435 19.2346 3.46761 20.2828 3.46761 20.2828C3.46761 20.2828 4.25668 18.7047 5.81734 20.804C8.65333 24.6125 9.89371 24.4378 11.5621 26.1848C12.6336 27.3029 13.5624 28.3686 13.2043 30.4854C13.0063 31.6675 12.4443 31.9907 12.4443 31.9907C12.4443 31.9907 11.8853 31.9907 9.20364 30.6222C8.97361 30.5058 8.994 30.3864 8.72903 30.2466C5.3573 28.4996 2.41358 26.0276 0.794678 22.0677" fill="url(#paint5_linear_525_2479)"/>
<path d="M10.1151 26.9389C8.84849 25.978 7.62558 25.0958 7.04907 24.3358C6.47255 23.5759 5.85236 21.9832 5.47675 20.9408C5.10115 19.8984 4.02091 19.3888 3.45313 20.2798C3.30172 20.5186 3.4211 21.4445 3.45313 21.7997C3.13285 21.2727 2.90282 20.6933 2.77762 20.0906C2.48645 18.6697 1.00149 18.2096 0.739436 20.1197C0.739436 20.1197 -0.364094 20.1634 0.12507 23.5875C0.369652 24.9211 0.809317 26.2139 1.43533 27.4164C3.00182 30.3747 4.23346 31.7461 5.82325 32.835C8.30692 34.5355 10.6625 34.1307 11.402 33.1641C12.6512 31.5015 12.3221 28.6131 10.1151 26.9389Z" fill="url(#paint6_radial_525_2479)"/>
<path d="M3.45318 20.2798C3.45318 20.8476 4.00057 22.8246 4.2073 23.3312C4.92067 25.2093 6.21928 26.0828 5.85823 26.3798C5.49718 26.6768 4.79546 26.0449 3.79093 23.6603C3.48229 22.8479 3.30468 21.9948 3.26392 21.1271C3.26392 20.833 3.32797 20.5447 3.45318 20.2798Z" fill="#ED6C30"/>
<path d="M1.53435 18.8416C1.16748 19.0017 0.617167 20.0557 1.44117 23.0024C1.95072 25.2327 3.64532 26.9681 3.23769 27.1632C2.75726 27.4864 1.65955 25.6666 0.882131 23.145C0.678312 22.3822 0.550198 21.6018 0.506523 20.8157C0.494876 20.4255 0.628814 18.9493 1.53435 18.8416Z" fill="#ED6C30"/>
<path d="M13.8711 16.6809C13.6557 17.4409 13.2568 18.1339 12.7065 18.7017C12.1125 19.316 11.3292 19.712 10.4848 19.8285C9.5793 19.942 8.66212 19.7062 7.92255 19.1733C7.19463 18.6434 6.64723 17.898 6.35898 17.0449C6.29201 16.8382 6.23668 16.6256 6.19592 16.4102C6.15807 16.1976 6.13186 15.9821 6.11731 15.7667L6.09692 15.4318L6.11148 15.1115C6.12022 14.899 6.14351 14.6893 6.18427 14.4797C6.34442 13.6761 6.66179 12.9103 7.11602 12.229C7.55568 11.5331 8.15549 10.9536 8.86303 10.5344C9.5531 10.118 10.3713 9.96659 11.1662 10.1063V10.1908C10.4295 10.2053 9.71324 10.4557 9.12799 10.9041C8.54565 11.3496 8.06523 11.9174 7.71873 12.5638C7.35477 13.1986 7.11019 13.8915 6.99081 14.6136C6.88017 15.3357 6.94131 16.0724 7.17134 16.7654C7.39263 17.4584 7.82064 18.0698 8.40007 18.5124C8.9795 18.9637 9.70451 19.1879 10.4383 19.1413C11.1662 19.0889 11.8621 18.8094 12.424 18.3435C12.9918 17.8747 13.4577 17.2982 13.7954 16.6431L13.8711 16.6809Z" fill="#EB8F00"/>
<path d="M23.241 10.1384C24.5455 10.1384 25.9169 10.9537 26.8311 12.692C28.1618 15.2164 27.4688 17.6826 25.8266 18.7221C25.3258 19.0453 24.7434 19.2171 24.1495 19.2171C22.8479 19.2171 21.4736 18.4018 20.5594 16.6635C19.22 14.1362 19.9217 11.67 21.5639 10.6305C22.0647 10.3102 22.647 10.1384 23.241 10.1384Z" fill="white"/>
<path d="M23.2411 10.0949C24.0359 9.95511 24.8541 10.1065 25.5442 10.5229C26.2517 10.9422 26.8516 11.5216 27.2912 12.2175C27.7484 12.9076 28.0657 13.6792 28.223 14.4915C28.2608 14.7012 28.287 14.9108 28.2957 15.1234V15.4436V15.7668C28.2783 16.2007 28.1968 16.6316 28.057 17.0451C27.7687 17.8982 27.2242 18.6407 26.4934 19.1706C25.7538 19.7064 24.8396 19.9393 23.934 19.8257C23.0809 19.7122 22.2918 19.3162 21.6949 18.6989C21.1446 18.134 20.7428 17.4411 20.5303 16.6811L20.606 16.6404C20.9408 17.2926 21.4038 17.872 21.9686 18.3437C22.5335 18.8125 23.2294 19.092 23.9602 19.1444C24.694 19.191 25.419 18.9668 25.9984 18.5155C26.5749 18.07 27.003 17.4614 27.2242 16.7685C27.4543 16.0755 27.5154 15.3388 27.4048 14.6167C27.2912 13.8946 27.0495 13.1958 26.6885 12.5582C26.342 11.9118 25.8616 11.344 25.2792 10.8985C24.694 10.4501 23.9777 10.1997 23.2411 10.1851V10.0949Z" fill="#EB8F00"/>
<defs>
<radialGradient id="paint0_radial_525_2479" cx="0" cy="0" r="1" gradientUnits="userSpaceOnUse" gradientTransform="translate(17.0653 16.2763) scale(16.5849)">
<stop offset="0.5" stop-color="#FDE030"/>
<stop offset="0.92" stop-color="#F7C02B"/>
<stop offset="1" stop-color="#F4A223"/>
</radialGradient>
<linearGradient id="paint1_linear_525_2479" x1="17.0653" y1="32.5527" x2="17.0653" y2="0" gradientUnits="userSpaceOnUse">
<stop offset="0.39" stop-color="#40C0E7" stop-opacity="0"/>
<stop offset="1" stop-color="#5F7AFF"/>
</linearGradient>
<linearGradient id="paint2_linear_525_2479" x1="17.0653" y1="32.5527" x2="17.0653" y2="0" gradientUnits="userSpaceOnUse">
<stop offset="0.16" stop-color="#F4A223"/>
<stop offset="0.33" stop-color="#F7C02B"/>
<stop offset="0.81" stop-color="#FDE030" stop-opacity="0"/>
</linearGradient>
<linearGradient id="paint3_linear_525_2479" x1="27.1692" y1="35.179" x2="27.1692" y2="20.7079" gradientUnits="userSpaceOnUse">
<stop stop-color="#ED6C30"/>
<stop offset="1" stop-color="#ED6C30" stop-opacity="0.2"/>
</linearGradient>
<radialGradient id="paint4_radial_525_2479" cx="0" cy="0" r="1" gradientUnits="userSpaceOnUse" gradientTransform="translate(25.189 25.4138) rotate(141.52) scale(13.0147 11.9948)">
<stop offset="0.27" stop-color="#FFF176"/>
<stop offset="1" stop-color="#FFC400"/>
</radialGradient>
<linearGradient id="paint5_linear_525_2479" x1="7.03856" y1="35.179" x2="7.03856" y2="20.7079" gradientUnits="userSpaceOnUse">
<stop stop-color="#ED6C30"/>
<stop offset="1" stop-color="#ED6C30" stop-opacity="0.2"/>
</linearGradient>
<radialGradient id="paint6_radial_525_2479" cx="0" cy="0" r="1" gradientUnits="userSpaceOnUse" gradientTransform="translate(9.0055 25.3918) rotate(38.4802) scale(13.0147 11.9948)">
<stop offset="0.27" stop-color="#FFF176"/>
<stop offset="1" stop-color="#FFC400"/>
</radialGradient>
</defs>
</svg>
