<svg width="34" height="34" viewBox="0 0 34 34" fill="none" xmlns="http://www.w3.org/2000/svg">
<path d="M0.682809 33.7939C1.32599 34.4909 3.97521 33.2754 6.06626 32.3007C7.63313 31.5725 13.9034 28.9998 17.0202 27.6652C17.8617 27.3054 19.0857 26.8351 19.9669 25.6762C20.7489 24.6448 22.823 20.2644 18.6465 15.8273C14.4078 11.3222 10.0415 12.5661 8.40948 13.7221C7.44896 14.4021 6.66694 15.935 6.3156 16.7142C4.8309 20.0066 2.71435 26.0389 1.853 28.4104C1.22115 30.1586 0.0452956 33.1025 0.682809 33.7939Z" fill="#FFC107"/>
<path d="M5.89643 17.7058C5.93609 18.1988 6.03526 19.0007 6.37527 20.5449C6.60761 21.6046 6.98728 22.7153 7.29612 23.4491C8.22264 25.6563 9.52317 26.546 10.8407 27.26C13.0791 28.4727 14.6006 28.6994 14.6006 28.6994L12.7759 29.4446C12.7759 29.4446 11.6709 29.2151 10.1635 28.4727C8.72699 27.7644 7.23095 26.5658 6.13726 24.2198C5.66409 23.2026 5.38925 22.2166 5.23058 21.4346C5.03507 20.4655 5.00391 19.9159 5.00391 19.9159L5.89643 17.7058Z" fill="#FF8F00"/>
<path d="M3.65524 23.4519C3.65524 23.4519 3.88191 25.2908 5.40061 27.6113C7.17998 30.3257 9.66487 30.7706 9.66487 30.7706L8.013 31.4506C8.013 31.4506 6.16846 30.8867 4.41459 28.4925C3.3209 26.9993 3.01489 25.2143 3.01489 25.2143L3.65524 23.4519Z" fill="#FF8F00"/>
<path d="M2.08258 27.8098C2.08258 27.8098 2.49625 29.3965 3.40294 30.5809C4.48246 31.9947 5.85666 32.4056 5.85666 32.4056L4.59013 32.9666C4.59013 32.9666 3.62961 32.7654 2.57842 31.4337C1.77941 30.4222 1.55273 29.2605 1.55273 29.2605L2.08258 27.8098Z" fill="#FF8F00"/>
<path opacity="0.44" d="M1.39396 31.8387C1.33729 31.7112 1.33729 31.5667 1.39679 31.4421L8.61345 16.4761L9.80064 20.9387L2.20714 31.9067C2.00314 32.2127 1.54413 32.1731 1.39396 31.8387Z" fill="#FFFDE7"/>
<path d="M10.3731 22.4376C13.7448 26.3817 17.5841 25.8887 18.8619 24.8913C20.1426 23.8911 21.1541 20.4542 17.7966 16.5753C14.2775 12.5122 10.2937 13.6711 9.37289 14.5494C8.45204 15.4278 7.27901 18.8194 10.3731 22.4376Z" fill="url(#paint0_linear_525_2481)"/>
<path d="M21.9531 24.0612C20.7234 23.0298 20.0689 23.214 19.1905 23.5795C18.0571 24.0498 16.2749 24.3984 13.8552 23.5795L14.5834 21.8256C16.0199 22.3101 17.0598 22.075 17.958 21.5451C19.114 20.8651 20.695 19.9329 23.1544 21.9985C24.1801 22.8598 25.2313 23.4322 26.002 23.1715C26.563 22.9845 26.8605 22.1486 27.0107 21.4828C27.0248 21.4233 27.0475 21.2533 27.0645 21.1031C27.2005 20.0633 27.4272 17.8192 29.0989 16.6717C30.8868 15.4448 32.7653 15.4448 32.7653 15.4448L33.1053 18.8222C32.2411 18.6947 31.6404 18.8704 31.1333 19.1509C29.2236 20.2134 30.8868 24.2935 27.9145 25.6649C25.0556 26.9937 22.7181 24.7015 21.9531 24.0612Z" fill="#03A9F4"/>
<path d="M11.4356 19.7544L10.2059 18.6522C12.4642 16.1305 11.8691 14.2775 11.4356 12.9288C11.3478 12.6568 11.2656 12.3989 11.2118 12.1524C11.0191 11.2797 10.9795 10.5204 11.039 9.85738C10.1719 8.77786 9.78943 7.64733 9.76393 7.57083C9.23692 5.97563 9.63359 4.4201 10.5431 2.9609C12.382 0 15.7112 0 15.7112 0L16.8219 2.97223C15.9776 2.93823 13.2093 2.98073 12.3593 4.32093C11.2855 6.00963 11.991 7.05232 12.042 7.17132C12.2488 6.90215 12.4585 6.68681 12.6455 6.51964C14.0027 5.31545 15.1814 5.14261 15.9322 5.21061C16.7766 5.28712 17.5416 5.71212 18.0884 6.40914C18.6863 7.17416 18.9328 8.16868 18.743 9.07253C18.5588 9.95372 17.9723 10.6989 17.0911 11.1721C15.5526 11.9994 14.2719 11.8861 13.4133 11.5999C13.419 11.6198 13.4218 11.6424 13.4275 11.6623C13.4587 11.8039 13.521 12.0023 13.5947 12.2318C14.0962 13.7845 15.0284 16.2495 11.4356 19.7544ZM13.5182 9.1207C13.6825 9.2397 13.8554 9.33887 14.0339 9.4097C14.6289 9.64771 15.2777 9.56837 16.0144 9.1717C16.4479 8.93936 16.4989 8.69002 16.5159 8.60785C16.5669 8.36135 16.4819 8.04684 16.2977 7.81167C16.1362 7.60483 15.9492 7.49716 15.7254 7.4745C15.3004 7.43766 14.7252 7.70683 14.15 8.21968C13.8752 8.46618 13.6655 8.76936 13.5182 9.1207Z" fill="#F44336"/>
<path d="M16.3572 20.2162L14.5977 20.1681C14.5977 20.1681 15.4335 15.4476 18.1394 14.6543C18.6466 14.5069 19.2019 14.3568 19.7601 14.2746C20.0916 14.2236 20.6158 14.1471 20.8736 14.0508C20.9331 13.6059 20.7461 13.0392 20.5365 12.3961C20.3721 11.8974 20.2021 11.3845 20.1114 10.8235C19.9358 9.72984 20.2276 8.76365 20.9331 8.0978C21.7945 7.29028 23.1857 7.03244 24.7554 7.38945C25.6507 7.59346 26.3109 8.03263 26.8918 8.41797C27.7219 8.97049 28.2065 9.25099 29.2208 8.56814C30.4477 7.74079 28.844 4.50222 27.9911 2.63218L31.173 1.30615C31.6009 2.24117 33.6664 7.05228 32.3035 9.79784C31.8445 10.7215 31.054 11.3335 30.017 11.563C27.7616 12.0674 26.4412 11.189 25.4779 10.5487C25.0217 10.2455 24.6222 10.0075 24.1887 9.88284C21.1768 9.02432 25.3816 13.4558 23.4123 15.4476C22.2308 16.6405 19.3436 16.955 19.1566 17.0003C17.2979 17.448 16.3572 20.2162 16.3572 20.2162Z" fill="#F48FB1"/>
<path d="M11.036 9.85742C10.9822 10.4808 10.9567 10.8519 11.1182 11.6623C11.8973 12.2346 13.5945 12.2346 13.5945 12.2346C13.5209 12.0051 13.4557 11.8068 13.4274 11.6651C13.4217 11.6453 13.4189 11.6226 13.4132 11.6028C11.6877 10.7414 11.036 9.85742 11.036 9.85742Z" fill="#C92B27"/>
<path d="M7.50566 12.6483L4.57593 11.2118L6.03513 9.10376L8.33301 10.6253L7.50566 12.6483Z" fill="#FFC107"/>
<path d="M3.18757 8.67016C1.69154 8.46899 0.16717 7.19963 0 7.05513L1.47053 5.32959C1.91537 5.70643 2.8589 6.33828 3.49074 6.42328L3.18757 8.67016Z" fill="#FB8C00"/>
<path d="M5.82818 4.89315L3.6748 4.18763C3.92131 3.43395 3.98648 2.62077 3.85898 1.83592L6.09736 1.47607C6.28153 2.6151 6.18803 3.79662 5.82818 4.89315Z" fill="#03A9F4"/>
<path d="M19.2764 3.20874L21.4907 2.72434L22.1301 5.64729L19.9158 6.13169L19.2764 3.20874Z" fill="#FB8C00"/>
<path d="M24.7695 3.90156L23.2112 2.25536C24.0272 1.48184 24.2142 0.470318 24.2142 0.458984L26.4526 0.824492C26.4243 1.003 26.1381 2.6067 24.7695 3.90156Z" fill="#FFC107"/>
<path d="M25.6355 12.6316L27.6152 12.0129L28.2913 14.1765L26.3117 14.7952L25.6355 12.6316Z" fill="#FB8C00"/>
<path d="M26.2116 30.8925L23.9591 30.6262C24.0554 29.8243 23.4575 28.8411 23.2932 28.623L25.1066 27.2629C25.2426 27.4414 26.4241 29.0763 26.2116 30.8925Z" fill="#F44336"/>
<path d="M32.6776 28.0195C31.8305 27.892 30.9634 27.841 30.1078 27.8722L30.0312 25.6055C31.0258 25.5715 32.0316 25.6282 33.0148 25.7783L32.6776 28.0195Z" fill="#FB8C00"/>
<path d="M29.6299 31.1396L31.2225 29.5267L33.4141 31.6906L31.8215 33.3036L29.6299 31.1396Z" fill="#F48FB1"/>
<path d="M24.9507 16.8108L26.5883 18.6833L24.7158 20.321L23.0782 18.4485L24.9507 16.8108Z" fill="#F44336"/>
<defs>
<linearGradient id="paint0_linear_525_2481" x1="19.648" y1="16.3879" x2="11.2137" y2="21.4485" gradientUnits="userSpaceOnUse">
<stop offset="0.0235" stop-color="#8F4700"/>
<stop offset="1" stop-color="#703E2D"/>
</linearGradient>
</defs>
</svg>
