<svg width="36" height="34" viewBox="0 0 36 34" fill="none" xmlns="http://www.w3.org/2000/svg">
<path d="M17.6412 34.005C9.15518 34.005 0 28.6822 0 17.0025C0 5.32278 9.15518 0 17.6412 0C22.3557 0 26.7051 1.55121 29.9292 4.37989C33.4271 7.48231 35.2824 11.8622 35.2824 17.0025C35.2824 22.1428 33.4271 26.4922 29.9292 29.5947C26.7051 32.4233 22.3253 34.005 17.6412 34.005Z" fill="url(#paint0_radial_525_2480)"/>
<path d="M32.2075 6.89526C33.8287 9.51103 34.6742 12.6256 34.6742 16.09C34.6742 21.2303 32.8189 25.5797 29.321 28.6822C26.097 31.5108 21.7171 33.0925 17.033 33.0925C11.5399 33.0925 5.77916 30.8569 2.37866 26.1151C5.65141 31.4865 11.8076 34.0049 17.6413 34.0049C22.3254 34.0049 26.7053 32.4233 29.9294 29.5946C33.4272 26.4922 35.2826 22.1427 35.2826 17.0025C35.2826 13.1275 34.2271 9.6844 32.2075 6.89526Z" fill="#EB8F00"/>
<path d="M17.8846 23.2073C16.7957 23.2073 15.7159 23.0248 14.6909 22.6598C13.4286 22.2248 12.0569 22.897 11.6219 24.1562C11.3756 24.868 11.4759 25.6527 11.8926 26.2793C13.2005 28.2867 15.2688 29.3817 17.8846 29.3817C20.5003 29.3817 22.5686 28.2867 23.8765 26.2793C24.6156 25.1691 24.3114 23.6696 23.2013 22.9305C22.5747 22.5138 21.79 22.4134 21.0782 22.6598C20.0532 23.0248 18.9735 23.2073 17.8846 23.2073Z" fill="#422B0D"/>
<path opacity="0.8" d="M8.699 25.0018C11.6387 25.0018 14.0218 22.7549 14.0218 19.9832C14.0218 17.2115 11.6387 14.9646 8.699 14.9646C5.75931 14.9646 3.37622 17.2115 3.37622 19.9832C3.37622 22.7549 5.75931 25.0018 8.699 25.0018Z" fill="url(#paint1_radial_525_2480)"/>
<path opacity="0.8" d="M27.0701 25.0018C30.0098 25.0018 32.3929 22.7549 32.3929 19.9832C32.3929 17.2115 30.0098 14.9646 27.0701 14.9646C24.1304 14.9646 21.7473 17.2115 21.7473 19.9832C21.7473 22.7549 24.1304 25.0018 27.0701 25.0018Z" fill="url(#paint2_radial_525_2480)"/>
<path d="M31.0211 8.32496C28.524 7.62235 26.6899 9.66326 26.6899 9.66326C26.6899 9.66326 26.477 7.34861 24.3418 6.62167C21.7808 5.74265 19.0768 7.14178 18.9156 10.7704C18.7331 14.9039 24.2019 20.3301 24.2019 20.3301C24.2019 20.3301 30.9907 18.5052 33.2141 14.6363C35.0239 11.4882 32.9099 8.85419 31.0211 8.32496Z" fill="#F44336"/>
<path d="M31.0212 8.32486C30.714 8.24274 30.3976 8.20624 30.0813 8.21232C30.9756 8.81151 31.6842 9.64795 32.1253 10.6273C32.5541 11.6584 32.6667 12.9907 31.8515 14.5814C30.0844 18.0397 24.643 20.181 24.2476 20.33C24.7433 20.1901 31.0881 18.3651 33.2263 14.6453C35.0239 11.4881 32.91 8.8541 31.0212 8.32486Z" fill="#C62828"/>
<path d="M26.6869 10.0372C26.6687 9.72086 26.62 9.40453 26.547 9.09429C26.3706 8.20006 25.817 7.42446 25.0262 6.96518C24.4848 6.64885 23.8856 6.44811 23.2651 6.37207C23.2651 6.37207 24.1776 6.64885 24.8285 7.91111C25.16 8.57418 25.3577 9.29808 25.4064 10.0372C25.4034 10.3079 25.452 10.5725 25.5494 10.825C25.6589 11.0774 25.9265 11.2264 26.2003 11.1839C26.617 11.0774 26.7082 10.5573 26.6869 10.0372Z" fill="#C62828"/>
<path d="M20.7742 8.58641C21.3429 7.88076 22.2767 7.20857 23.1709 7.82906C23.6454 8.16059 23.6515 9.10044 23.0706 9.52322C22.0912 10.241 22.0455 10.7125 21.936 11.1079C21.8022 11.5793 21.7171 12.142 21.2882 12.3793C20.8593 12.6165 20.4822 12.3793 20.2571 11.701C19.8738 10.6425 20.0685 9.46239 20.7742 8.58641Z" fill="#FF847A"/>
<path d="M10.6821 6.56076C8.21534 7.3607 7.81993 10.0768 7.81993 10.0768C7.81993 10.0768 6.35997 8.25188 4.17003 8.84195C1.55731 9.52935 0.0821356 12.1938 1.94663 15.2992C4.10616 18.8579 11.6615 20.3331 11.6615 20.3331C11.6615 20.3331 16.2999 15.0529 16.0079 10.6C15.7676 6.97442 12.5466 5.95548 10.6821 6.56076Z" fill="#F44336"/>
<path d="M10.6821 6.56078C10.381 6.65811 10.092 6.79802 9.82739 6.97443C10.9041 6.97747 11.9565 7.28163 12.869 7.85345C13.7997 8.46177 14.6301 9.52024 14.8369 11.2996C15.284 15.1593 11.9383 19.9559 11.6797 20.3057C12.0173 19.9164 16.2847 14.8795 16.0049 10.597C15.7676 6.97443 12.5466 5.9555 10.6821 6.56078Z" fill="#C62828"/>
<path d="M8.02987 10.3961C7.84129 10.1375 7.62838 9.90029 7.39114 9.68738C6.7524 9.03648 5.8673 8.68974 4.95787 8.7384C4.33434 8.7749 3.72298 8.9361 3.16333 9.21897C3.16333 9.21897 4.07581 8.94219 5.31677 9.63567C5.96463 10.0098 6.52733 10.5116 6.97748 11.1078C7.12348 11.3359 7.31206 11.5306 7.53409 11.6857C7.76525 11.8347 8.06941 11.8074 8.2732 11.6218C8.5439 11.2933 8.33403 10.8128 8.02987 10.3961Z" fill="#C62828"/>
<path d="M2.31167 12.4704C2.32384 12.2149 2.36946 11.9624 2.4455 11.7191C2.57021 11.2081 2.93216 10.7853 3.41577 10.5815C3.88113 10.4355 4.52595 10.539 4.77536 11.0043C4.9974 11.418 4.83619 11.9168 4.71453 12.373C4.60503 12.8962 4.5442 13.4315 4.53203 13.9668C4.53508 14.4048 4.18529 14.7607 3.7473 14.7668C3.33365 14.7668 3.01124 14.4079 2.78008 14.0642C2.45767 13.5958 2.29342 13.0391 2.31167 12.4704Z" fill="#FF847A"/>
<defs>
<radialGradient id="paint0_radial_525_2480" cx="0" cy="0" r="1" gradientUnits="userSpaceOnUse" gradientTransform="translate(17.6412 17.0025) scale(17.3248 17.3248)">
<stop offset="0.5" stop-color="#FDE030"/>
<stop offset="0.92" stop-color="#F7C02B"/>
<stop offset="1" stop-color="#F4A223"/>
</radialGradient>
<radialGradient id="paint1_radial_525_2480" cx="0" cy="0" r="1" gradientUnits="userSpaceOnUse" gradientTransform="translate(8.699 17.6748) scale(5.80088 5.20895)">
<stop stop-color="#ED7770"/>
<stop offset="0.9" stop-color="#ED7770" stop-opacity="0"/>
</radialGradient>
<radialGradient id="paint2_radial_525_2480" cx="0" cy="0" r="1" gradientUnits="userSpaceOnUse" gradientTransform="translate(35.7447 766.66) scale(5.91893)">
<stop stop-color="#ED7770"/>
<stop offset="0.9" stop-color="#ED7770" stop-opacity="0"/>
</radialGradient>
</defs>
</svg>
