<svg width="36" height="34" viewBox="0 0 36 34" fill="none" xmlns="http://www.w3.org/2000/svg">
<path d="M17.5836 33.8939C9.12529 33.8939 0 28.5885 0 16.947C0 5.3054 9.12529 0 17.5836 0C22.2827 0 26.6179 1.54614 29.8315 4.36559C33.3179 7.45787 35.1672 11.8235 35.1672 16.947C35.1672 22.0705 33.3179 26.4057 29.8315 29.498C26.6119 32.3175 22.2524 33.8939 17.5836 33.8939Z" fill="url(#paint0_radial_525_2482)"/>
<path d="M11.7569 10.2893C10.4866 10.2893 9.33154 11.3625 9.33154 13.1451C9.33154 14.9277 10.4866 15.9979 11.7569 15.9979C13.0302 15.9979 14.1822 14.9247 14.1822 13.1451C14.1822 11.3655 13.0423 10.2893 11.7569 10.2893Z" fill="#422B0D"/>
<path d="M11.6505 11.481C11.22 11.2748 10.7016 11.4567 10.4925 11.8872C10.3318 12.2237 10.4045 12.6269 10.6744 12.8876C11.1048 13.0938 11.6233 12.9119 11.8324 12.4814C11.9931 12.1449 11.9204 11.7417 11.6505 11.481Z" fill="#896024"/>
<path d="M23.3982 10.2893C22.128 10.2893 20.9729 11.3625 20.9729 13.1451C20.9729 14.9277 22.128 15.9979 23.3982 15.9979C24.6685 15.9979 25.8236 14.9247 25.8236 13.1451C25.8236 11.3655 24.6685 10.2893 23.3982 10.2893Z" fill="#422B0D"/>
<path d="M23.277 11.481C22.8465 11.2748 22.3281 11.4567 22.1189 11.8872C21.9582 12.2237 22.031 12.6269 22.3008 12.8876C22.7313 13.0938 23.2497 12.9119 23.4589 12.4814C23.6196 12.1449 23.5468 11.7417 23.277 11.481Z" fill="#896024"/>
<path d="M32.2173 6.8728C33.8332 9.48003 34.676 12.5844 34.676 16.0375C34.676 21.161 32.8267 25.4963 29.3403 28.5886C26.1267 31.408 21.7611 32.9845 17.0924 32.9845C11.6172 32.9845 5.87523 30.7562 2.48584 26.0298C5.7479 31.3837 11.884 33.894 17.6987 33.894C22.3674 33.894 26.733 32.3175 29.9466 29.4981C33.433 26.4058 35.2823 22.0705 35.2823 16.947C35.2823 13.0847 34.2303 9.65283 32.2173 6.8728Z" fill="#EB8F00"/>
<path d="M29.3615 19.5907C28.9371 18.8237 28.0155 18.4871 27.1969 18.7964C24.0864 19.7028 20.8608 20.1546 17.6199 20.1394C14.3791 20.1546 11.1534 19.7028 8.04292 18.7964C7.2274 18.4871 6.30578 18.8206 5.88135 19.5846C5.46904 20.3455 5.76615 21.2278 6.11479 21.9887C8.06111 26.2633 12.3509 28.8221 17.5957 28.8372H17.6442C22.8889 28.8372 27.1787 26.2633 29.1281 21.9887C29.4737 21.2217 29.7738 20.3516 29.3615 19.5907Z" fill="#422B0D"/>
<path d="M22.4737 27.6304C22.3615 27.5274 22.2463 27.4334 22.1311 27.3273C20.8942 26.2389 19.2935 25.6538 17.6443 25.6871C15.9465 25.6599 14.2943 26.2237 12.9694 27.2848C12.8542 27.3788 12.733 27.4698 12.6208 27.588C12.5086 27.7062 12.448 27.7911 12.3752 27.8912C14.0427 28.543 15.8192 28.8764 17.6109 28.8673H17.6594C19.3753 28.8673 21.0761 28.5612 22.6829 27.9579C22.6222 27.8426 22.5525 27.7335 22.4737 27.6304Z" fill="#ED7770"/>
<path d="M27.197 18.7962C24.0865 19.7027 20.8608 20.1544 17.62 20.1392C14.3791 20.1544 11.1535 19.7027 8.04297 18.7962C7.22746 18.487 6.30583 18.8204 5.8814 19.5844C5.82077 19.6996 5.77226 19.8209 5.74194 19.9452C5.84199 19.9967 5.95719 20.0483 6.09362 20.1028C9.74373 21.9309 13.7789 22.8586 17.8595 22.8101C21.7733 22.8556 25.6417 22.0037 29.1767 20.3241C29.3191 20.2635 29.4374 20.2059 29.5435 20.1513C29.5192 19.9543 29.4556 19.7603 29.3616 19.5844C28.9372 18.8204 28.0155 18.4839 27.197 18.7962Z" fill="white"/>
<path d="M29.3737 19.5937C28.9432 18.8267 28.0185 18.4871 27.1939 18.7964C24.0834 19.7028 20.8577 20.1546 17.6199 20.1394C14.3791 20.1546 11.1534 19.7028 8.04292 18.7964C7.2274 18.4871 6.30578 18.8206 5.88135 19.5846C5.46904 20.3455 5.76615 21.2278 6.11479 21.9887C6.2694 22.3313 6.44221 22.6678 6.6332 22.9922C6.6332 22.9922 5.99655 20.6336 6.54831 19.9484C6.73628 19.6574 7.05157 19.4755 7.39718 19.4573C7.53967 19.4573 7.67912 19.4815 7.81555 19.524C10.9806 20.4547 14.2639 20.9246 17.5654 20.9185H17.6715C20.9729 20.9246 24.2562 20.4547 27.4213 19.524C27.5577 19.4815 27.6971 19.4573 27.8396 19.4573C28.1852 19.4755 28.5036 19.6574 28.6915 19.9484C29.2524 20.6336 28.6066 23.0013 28.6066 23.0013C28.7946 22.6769 28.9826 22.3434 29.1402 21.9978C29.4858 21.2369 29.786 20.3577 29.3737 19.5937Z" fill="#EB8F00"/>
<defs>
<radialGradient id="paint0_radial_525_2482" cx="0" cy="0" r="1" gradientUnits="userSpaceOnUse" gradientTransform="translate(17.5836 16.947) scale(17.2682)">
<stop offset="0.5" stop-color="#FDE030"/>
<stop offset="0.92" stop-color="#F7C02B"/>
<stop offset="1" stop-color="#F4A223"/>
</radialGradient>
</defs>
</svg>
