<svg width="34" height="34" viewBox="0 0 34 34" fill="none" xmlns="http://www.w3.org/2000/svg">
<path d="M10 8.25V1.25M24 8.25V1.25M10.0175 13.5H10M10.0175 18.75H10M10.0175 24H10M17.0175 18.75H17M17.0175 13.5H17M24.0175 18.75H24M17.0175 24H17M24.0175 13.5H24M6.5 32.75H27.5C30.3995 32.75 32.75 30.3995 32.75 27.5V10C32.75 7.10051 30.3995 4.75 27.5 4.75H6.5C3.60051 4.75 1.25 7.10051 1.25 10V27.5C1.25 30.3995 3.60051 32.75 6.5 32.75Z" stroke="#525352" stroke-width="1.5" stroke-linecap="round" stroke-linejoin="round"/>
</svg>
