<?xml version="1.0" encoding="UTF-8"?>
<svg version="1.1" xmlns="http://www.w3.org/2000/svg" width="512" height="512">
<path d="M0 0 C0.84615039 -0.00205263 1.69230079 -0.00410527 2.5640921 -0.0062201 C5.42447219 -0.01191424 8.2848045 -0.01042989 11.14518929 -0.00901413 C13.20661574 -0.01159638 15.26804169 -0.01460914 17.32946694 -0.01801753 C23.01382523 -0.02610716 28.6981709 -0.02787819 34.38253427 -0.028615 C40.50533721 -0.03046212 46.62813355 -0.03800767 52.75093269 -0.04475021 C66.84617337 -0.05905673 80.94140989 -0.0648616 95.03665609 -0.06944216 C101.99918135 -0.07177696 108.96170578 -0.07537946 115.9242304 -0.07913754 C139.74921435 -0.09197309 163.57419784 -0.10269286 187.39918518 -0.10614014 C188.89508665 -0.10636177 190.39098812 -0.10658355 191.88688958 -0.10680549 C193.38643746 -0.10702613 194.88598534 -0.10724661 196.38553321 -0.10746694 C199.39397041 -0.10790949 202.40240761 -0.10835661 205.4108448 -0.10880661 C206.1567637 -0.108916 206.90268259 -0.10902539 207.67120508 -0.1091381 C231.86712556 -0.11277014 256.06301609 -0.1286957 280.2589251 -0.15199697 C305.82969463 -0.17657734 331.40044703 -0.19031212 356.97122872 -0.19150805 C359.77667372 -0.19167951 362.58211871 -0.19189495 365.38756371 -0.19214249 C366.07836233 -0.19219826 366.76916095 -0.19225402 367.48089287 -0.19231148 C378.61078661 -0.19346342 389.74064969 -0.20449739 400.87053307 -0.21902954 C412.05105362 -0.23337573 423.2315353 -0.23638905 434.41206609 -0.22858956 C440.47234246 -0.22467054 446.53251538 -0.22567355 452.59277916 -0.23964691 C458.13561531 -0.2523108 463.67826949 -0.25125486 469.22110511 -0.2390562 C471.23118704 -0.23708611 473.24128152 -0.24023753 475.25134574 -0.24890056 C477.97465224 -0.2598987 480.69730574 -0.25257257 483.42059326 -0.24050903 C484.60286343 -0.25190182 484.60286343 -0.25190182 485.80901784 -0.26352477 C490.76593021 -0.21582109 494.26319964 0.55848963 497.83613777 4.13142776 C497.93624922 5.8939828 497.96537714 7.66058987 497.96756554 9.42598438 C497.97140668 10.58156237 497.97524783 11.73714036 497.97920537 12.92773587 C497.97833889 14.21348584 497.97747241 15.49923581 497.97657967 16.82394791 C497.97916117 18.19109206 497.98217372 19.55823545 497.98558307 20.92537779 C497.99368288 24.70035803 497.99544431 28.4753193 497.99618053 32.2503072 C497.99802616 36.31539685 498.00557144 40.38047653 498.01231575 44.44556046 C498.0259252 53.34711674 498.03192909 62.24866854 498.03632641 71.15023351 C498.03908691 76.71084962 498.04332415 82.271464 498.04783058 87.83207893 C498.06003135 103.23109866 498.07032601 118.63011697 498.07370567 134.02914143 C498.07392524 135.01576347 498.07414481 136.00238551 498.07437102 137.01890519 C498.0745893 138.00790237 498.07480758 138.99689955 498.07503247 140.01586634 C498.07547594 142.01996299 498.0759225 144.02405963 498.07637215 146.02815628 C498.07659358 147.02225915 498.07681501 148.01636201 498.07704315 149.04058921 C498.080984 165.11845544 498.09841257 181.19627614 498.12173167 197.27412481 C498.14548632 213.78597673 498.15790955 230.29780588 498.15907359 246.80967516 C498.15998855 256.0780999 498.16569462 265.34646549 498.1838932 274.61487389 C498.1993504 282.51514737 498.20438204 290.41534345 498.1961551 298.31562919 C498.19226712 302.34188141 498.19308643 306.36797807 498.20721245 310.39421082 C498.30998962 341.46070198 498.30998962 341.46070198 494.83613777 354.13142776 C494.59917309 354.9996872 494.3622084 355.86794664 494.11806297 356.76251698 C493.53877954 358.75766567 492.87773997 360.68656039 492.14863777 362.63142776 C491.89372566 363.32663528 491.63881355 364.0218428 491.37617683 364.73811722 C479.40239309 396.42143567 456.69543197 421.55658479 425.99971199 435.99129105 C414.96608618 440.96146645 398.13102003 448.50458919 385.89863777 445.38142776 C383.83613777 444.13142776 383.83613777 444.13142776 381.83613777 441.13142776 C381.37563049 437.60087194 381.51248073 435.71276217 383.25410652 432.58455276 C386.95061265 429.07259233 390.61476119 428.68092628 395.52363777 427.75642776 C422.56702506 421.94726294 447.77274616 406.71987241 463.10273933 383.18709183 C478.67057722 357.89394845 485.96221417 327.65848309 479.14863777 298.19392776 C478.46162614 295.47625824 477.68695989 292.80204444 476.83613777 290.13142776 C476.47391121 288.99189651 476.11168465 287.85236526 475.73848152 286.67830276 C471.20005434 273.93993765 464.77461121 262.28103024 455.83613777 252.13142776 C455.16066902 251.31287308 454.48520027 250.49431839 453.78926277 249.65095901 C437.54748783 230.53427135 414.29058417 219.26892248 389.83613777 215.13142776 C389.06270027 214.99994339 388.28926277 214.86845901 387.49238777 214.73299026 C360.19947569 210.96493897 331.77589696 218.66784512 309.59297371 234.76814651 C285.43250853 253.10176102 271.49431124 277.91427199 266.22676277 307.56111526 C262.97756704 337.25876424 270.71084686 366.69983198 289.34395027 390.23299026 C307.46303005 411.30565045 328.61146472 422.29238199 355.28535652 428.99861526 C356.27148933 429.24869339 357.25762215 429.49877151 358.27363777 429.75642776 C359.11797371 429.95494339 359.96230965 430.15345901 360.83223152 430.35799026 C362.83613777 431.13142776 362.83613777 431.13142776 364.83613777 434.13142776 C365.37889534 437.62763239 365.5113408 440.96857811 363.71113777 444.06892776 C358.31738989 447.1253849 353.01106032 445.86239344 347.33613777 444.50642776 C346.5422364 444.32112503 345.74833504 444.1358223 344.93037605 443.94490433 C312.52754022 436.11926465 284.51153396 416.57231436 266.83613777 388.13142776 C266.47971199 387.56021194 266.12328621 386.98899612 265.75605965 386.40047073 C259.4210753 375.99674643 251.83613777 361.4674407 251.83613777 349.13142776 C251.00684002 349.13370609 251.00684002 349.13370609 250.16078877 349.13603044 C217.41009534 349.22549842 184.65943248 349.29415153 151.90864427 349.33568908 C147.97822523 349.34069205 144.04780644 349.34586932 140.11738777 349.35115433 C138.94365003 349.35272819 138.94365003 349.35272819 137.74620041 349.35433385 C125.06800584 349.37174993 112.38988366 349.40329421 99.71173206 349.44003895 C86.70753456 349.47741496 73.70337502 349.49965653 60.69912601 349.50778174 C52.67159421 349.51327648 44.64426698 349.53064511 36.61679813 349.56309363 C30.46640845 349.58669168 24.31617546 349.58925606 18.16574669 349.58385849 C15.63892416 349.58496234 13.11209415 349.59296379 10.58531761 349.60824966 C7.14448556 349.62805068 3.70454014 349.62340242 0.26368904 349.61244583 C-0.74408805 349.6240972 -1.75186513 349.63574856 -2.79018092 349.647753 C-4.17110167 349.63580671 -4.17110167 349.63580671 -5.57991982 349.62361908 C-6.37429475 349.62513796 -7.16866968 349.62665684 -7.98711658 349.62822175 C-11.10056267 348.91764664 -12.26581099 347.66861987 -14.16386223 345.13142776 C-14.66410822 342.4515838 -14.66410822 342.4515838 -14.66443348 339.32209301 C-14.67424777 338.12814102 -14.68406206 336.93418903 -14.69417375 335.70405668 C-14.68456875 334.39094104 -14.67496374 333.07782539 -14.66506767 331.72491837 C-14.6689594 330.31704158 -14.67459881 328.90916871 -14.68183857 327.50130516 C-14.6966298 323.62805845 -14.68639054 319.75521676 -14.67210186 315.88198292 C-14.66101675 311.70674878 -14.67292643 307.53157261 -14.68194389 303.35634232 C-14.69589484 295.17558783 -14.68830671 286.99498744 -14.67326831 278.81424027 C-14.65643116 269.29361833 -14.65961553 259.77303502 -14.66336239 250.25240279 C-14.66924429 233.26941963 -14.65505605 216.28651055 -14.63041496 199.30354691 C-14.60648944 182.8119822 -14.59941175 166.32051648 -14.60990715 149.82893753 C-14.62130759 131.8830261 -14.62325754 113.93716048 -14.60880905 95.99124962 C-14.60728316 94.07895633 -14.60576281 92.16666304 -14.60424805 90.25436974 C-14.60349023 89.31341022 -14.60273242 88.37245071 -14.60195164 87.40297727 C-14.59720234 80.7613668 -14.59906479 74.11977674 -14.60331345 67.47816658 C-14.60823198 59.38873275 -14.60229209 51.29939263 -14.58241915 43.2099803 C-14.57252434 39.08001735 -14.56746552 34.95019733 -14.57531166 30.82022667 C-14.58234028 27.04340703 -14.57563058 23.26687651 -14.55770803 19.49009515 C-14.5517127 17.46842015 -14.56051721 15.44671823 -14.56975454 13.42505544 C-14.5613146 12.2337112 -14.55287466 11.04236696 -14.54417896 9.81492138 C-14.54314983 8.78235177 -14.5421207 7.74978216 -14.54106039 6.68592256 C-14.16386223 4.13142776 -14.16386223 4.13142776 -12.82759243 2.33870941 C-8.91913908 -0.49744996 -4.60061153 -0.01026742 0 0 Z M0.83613777 16.13142776 C0.83613777 100.28142776 0.83613777 184.43142776 0.83613777 271.13142776 C44.7555046 271.34156589 44.7555046 271.34156589 88.67500496 271.51936722 C97.16279793 271.56929398 97.16279793 271.56929398 101.13429451 271.59643936 C103.91257003 271.61260692 106.69048282 271.62398735 109.46876717 271.62854385 C113.0115169 271.63462699 116.5539158 271.65493415 120.09653521 271.68558919 C122.01156997 271.69858193 123.92668687 271.69693418 125.84176445 271.69473362 C126.97240948 271.70726264 128.1030545 271.71979166 129.2679615 271.73270035 C130.25243641 271.73730931 131.23691132 271.74191828 132.2512188 271.74666691 C135.26087517 272.19464921 136.64342569 273.05454382 138.83613777 275.13142776 C139.36738777 277.06892776 139.36738777 277.06892776 139.33613777 279.13142776 C139.34645027 279.81205276 139.35676277 280.49267776 139.36738777 281.19392776 C138.60125122 283.98807285 137.28534993 284.64609092 134.83613777 286.13142776 C132.2512188 286.51618862 132.2512188 286.51618862 129.2679615 286.53015518 C128.1349662 286.54269333 127.0019709 286.55523148 125.83464241 286.56814957 C124.59602455 286.56671448 123.35740669 286.56527939 122.08125496 286.56380081 C120.7736924 286.57399246 119.46612984 286.58418411 118.11894417 286.5946846 C114.53662856 286.62227041 110.9544717 286.63154119 107.37206364 286.63753867 C103.62705312 286.64691829 99.88216138 286.67312131 96.1372242 286.6975441 C89.04710429 286.74122423 81.95700742 286.76976185 74.86679387 286.79286748 C66.79423506 286.81991108 58.72179563 286.86382307 50.64932203 286.9091562 C34.04498553 287.00202415 17.44063192 287.07309664 0.83613777 287.13142776 C0.83613777 292.08142776 0.83613777 297.03142776 0.83613777 302.13142776 C83.33613777 302.13142776 165.83613777 302.13142776 250.83613777 302.13142776 C251.82613777 297.18142776 252.81613777 292.23142776 253.83613777 287.13142776 C252.69243721 287.12778214 251.54873665 287.12413651 250.37037849 287.1203804 C239.5992357 287.08346102 228.82837962 287.02572185 218.05745506 286.94752502 C212.51980327 286.90799285 206.98231186 286.87583251 201.44453621 286.86043167 C196.10160903 286.84530295 190.75912262 286.81092469 185.41639137 286.76311874 C183.37666082 286.74826586 181.33686736 286.74038452 179.2970829 286.73954391 C176.4427595 286.73718426 173.58966418 286.71018563 170.73555183 286.6773262 C169.88966499 286.68235657 169.04377815 286.68738693 168.17225838 286.69256973 C164.36867887 286.62469079 162.44747004 286.57852239 159.31117439 284.28480911 C157.289703 281.33369676 157.25203436 279.63604822 157.83613777 276.13142776 C159.27675056 273.97804642 159.27675056 273.97804642 161.83613777 272.13142776 C164.98116812 271.52407911 168.09106901 271.56770948 171.28633308 271.58552933 C172.24276711 271.57519165 173.19920113 271.56485397 174.184618 271.55420303 C177.34467022 271.52471495 180.50408362 271.52327457 183.66426277 271.52205276 C185.85574253 271.50707521 188.04721098 271.49034897 190.23866463 271.4719429 C196.00573932 271.42820973 201.77266174 271.40825696 207.53987312 271.39320755 C213.42517816 271.37365807 219.31031823 271.33168561 225.19551277 271.29158401 C236.74233696 271.21621715 248.28912434 271.16596481 259.83613777 271.13142776 C261.00790295 269.00909798 262.17368562 266.88384985 263.33613777 264.75642776 C263.67000496 264.15314651 264.00387215 263.54986526 264.34785652 262.92830276 C266.22387716 259.71728 266.22387716 259.71728 266.83613777 256.13142776 C265.18732046 256.12784523 265.18732046 256.12784523 263.50519371 256.12419033 C236.78239267 256.06544537 210.05968216 255.98959366 183.33698082 255.89571285 C170.41418204 255.85071088 157.4914111 255.8113064 144.56855965 255.78499222 C133.30750205 255.76204777 122.04653221 255.72868964 110.78554416 255.6827262 C104.82067793 255.65874603 98.85589886 255.6400487 92.89098549 255.63381386 C87.28004758 255.62778468 81.66933285 255.60786353 76.0584774 255.57715225 C73.99609995 255.56833718 71.93369337 255.56465658 69.87129784 255.5664196 C67.06107928 255.56806383 64.25154797 255.55144602 61.44142342 255.53015518 C60.62041185 255.53500276 59.79940028 255.53985033 58.95350957 255.54484481 C55.68209167 255.50378315 53.26188278 255.35971421 50.35055351 253.79864597 C48.05385621 251.27021507 47.95904132 248.78132471 47.46113777 245.44392776 C46.21474707 239.04710775 44.83093383 234.4742715 39.83613777 230.13142776 C34.21923972 226.35772597 28.52679082 224.54732876 21.86738777 223.58845901 C19.83613777 223.13142776 19.83613777 223.13142776 17.83613777 221.13142776 C17.58445549 218.48863697 17.58445549 218.48863697 17.58217049 215.06467056 C17.57653084 213.77047699 17.57089119 212.47628342 17.56508064 211.14287186 C17.56896964 209.7003359 17.573066 208.25780049 17.57734871 206.81526566 C17.57463993 205.3026144 17.57107964 203.78996447 17.56672859 202.27731705 C17.55758805 198.16163011 17.56115587 194.04604311 17.56748676 189.93035436 C17.57253909 185.62892204 17.56785737 181.32749847 17.56471443 177.02606583 C17.56107215 169.80050999 17.56588033 162.57499499 17.57539558 155.34944534 C17.58627653 146.99019408 17.58275824 138.6310404 17.57174277 130.27179152 C17.56267244 123.10232839 17.5613835 115.93289468 17.56662011 108.76342767 C17.56974174 104.47815535 17.57014396 100.19292892 17.56354713 95.90765953 C17.55777813 91.87838859 17.56176236 87.84924365 17.57333565 83.81998634 C17.5759848 82.33930674 17.57521279 80.85861656 17.57081032 79.37794113 C17.56536367 77.36035409 17.5733977 75.34274393 17.58217049 73.32516861 C17.58292454 72.19488267 17.58367859 71.06459673 17.58445549 69.9000597 C17.83613777 67.13142776 17.83613777 67.13142776 19.83613777 64.13142776 C22.88301277 63.32283401 22.88301277 63.32283401 26.58613777 62.69392776 C34.10721358 61.20354094 38.90332114 59.0505486 43.74238777 52.89314651 C46.20141177 48.93236142 47.39205285 44.39046846 48.28535652 39.84627151 C48.71113777 37.69392776 48.71113777 37.69392776 49.83613777 34.13142776 C54.38747628 31.30611196 59.68466477 31.85319322 64.85676765 31.87746048 C65.87431649 31.8743405 66.89186532 31.87122052 67.94024897 31.86800599 C71.35417165 31.86002069 74.76791685 31.8663518 78.1818409 31.8726387 C80.62763765 31.86992908 83.07343359 31.86636831 85.51922798 31.86201859 C91.47528455 31.85383736 97.43127131 31.85504625 103.38732517 31.86084387 C108.22793801 31.86536065 113.06853673 31.86597319 117.90915108 31.86379623 C118.59809496 31.86348977 119.28703885 31.8631833 119.99685982 31.86286755 C121.3964365 31.8622281 122.79601317 31.86157967 124.19558984 31.86092237 C137.31939285 31.85521929 150.44316792 31.8617766 163.56696635 31.8725231 C174.82776535 31.88145859 186.08852311 31.87990654 197.34932137 31.87068558 C210.4261682 31.85998254 223.50299054 31.85576862 236.57984114 31.8619101 C237.97426891 31.8625472 239.36869669 31.86317594 240.76312447 31.86379623 C241.7922519 31.86425906 241.7922519 31.86425906 242.84216979 31.86473124 C247.67696218 31.86645808 252.51173903 31.86354331 257.34652901 31.85883713 C263.85374471 31.85264224 270.36089452 31.85705287 276.86810684 31.86862564 C279.2590446 31.87127448 281.6499889 31.87050333 284.04092407 31.86610031 C287.2992079 31.86065238 290.55724018 31.86747007 293.81550789 31.87746048 C294.76637921 31.87299904 295.71725053 31.86853759 296.69693613 31.86394095 C304.96386637 31.91325952 304.96386637 31.91325952 308.83613777 34.13142776 C310.36105775 37.18126772 310.07176325 39.77376466 309.83613777 43.13142776 C308.31661149 45.18906803 307.42782024 46.01566267 304.89900714 46.51043528 C303.78889476 46.51328319 303.78889476 46.51328319 302.65635586 46.51618862 C301.80043419 46.52564516 300.94451253 46.5351017 300.06265384 46.54484481 C299.12200098 46.53999723 298.18134812 46.53514965 297.21219063 46.53015518 C296.21324058 46.53680201 295.21429053 46.54344884 294.18506926 46.55029708 C290.82231866 46.56901805 287.45992102 46.56631565 284.0971241 46.56380081 C281.69276612 46.5728124 279.28841277 46.58313812 276.88406563 46.5946846 C271.69975059 46.61661316 266.51549845 46.62936067 261.33114243 46.63381386 C253.83541553 46.64026822 246.33981048 46.66319291 238.84413262 46.69015715 C226.68336305 46.73345498 214.5225986 46.76340459 202.36177254 46.78499222 C190.54761932 46.80599295 178.73350802 46.8332601 166.91938972 46.86897659 C166.19135097 46.87117542 165.46331222 46.87337424 164.71321169 46.8756397 C161.06090989 46.88670912 157.40860848 46.89790198 153.75630724 46.9091562 C123.44961968 47.0023837 93.14291503 47.07374013 62.83613777 47.13142776 C62.34367561 48.35466751 62.34367561 48.35466751 61.84126472 49.60261917 C61.1832386 51.21402786 61.1832386 51.21402786 60.51191902 52.85799026 C59.86476936 54.45248001 59.86476936 54.45248001 59.20454597 56.07918167 C53.770201 68.2005342 44.7876007 72.69894461 32.83613777 78.13142776 C32.83613777 121.69142776 32.83613777 165.25142776 32.83613777 210.13142776 C36.46613777 211.45142776 40.09613777 212.77142776 43.83613777 214.13142776 C52.38751008 219.79532371 57.16468298 225.8105883 60.92280769 235.30012894 C61.28154472 236.20389771 61.64028175 237.10766647 62.0098896 238.03882217 C62.2825515 238.72938202 62.55521339 239.41994186 62.83613777 240.13142776 C90.9045488 240.43544037 118.97271223 240.66451541 147.04243946 240.804986 C160.07652783 240.8719502 173.10959181 240.96320386 186.14302254 241.11214066 C197.50630083 241.24192996 208.86883712 241.3256348 220.23283607 241.3545782 C226.24753604 241.37149161 232.26011378 241.41108404 238.27413177 241.5059185 C243.94241458 241.59457172 249.6077144 241.62129936 255.27662468 241.60182762 C257.34991585 241.60538618 259.42331309 241.63101096 261.4960022 241.68109894 C274.64791318 242.07780498 274.64791318 242.07780498 285.60661966 235.63084286 C287.66798924 233.42635321 289.55497351 231.11803062 291.42298472 228.74910581 C307.81981312 209.97917195 339.27657611 200.15230353 363.13301277 198.25642776 C387.50175588 197.12954947 413.5498299 200.72158664 434.64082527 213.88142776 C435.3652784 214.29392776 436.08973152 214.70642776 436.83613777 215.13142776 C439.23176544 214.54333341 439.23176544 214.54333341 441.83613777 213.13142776 C444.80613777 212.14142776 447.77613777 211.15142776 450.83613777 210.13142776 C450.83613777 166.57142776 450.83613777 123.01142776 450.83613777 78.13142776 C445.55613777 75.49142776 440.27613777 72.85142776 434.83613777 70.13142776 C427.51884524 63.19925589 423.95573263 56.56151279 420.83613777 47.13142776 C419.72780083 47.12556152 418.61946388 47.11969528 417.47754097 47.11365128 C407.04458516 47.05649715 396.61183925 46.98377407 386.17909718 46.89571285 C380.81519948 46.85093996 375.45137896 46.81169917 370.08735847 46.78499222 C364.91306884 46.75902819 359.7390751 46.718675 354.56496811 46.6682415 C352.58860447 46.65152598 350.61218959 46.64004098 348.63576508 46.63381386 C345.87240464 46.62422359 343.10980927 46.59622581 340.34663582 46.56380081 C339.52520592 46.5652359 338.70377602 46.56667099 337.8574543 46.56814957 C332.28651294 46.47538623 332.28651294 46.47538623 330.12585354 44.8252573 C327.99001836 42.02018908 328.47333486 39.5175883 328.83613777 36.13142776 C330.66728984 33.51549624 331.74582144 33.16153321 334.83613777 32.13142776 C337.80721884 32.02945141 340.75493472 31.98459891 343.72627449 31.98616409 C344.63551674 31.98280548 345.54475899 31.97944687 346.48155403 31.97598648 C349.4929916 31.96647287 352.5043736 31.96453314 355.51582527 31.96345901 C357.60706289 31.96024664 359.69830029 31.95688259 361.78953743 31.95337296 C366.17600717 31.94738061 370.5624572 31.94553316 374.94893074 31.94612503 C380.57023362 31.94622664 386.19141017 31.93257598 391.81268311 31.91535282 C396.13294747 31.90423512 400.45318127 31.90220576 404.77345848 31.90273476 C406.84589892 31.90155423 408.91834015 31.89712842 410.99076653 31.88940239 C413.88967171 31.87960757 416.78830241 31.88247864 419.68721199 31.88850784 C420.5434919 31.88288834 421.3997718 31.87726883 422.28199959 31.87147903 C426.50080836 31.8937808 430.10272626 31.91716752 433.83613777 34.13142776 C434.77762591 36.64607341 435.39193068 38.78049777 435.89863777 41.38142776 C437.6300726 49.8149237 440.96590884 55.08391263 447.83613777 60.13142776 C452.27134364 62.18586259 456.60559567 62.80159578 461.41035652 63.47127151 C463.83613777 64.13142776 463.83613777 64.13142776 465.83613777 67.13142776 C466.09340668 69.89726639 466.09340668 69.89726639 466.10356331 73.31843948 C466.11635826 75.26179184 466.11635826 75.26179184 466.1294117 77.24440384 C466.12871265 78.68330777 466.12778958 80.1222116 466.12666512 81.56111526 C466.13264828 83.07391569 466.13945333 84.58671305 466.14702034 86.09950638 C466.16470659 90.21098557 466.16937675 94.32238156 466.17065191 98.43389511 C466.1725495 101.86352483 466.17990518 105.2931351 466.1869961 108.72275734 C466.20328671 116.81146478 466.20816434 124.90012768 466.20674324 132.98884964 C466.20554078 141.34081173 466.22666171 149.69251584 466.25823057 158.04441261 C466.28435175 165.20965355 466.29511233 172.37480998 466.29383242 179.54009819 C466.29332167 183.8220781 466.29906714 188.10382866 466.32018852 192.38576126 C466.33950183 196.41103978 466.33974329 200.43586851 466.32515526 204.46116257 C466.32305759 205.94023925 466.32782478 207.41934358 466.33987617 208.89837265 C466.35523655 210.91366428 466.34366348 212.92910813 466.33061409 214.94441605 C466.33170362 216.07340317 466.33279316 217.20239029 466.33391571 218.36558914 C465.83613777 221.13142776 465.83613777 221.13142776 463.93902206 222.98613358 C460.59699209 224.80630386 457.60563725 224.81730281 453.83613777 225.13142776 C455.20316465 228.30293012 456.63609116 230.00680092 459.33613777 232.13142776 C468.15671821 239.64170459 474.55609343 248.79420889 480.34004402 258.70955276 C480.83375496 259.50877151 481.3274659 260.30799026 481.83613777 261.13142776 C482.16613777 261.13142776 482.49613777 261.13142776 482.83613777 261.13142776 C482.83613777 180.28142776 482.83613777 99.43142776 482.83613777 16.13142776 C323.77613777 16.13142776 164.71613777 16.13142776 0.83613777 16.13142776 Z M0.83613777 318.13142776 C0.83613777 323.08142776 0.83613777 328.03142776 0.83613777 333.13142776 C82.67613777 333.13142776 164.51613777 333.13142776 248.83613777 333.13142776 C248.83613777 328.18142776 248.83613777 323.23142776 248.83613777 318.13142776 C166.99613777 318.13142776 85.15613777 318.13142776 0.83613777 318.13142776 Z " fill="#000000" transform="translate(14.163862228393555,32.86857223510742)"/>
<path d="M0 0 C16.96886282 13.39211805 27.42718365 32.91272521 30.125 54.25 C31.46709869 76.14515286 27.20753017 96.91992619 13.125 114.25 C12.45855469 115.07886719 11.79210937 115.90773437 11.10546875 116.76171875 C-2.37461699 132.62207188 -20.64865666 141.87241324 -41.0625 145 C-64.58207694 146.54226734 -86.30928985 141.07072992 -104.45166016 125.44702148 C-120.10164313 111.45284718 -130.73178436 92.35803276 -132.00146484 71.13623047 C-132.82785609 47.05508429 -126.21200381 26.47329225 -110.6875 8 C-81.39965531 -22.9687123 -33.48675321 -25.08270334 0 0 Z M-97.875 18.25 C-110.72872118 33.578931 -117.36682991 50.19460073 -116.05078125 70.26904297 C-114.47550919 88.02148392 -104.99764574 103.85120579 -91.55078125 115.30078125 C-77.06818386 125.85087775 -60.37340031 130.90885587 -42.4609375 128.859375 C-24.63868562 125.93277364 -8.86825099 116.65340232 2.125 102.25 C12.28665242 87.27711624 16.76526204 70.03183638 13.44140625 52.0703125 C9.57235749 34.20234184 0.32764554 19.86199445 -14.65625 9.22265625 C-40.84217555 -6.82575686 -76.22003796 -4.88937476 -97.875 18.25 Z " fill="#000000" transform="translate(306.875,112.75)"/>
<path d="M0 0 C3.44312714 2.1244827 4.71617547 3.14852641 6 7 C6.068991 9.06145107 6.08467727 11.12501401 6.0625 13.1875 C6.05347656 14.27417969 6.04445313 15.36085938 6.03515625 16.48046875 C6.02355469 17.31191406 6.01195312 18.14335937 6 19 C6.59833145 18.99333817 7.1966629 18.98667633 7.81312561 18.97981262 C14.05887461 18.91327434 20.30452235 18.86812273 26.55053711 18.83520508 C28.87935478 18.82014911 31.20814424 18.79969996 33.53686523 18.77368164 C36.89053321 18.73715867 40.24382518 18.72024129 43.59765625 18.70703125 C44.63334244 18.69154739 45.66902863 18.67606354 46.73609924 18.66011047 C52.6171094 18.65875136 56.83193119 19.10974946 62 22 C68.04915148 28.52671607 67.2482979 34.17260002 67.3125 42.75 C67.35600586 44.66425781 67.35600586 44.66425781 67.40039062 46.6171875 C67.47189871 57.15637858 67.47189871 57.15637858 65.35546875 60.703125 C60.18013778 65.74971639 55.50152603 66.34143412 48.54446411 66.33988953 C47.45986908 66.32440567 46.37527405 66.30892181 45.2578125 66.29296875 C44.13430389 66.28872391 43.01079529 66.28447906 41.85324097 66.28010559 C38.27691337 66.2633589 34.70115631 66.22571296 31.125 66.1875 C28.69532066 66.17244803 26.26563245 66.15876052 23.8359375 66.14648438 C17.89043146 66.11346846 11.9452565 66.0633085 6 66 C6.05220703 67.32064453 6.05220703 67.32064453 6.10546875 68.66796875 C6.14607422 70.41013672 6.14607422 70.41013672 6.1875 72.1875 C6.23970703 73.91033203 6.23970703 73.91033203 6.29296875 75.66796875 C5.97298553 79.30724455 5.16639307 81.0987685 3 84 C-0.4807998 86.32989019 -3.32071686 86.48086708 -7.38671875 85.921875 C-12.59449276 84.08475293 -16.43350674 79.97077961 -20.47802734 76.33007812 C-22.7621292 74.33396216 -25.18266051 72.54712947 -27.625 70.75 C-32.96529519 66.79081564 -38.24405096 62.75804688 -43.5 58.6875 C-44.66716553 57.7888623 -44.66716553 57.7888623 -45.85791016 56.87207031 C-56.57634468 48.55293594 -56.57634468 48.55293594 -57.30078125 44.1875 C-57.32291014 40.05677394 -56.67266153 37.7400502 -53.85546875 34.640625 C-51.2558354 32.46418777 -48.62296465 30.40130124 -45.89208984 28.39501953 C-43.91222795 26.93528652 -41.96429963 25.43972082 -40.01953125 23.93359375 C-37.18501537 21.74230389 -34.34031758 19.56563635 -31.484375 17.40234375 C-28.38157635 15.05196692 -25.28867844 12.68937953 -22.203125 10.31640625 C-21.42606201 9.71932861 -20.64899902 9.12225098 -19.84838867 8.50708008 C-18.35036403 7.35560263 -16.85310236 6.20313176 -15.35668945 5.04956055 C-14.683396 4.53304932 -14.01010254 4.01653809 -13.31640625 3.484375 C-12.72287354 3.02772461 -12.12934082 2.57107422 -11.51782227 2.10058594 C-7.93576613 -0.49679368 -4.28464542 -0.60740184 0 0 Z M-15.75 25.875 C-18.98643143 28.56706451 -22.22583992 31.19494976 -25.62109375 33.68359375 C-26.51199707 34.34222412 -26.51199707 34.34222412 -27.42089844 35.01416016 C-28.58451082 35.86934128 -29.7556458 36.71439408 -30.93457031 37.54833984 C-32.74507518 38.84347842 -32.74507518 38.84347842 -35 41 C-35.45104023 44.83961898 -35.45104023 44.83961898 -33.65820312 46.46044922 C-33.03880859 46.90404785 -32.41941406 47.34764648 -31.78125 47.8046875 C-31.09546875 48.30613281 -30.4096875 48.80757813 -29.703125 49.32421875 C-28.97609375 49.83597656 -28.2490625 50.34773438 -27.5 50.875 C-26.09375 51.89322917 -24.6875 52.91145833 -23.28125 53.9296875 C-22.229375 54.67943848 -22.229375 54.67943848 -21.15625 55.44433594 C-18.24620196 57.54384071 -15.39632683 59.71951591 -12.54882812 61.90283203 C-11.18034325 63.09634098 -11.18034325 63.09634098 -10 63 C-9.90203125 62.30132812 -9.8040625 61.60265625 -9.703125 60.8828125 C-9.55359375 59.97273438 -9.4040625 59.06265625 -9.25 58.125 C-9.11078125 57.22007812 -8.9715625 56.31515625 -8.828125 55.3828125 C-8 53 -8 53 -6.29217529 51.8710022 C-3.56896329 50.83621064 -1.40986229 50.72123664 1.50292969 50.68115234 C3.15418854 50.65134781 3.15418854 50.65134781 4.83880615 50.62094116 C6.02121887 50.60938995 7.20363159 50.59783875 8.421875 50.5859375 C9.63699768 50.56657135 10.85212036 50.5472052 12.10406494 50.5272522 C15.98597184 50.46746194 19.8679084 50.42107254 23.75 50.375 C26.38152337 50.33681978 29.01303424 50.29776802 31.64453125 50.2578125 C38.09625275 50.16176057 44.54803276 50.07772693 51 50 C51 45.05 51 40.1 51 35 C49.28901123 34.98541748 47.57802246 34.97083496 45.81518555 34.95581055 C40.16321713 34.90417269 34.51151678 34.83889064 28.85980511 34.76428509 C25.43300921 34.71954972 22.00633305 34.68030112 18.5793457 34.65356445 C14.6398769 34.62258953 10.70091349 34.56779902 6.76171875 34.51171875 C5.53039719 34.50532883 4.29907562 34.4989389 3.03044128 34.49235535 C1.31900688 34.46266411 1.31900688 34.46266411 -0.42700195 34.43237305 C-1.93590752 34.41571846 -1.93590752 34.41571846 -3.47529602 34.39872742 C-6.37830747 33.94025376 -7.28197425 33.34310869 -9 31 C-9.51171875 28.73828125 -9.51171875 28.73828125 -9.6875 26.3125 C-9.78611328 25.10013672 -9.78611328 25.10013672 -9.88671875 23.86328125 C-9.92410156 23.24839844 -9.96148437 22.63351562 -10 22 C-12.10318046 22 -14.26389575 24.63371639 -15.75 25.875 Z " fill="#000000" transform="translate(367,349)"/>
<path d="M0 0 C2.359375 1.2578125 2.359375 1.2578125 4.75 3.125 C5.69617188 3.85203125 6.64234375 4.5790625 7.6171875 5.328125 C8.14666992 5.74642578 8.67615234 6.16472656 9.22167969 6.59570312 C11.22336775 8.17638815 13.2397768 9.73711832 15.2578125 11.296875 C18.35784068 13.69647979 21.45104006 16.10449772 24.5390625 18.51953125 C29.40105239 22.31945617 34.29787481 26.07258435 39.203125 29.81640625 C48.53938473 37.10546936 48.53938473 37.10546936 49.44921875 40.84765625 C49.86988495 44.75778303 49.71823061 47.0919287 47.2265625 50.2421875 C44.58109675 52.64793467 41.84575289 54.8345942 39 57 C37.46472656 58.2065625 37.46472656 58.2065625 35.8984375 59.4375 C33.17974551 61.56390254 30.43311534 63.65095568 27.67773438 65.72949219 C25.4626901 67.40689184 23.26404856 69.10500156 21.06665039 70.80541992 C19.44952744 72.05321942 17.82453049 73.2902395 16.19921875 74.52734375 C14.03491586 76.1817013 11.92339061 77.88340811 9.83203125 79.62890625 C1.26739156 86.56528744 1.26739156 86.56528744 -3.9375 86.875 C-6.84406552 86.49450415 -8.40313069 85.78609392 -11.0625 84.375 C-13.34207936 80.40411982 -13.20182578 78.31526495 -13.12109375 73.7890625 C-13.10361084 72.5201416 -13.08612793 71.2512207 -13.06811523 69.94384766 C-13.03439819 68.48664307 -13.03439819 68.48664307 -13 67 C-13.60863892 67.00888245 -14.21727783 67.01776489 -14.84436035 67.0269165 C-21.20376148 67.1157068 -27.56298525 67.17586542 -33.92285156 67.21972656 C-36.29336709 67.23978826 -38.66383345 67.26704426 -41.03417969 67.30175781 C-44.44999351 67.35051418 -47.86515055 67.37302399 -51.28125 67.390625 C-52.85984802 67.42159271 -52.85984802 67.42159271 -54.47033691 67.45318604 C-60.78685254 67.45509358 -65.79394525 66.79310274 -71 63 C-75.97922836 57.02964561 -75.57335078 50.9618805 -75.4375 43.4375 C-75.44458984 42.32697266 -75.45167969 41.21644531 -75.45898438 40.07226562 C-75.41457799 34.364337 -75.34922929 29.85558123 -72 25 C-67.86927537 21.2722729 -65.50398188 19.87317879 -59.99951172 19.88647461 C-58.43811966 19.88658791 -58.43811966 19.88658791 -56.84518433 19.88670349 C-55.71807037 19.89186478 -54.59095642 19.89702606 -53.4296875 19.90234375 C-52.27832306 19.9037587 -51.12695862 19.90517365 -49.94070435 19.90663147 C-46.25211014 19.91224284 -42.56357595 19.9247973 -38.875 19.9375 C-36.37890712 19.94251353 -33.8828133 19.94707669 -31.38671875 19.95117188 C-25.25779191 19.96221597 -19.12890024 19.9789652 -13 20 C-13.04640625 19.04738281 -13.0928125 18.09476562 -13.140625 17.11328125 C-13.17671875 15.85902344 -13.2128125 14.60476563 -13.25 13.3125 C-13.29640625 12.07113281 -13.3428125 10.82976562 -13.390625 9.55078125 C-12.93571566 5.41565531 -11.95604322 3.8656606 -9 1 C-5.69478766 -0.10173745 -3.46624307 -0.28740206 0 0 Z M3 23 C2.91363281 23.61488281 2.82726562 24.22976563 2.73828125 24.86328125 C2.59777344 25.67152344 2.45726562 26.47976563 2.3125 27.3125 C2.12107422 28.51326172 2.12107422 28.51326172 1.92578125 29.73828125 C0.63649038 32.88806781 -0.98496563 33.50426769 -4 35 C-6.68928528 35.39872742 -6.68928528 35.39872742 -9.61645508 35.43237305 C-10.71721878 35.45216721 -11.81798248 35.47196136 -12.95210266 35.49235535 C-14.71797981 35.50194023 -14.71797981 35.50194023 -16.51953125 35.51171875 C-17.73323898 35.52966995 -18.94694672 35.54762115 -20.19743347 35.56611633 C-24.06908711 35.62024301 -27.94061728 35.65412377 -31.8125 35.6875 C-34.43947031 35.72067086 -37.06642433 35.75516029 -39.69335938 35.79101562 C-46.12881721 35.87597139 -52.56423827 35.94277215 -59 36 C-59 40.95 -59 45.9 -59 51 C-57.28901123 51.01981934 -55.57802246 51.03963867 -53.81518555 51.06005859 C-48.16326771 51.12781853 -42.51152055 51.20459294 -36.85980511 51.28752708 C-33.43302652 51.33748172 -30.00627864 51.38381157 -26.5793457 51.421875 C-22.63995917 51.46578887 -18.70088692 51.52543728 -14.76171875 51.5859375 C-12.9147364 51.60326431 -12.9147364 51.60326431 -11.03044128 51.62094116 C-9.88948502 51.64081085 -8.74852875 51.66068054 -7.57299805 51.68115234 C-6.06409248 51.70113785 -6.06409248 51.70113785 -4.52470398 51.7215271 C-2 52 -2 52 1 54 C1.73046875 56.1640625 1.73046875 56.1640625 2.1875 58.625 C2.34605469 59.44226563 2.50460937 60.25953125 2.66796875 61.1015625 C2.77753906 61.72804688 2.88710938 62.35453125 3 63 C8.46632552 60.26683724 12.93817481 56.66867375 17.56835938 52.72753906 C21.25437261 49.59512858 25.00568222 46.72339849 29 44 C21.17124464 35.98552599 12.52129735 28.91474532 3 23 Z " fill="#000000" transform="translate(416,275)"/>
<path d="M0 0 C2.35039968 2.30737177 2.96527859 3.56686512 3.23046875 6.875 C3.21628906 7.90625 3.20210938 8.9375 3.1875 10 C3.28848922 13.17908553 3.28848922 13.17908553 4 16 C5.84656923 17.61518095 7.48792927 18.20184001 9.79296875 19.01171875 C13.83827355 20.82315612 16.47803256 24.44000539 19 28 C20.19754817 31.59264452 20.33094958 34.22717474 20 38 C18.4375 40.4375 18.4375 40.4375 16 42 C12.5625 42.5625 12.5625 42.5625 9 42 C6.33512037 39.81964394 4.48450898 37.83757388 2.76171875 34.859375 C1.07154541 32.70639583 1.07154541 32.70639583 -1.99609375 32.46875 C-3.13175781 32.4790625 -4.26742188 32.489375 -5.4375 32.5 C-6.57058594 32.4896875 -7.70367187 32.479375 -8.87109375 32.46875 C-12.57985204 33.09845178 -13.77568031 34.01444469 -16 37 C-16.35457365 40.47482175 -16.1054086 42.68377419 -15 46 C-11.74584138 47.20745494 -8.4554915 47.13853927 -5.00927734 47.23852539 C3.32492567 47.51140885 9.69676972 47.88611185 15.953125 53.8671875 C22.11569058 60.50572359 23.48770928 65.75843692 23.3046875 74.77734375 C22.66819867 81.50943716 19.95831766 85.35863134 15.0625 89.875 C11.17988398 93.04315694 8.11276536 95 3 95 C3.05800781 95.80824219 3.11601562 96.61648437 3.17578125 97.44921875 C3.54389122 106.16816637 3.54389122 106.16816637 0.875 110.25 C-2.55187542 112.33592417 -4.0669348 112.81938858 -8 112 C-10.875 110.25 -10.875 110.25 -13 107 C-13.41449604 102.96522209 -13.28999494 99.04059621 -13 95 C-13.99 94.95875 -14.98 94.9175 -16 94.875 C-21.61572551 94.05485347 -25.86587213 90.61236381 -29.39453125 86.29296875 C-32.01517399 82.19069054 -32.79540448 78.7724269 -32 74 C-29.9375 71 -29.9375 71 -27 69 C-23.42584478 69 -21.11502857 69.19256552 -18.1875 71.3125 C-16.90932296 73.12885684 -15.99173452 75.01653095 -15 77 C-11.85371632 78.57314184 -8.51418512 78.26696326 -5.0625 78.3125 C-4.33353516 78.34150391 -3.60457031 78.37050781 -2.85351562 78.40039062 C1.47573302 78.46226092 1.47573302 78.46226092 5.015625 76.20703125 C6.49543483 72.88920366 5.83320817 70.46101856 5 67 C2.13379209 64.13379209 -0.06198879 64.69464902 -4.0625 64.5625 C-12.94674398 64.11871046 -21.55815269 62.64964883 -28 56 C-32.97466002 49.14882266 -34.18942243 42.31473607 -33 34 C-31.27309116 27.3666384 -27.8865152 22.55928826 -22 19 C-19.05126688 17.76040519 -16.09530917 16.80014795 -13 16 C-13.05220703 14.77023438 -13.05220703 14.77023438 -13.10546875 13.515625 C-13.13253906 12.43796875 -13.15960938 11.3603125 -13.1875 10.25 C-13.23970703 8.64898437 -13.23970703 8.64898437 -13.29296875 7.015625 C-12.96625336 3.65263456 -12.36910987 2.36358747 -10 0 C-6.20519658 -1.26493447 -3.87641726 -0.89988258 0 0 Z " fill="#000000" transform="translate(261,121)"/>
<path d="M0 0 C5.4740658 4.73814167 8.59641287 9.47726167 9.24609375 16.7578125 C9.52016199 23.38528093 9.13149692 28.64861819 5 34 C0.39687836 38.85297793 -3.97581167 42.51664777 -10.796875 43.3359375 C-18.54012516 43.43836144 -24.77449404 42.66025187 -30.78125 37.45703125 C-35.58887061 32.30769251 -38.05845645 26.59314652 -38.4375 19.5625 C-38.18668012 12.64703761 -34.94150536 5.80424132 -30 1 C-20.11412257 -5.02548315 -10.2217241 -5.95020688 0 0 Z M-20 14 C-21.90701775 16.54269034 -22.00587759 17.85599893 -21.875 21.0625 C-21.22171335 24.02322441 -21.22171335 24.02322441 -19.3125 25.875 C-16.26389315 27.35810604 -14.35257076 27.48891657 -11 27 C-7.94376723 24.90889337 -7.13536986 23.70693151 -6.4375 20.0625 C-7.18901773 15.97090347 -8.74730769 14.51344406 -12 12 C-15.76914404 12 -17.00711009 12.00474006 -20 14 Z " fill="#000000" transform="translate(125,157)"/>
<path d="M0 0 C5.20655861 3.35533777 8.10930493 7.5951233 10.25 13.375 C11.93456398 21.51705922 11.13472783 27.73990437 7 35 C2.61014399 40.18307256 -3.02078211 43.55481126 -9.828125 44.31640625 C-16.40581011 44.57257238 -21.69559283 44.09523048 -27 40 C-31.85297793 35.39687836 -35.51664777 31.02418833 -36.3359375 24.203125 C-36.43836144 16.45987484 -35.66025187 10.22550596 -30.45703125 4.21875 C-21.53363227 -4.11247834 -10.90318392 -4.86674685 0 0 Z M-17.75 15.125 C-20.20991668 17.81022879 -20.20991668 17.81022879 -20.5625 21.0625 C-19.86463014 24.70693151 -19.05623277 25.90889337 -16 28 C-12.64742924 28.48891657 -10.73610685 28.35810604 -7.6875 26.875 C-5.36887891 24.29875435 -5.13996254 22.42908225 -5 19 C-5.82763326 16.29138204 -6.52113811 15.31924126 -8.875 13.75 C-12.74452197 12.38428636 -14.52986088 12.63671068 -17.75 15.125 Z " fill="#000000" transform="translate(414,156)"/>
</svg>
