<?xml version="1.0" encoding="UTF-8"?>
<svg version="1.1" xmlns="http://www.w3.org/2000/svg" width="360" height="360">
<path d="M0 0 C1.29391159 -0.00708481 2.58782318 -0.01416962 3.92094421 -0.02146912 C5.34260594 -0.01917562 6.76426734 -0.01666596 8.18592834 -0.01396179 C9.69268038 -0.01831203 11.1994302 -0.02349622 12.70617676 -0.02944946 C16.78883091 -0.04281669 20.87139236 -0.04342071 24.95406413 -0.04088616 C28.36606862 -0.03981498 31.77805447 -0.04470357 35.19005495 -0.04949158 C43.24110251 -0.06057875 51.29210341 -0.06102853 59.34315491 -0.05497742 C67.64109485 -0.04893654 75.93886527 -0.06125332 84.23677629 -0.08254749 C91.36901807 -0.10017541 98.50120594 -0.10616299 105.63346869 -0.10290974 C109.88977613 -0.10109875 114.14596263 -0.10371473 118.40225029 -0.11762428 C122.40536464 -0.13021755 126.40821507 -0.12824447 130.41132545 -0.11521339 C131.87743088 -0.11285137 133.34355496 -0.11556888 134.80963898 -0.12383652 C143.8632443 -0.17119689 150.99348818 -0.11337844 158.16664124 5.94819641 C158.70675842 6.3851886 159.24687561 6.82218079 159.80335999 7.27241516 C164.46328228 12.80132064 166.07476737 18.40203729 166.02503967 25.51264954 C166.03537735 26.29410339 166.04571503 27.07555725 166.05636597 27.88069153 C166.085598 30.4346584 166.08728892 32.98782604 166.08851624 35.54194641 C166.1035112 37.32414748 166.1202411 39.10633471 166.1386261 40.88850403 C166.18216427 45.55733407 166.20226857 50.22597668 166.21736145 54.89497375 C166.23698151 59.66803507 166.27894593 64.44089543 166.31898499 69.21382141 C166.39414035 78.56271755 166.4445205 87.91156839 166.47914124 97.26069641 C167.12758499 96.60337021 167.77602875 95.94604401 168.44412231 95.26879883 C174.56847333 89.06417064 180.70249988 82.86930627 186.84748173 76.68510723 C190.00605026 73.50569869 193.16080415 70.32269219 196.30702209 67.13105774 C199.34564298 64.04885196 202.39404166 60.97663191 205.44935417 57.9109745 C206.61101929 56.74194076 207.76916874 55.56940222 208.92364693 54.39327049 C210.54622723 52.74148889 212.18106946 51.10281927 213.81922913 49.46650696 C214.74522415 48.53162949 215.67121918 47.59675201 216.62527466 46.63354492 C220.63545194 43.29928141 225.17163839 40.81728873 230.54164124 40.88569641 C238.99842024 41.69110394 243.55846249 46.90593365 249.22914124 52.69819641 C249.99613342 53.46196594 250.76312561 54.22573547 251.55335999 55.01264954 C256.75918665 60.26879614 259.7570246 63.50232922 259.85414124 71.13569641 C259.88250061 72.14374329 259.91085999 73.15179016 259.94007874 74.19038391 C258.80018958 81.78320491 252.29161299 86.45121738 246.87098694 91.30244446 C245.07340384 92.9341225 243.27718787 94.56730761 241.48214722 96.20178223 C240.53247385 97.06536032 239.58280048 97.92893841 238.60434914 98.81868553 C232.45523915 104.43643254 226.43126993 110.19046674 220.38995075 115.92354107 C215.10856187 120.92760659 209.79036735 125.87589438 204.35975647 130.7179718 C175.53605385 155.39728329 175.53605385 155.39728329 163.39700222 189.8454752 C163.1550847 198.50930893 163.65729115 207.21360021 164.95425224 215.78650093 C165.83007389 222.0651125 165.07795718 225.98527081 161.47914124 231.26069641 C159.54945374 233.50288391 159.54945374 233.50288391 157.60414124 235.13569641 C156.96734436 235.68999329 156.33054749 236.24429016 155.67445374 236.81538391 C151.02060986 239.87930248 146.43997382 240.51135452 140.95828247 240.52139282 C139.66437088 240.52847763 138.37045929 240.53556244 137.03733826 240.54286194 C135.61567653 240.54056844 134.19401513 240.53805878 132.77235413 240.53535461 C131.26560209 240.53970486 129.75885227 240.54488905 128.25210571 240.55084229 C124.16945156 240.56420951 120.08689011 240.56481353 116.00421834 240.56227899 C112.59221385 240.5612078 109.18022801 240.56609639 105.76822752 240.57088441 C97.71717996 240.58197157 89.66617906 240.58242135 81.61512756 240.57637024 C73.31718762 240.57032936 65.0194172 240.58264614 56.72150618 240.60394031 C49.58926441 240.62156823 42.45707653 240.62755582 35.32481378 240.62430257 C31.06850634 240.62249157 26.81231985 240.62510755 22.55603218 240.63901711 C18.55291783 240.65161037 14.55006741 240.64963729 10.54695702 240.63660622 C9.08085159 240.6342442 7.61472751 240.63696171 6.14864349 240.64522934 C-4.09677557 240.69882421 -11.22486866 240.12544399 -18.94273376 232.96382141 C-24.96467805 226.46489144 -24.94395842 219.74245433 -24.66148376 211.26069641 C-24.61507751 210.27069641 -24.56867126 209.28069641 -24.52085876 208.26069641 C-25.17683044 208.27117004 -25.83280212 208.28164368 -26.50865173 208.29243469 C-29.47101534 208.33392144 -32.43331792 208.35999903 -35.39585876 208.38569641 C-36.42839783 208.40245422 -37.46093689 208.41921204 -38.52476501 208.43647766 C-39.51089783 208.44292297 -40.49703064 208.44936829 -41.51304626 208.45600891 C-42.42425232 208.46648254 -43.33545837 208.47695618 -44.27427673 208.48774719 C-46.52085876 208.26069641 -46.52085876 208.26069641 -48.52085876 206.26069641 C-48.7330937 203.3433621 -48.8248204 200.52337222 -48.82164001 197.60444641 C-48.82592514 196.7463739 -48.83021027 195.88830139 -48.83462524 195.00422668 C-48.84037285 193.18852115 -48.84086565 191.37279259 -48.83653259 189.55708313 C-48.83337124 186.77169242 -48.85683054 183.98736204 -48.88218689 181.20210266 C-48.88445962 179.44038526 -48.8851635 177.67866498 -48.88414001 175.91694641 C-48.89334976 175.0804657 -48.90255951 174.24398499 -48.91204834 173.38215637 C-48.89317322 171.03608704 -48.89317322 171.03608704 -48.52085876 167.26069641 C-45.26695888 165.09142982 -44.38689919 165.01989592 -40.63414001 165.06538391 C-39.78891785 165.07037903 -38.94369568 165.07537415 -38.07286072 165.08052063 C-37.00382507 165.09872864 -35.93478943 165.11693665 -34.83335876 165.13569641 C-29.72867126 165.19757141 -29.72867126 165.19757141 -24.52085876 165.26069641 C-24.52085876 157.67069641 -24.52085876 150.08069641 -24.52085876 142.26069641 C-31.29722334 142.37919862 -31.29722334 142.37919862 -38.07286072 142.53096008 C-38.91808289 142.53845276 -39.76330505 142.54594543 -40.63414001 142.55366516 C-41.49821472 142.56937561 -42.36228943 142.58508606 -43.25254822 142.60127258 C-46.06244664 142.17937954 -46.76041585 141.44460315 -48.52085876 139.26069641 C-48.81921343 136.35445924 -48.94118504 133.66700338 -48.91929626 130.76069641 C-48.92216644 129.92860657 -48.92503662 129.09651672 -48.92799377 128.23921204 C-48.93003439 126.48074157 -48.92450469 124.7222484 -48.91197205 122.96382141 C-48.89591778 120.27059728 -48.91182022 117.57887381 -48.93101501 114.88569641 C-48.92903258 113.17735976 -48.9251889 111.46902405 -48.91929626 109.76069641 C-48.92536896 108.95438782 -48.93144165 108.14807922 -48.93769836 107.31733704 C-48.86682689 101.68988506 -48.86682689 101.68988506 -47.1383667 99.5456543 C-44.91213543 97.77712299 -43.45099795 97.91651206 -40.63414001 97.96772766 C-39.78891785 97.97522034 -38.94369568 97.98271301 -38.07286072 97.99043274 C-37.00382507 98.01774475 -35.93478943 98.04505676 -34.83335876 98.07319641 C-31.43023376 98.13507141 -28.02710876 98.19694641 -24.52085876 98.26069641 C-24.52085876 90.67069641 -24.52085876 83.08069641 -24.52085876 75.26069641 C-31.29702139 75.33969465 -31.29702139 75.33969465 -38.07286072 75.44087219 C-39.34069397 75.44836487 -39.34069397 75.44836487 -40.63414001 75.45600891 C-41.49821472 75.46648254 -42.36228943 75.47695618 -43.25254822 75.48774719 C-45.52085876 75.26069641 -45.52085876 75.26069641 -48.52085876 73.26069641 C-48.81237898 70.30458582 -48.91669515 67.56128596 -48.88414001 64.60444641 C-48.88463852 63.7463739 -48.88513702 62.88830139 -48.88565063 62.00422668 C-48.88330821 60.18848863 -48.87356979 58.37274745 -48.85704041 56.55708313 C-48.83345276 53.77179546 -48.83647733 50.98746475 -48.84312439 48.20210266 C-48.83754766 46.44037818 -48.83043782 44.67865775 -48.82164001 42.91694641 C-48.82255142 42.0804657 -48.82346283 41.24398499 -48.82440186 40.38215637 C-48.75187855 34.4917162 -48.75187855 34.4917162 -46.52085876 32.26069641 C-44.27427673 32.03364563 -44.27427673 32.03364563 -41.51304626 32.06538391 C-40.52691345 32.07182922 -39.54078064 32.07827454 -38.52476501 32.08491516 C-36.97595642 32.11005188 -36.97595642 32.11005188 -35.39585876 32.13569641 C-34.35558533 32.14471985 -33.31531189 32.15374329 -32.24351501 32.16304016 C-29.66906784 32.18665894 -27.09507664 32.21959492 -24.52085876 32.26069641 C-24.56726501 31.27069641 -24.61367126 30.28069641 -24.66148376 29.26069641 C-25.14117764 14.91348877 -25.14117764 14.91348877 -20.52085876 9.26069641 C-14.4447025 2.7708444 -9.02727252 0.01653111 0 0 Z M-11.39585876 16.26069641 C-13.45507689 19.92152864 -13.63183262 22.82791898 -13.58335876 26.94819641 C-13.57433533 27.9420636 -13.56531189 28.93593079 -13.55601501 29.95991516 C-13.54441345 30.71917297 -13.53281189 31.47843079 -13.52085876 32.26069641 C-12.72421814 32.35866516 -11.92757751 32.45663391 -11.10679626 32.55757141 C0.28059195 34.16455077 0.28059195 34.16455077 4.47914124 38.26069641 C9.10358584 44.88290108 10.73802117 51.26381152 9.47914124 59.26069641 C7.56555155 66.14248788 3.5103131 69.69296094 -2.52085876 73.26069641 C-6.15085876 73.92069641 -9.78085876 74.58069641 -13.52085876 75.26069641 C-13.52085876 82.85069641 -13.52085876 90.44069641 -13.52085876 98.26069641 C-11.66460876 98.67319641 -9.80835876 99.08569641 -7.89585876 99.51069641 C-1.44385845 101.14267296 2.69912546 102.90337822 6.79164124 108.32319641 C10.13177311 114.13750004 10.07818418 119.69618419 9.47914124 126.26069641 C7.89895753 131.59381643 5.2617514 135.3259129 0.47914124 138.26069641 C-4.22329004 140.42206234 -8.34621329 141.3982555 -13.52085876 142.26069641 C-13.52085876 149.85069641 -13.52085876 157.44069641 -13.52085876 165.26069641 C-9.89085876 165.92069641 -6.26085876 166.58069641 -2.52085876 167.26069641 C3.5103131 170.82843188 7.56555155 174.37890494 9.47914124 181.26069641 C10.73802117 189.2575813 9.10358584 195.63849174 4.47914124 202.26069641 C-0.50104705 207.11941669 -6.87097413 207.44291125 -13.52085876 208.26069641 C-14.05513527 217.21877288 -14.05513527 217.21877288 -10.52085876 225.26069641 C-6.28245629 229.22565356 -2.17786204 229.38523705 3.4490509 229.40786743 C5.28265671 229.41860039 5.28265671 229.41860039 7.15330505 229.42955017 C8.50508092 229.43239022 9.85685706 229.43510197 11.20863342 229.43769836 C12.63465031 229.44396606 14.06066558 229.45061313 15.48667908 229.45761108 C20.16644664 229.47861696 24.84621439 229.48901 29.52601624 229.49897766 C31.13924934 229.50302647 32.75248227 229.50714343 34.36571503 229.51132774 C41.94546975 229.53037154 49.52521478 229.54460445 57.10498881 229.55293971 C65.84494131 229.56271041 74.58464043 229.58902883 83.32450366 229.62944061 C90.08643898 229.6596304 96.84830177 229.67441128 103.61030316 229.67772073 C107.64596895 229.68006788 111.6813638 229.68898448 115.71695709 229.7141819 C119.51571728 229.73751814 123.31402918 229.74167385 127.11284256 229.73142052 C128.50275034 229.73092639 129.8926806 229.73721037 131.28252029 229.75097656 C139.09091745 229.82395631 144.87009139 229.63625824 151.47914124 225.26069641 C154.86238556 220.61493551 154.88513088 216.32157403 154.77210999 210.79975891 C154.76786514 210.00919098 154.7636203 209.21862305 154.75924683 208.40409851 C154.74255424 205.89760701 154.70492106 203.39194181 154.66664124 200.88569641 C154.65158216 199.17867684 154.63789589 197.47164456 154.62562561 195.76460266 C154.5926818 191.59631917 154.54096616 187.42864752 154.47914124 183.26069641 C149.31953306 184.93274219 144.16003119 186.60511543 139.00062561 188.27778625 C137.24707375 188.84623471 135.49349338 189.41459518 133.73988342 189.98286438 C131.21278926 190.80180352 128.68579936 191.62106367 126.15882874 192.44038391 C125.38046661 192.69254669 124.60210449 192.94470947 123.80015564 193.20451355 C123.059841 193.44461151 122.31952637 193.68470947 121.55677795 193.93208313 C120.85711914 194.15797119 120.15746033 194.38385925 119.43659973 194.61659241 C117.67567707 195.19602607 115.92636118 195.81045269 114.17884827 196.42915344 C110.86445644 197.45002689 107.92602795 197.39857188 104.47914124 197.26069641 C104.14294414 190.7773616 105.25094092 185.70335824 107.29554749 179.57319641 C107.73676186 178.22028503 107.73676186 178.22028503 108.18688965 176.84004211 C108.8104619 174.9420948 109.44030232 173.04619662 110.07606506 171.15229797 C111.03645518 168.27622704 111.96272655 165.39062351 112.88734436 162.50288391 C113.5005281 160.65064129 114.11569854 158.79905494 114.73304749 156.94819641 C115.0031514 156.0958844 115.27325531 155.24357239 115.55154419 154.36543274 C118.49105335 145.80789985 123.53084659 140.72611169 130.54186058 135.23894691 C142.69092534 125.66887926 154.83263472 115.80621254 156.90931702 99.66792297 C157.92446743 88.9351321 157.35607862 78.15802996 156.7035675 67.42042542 C156.48530266 63.32983127 156.39504671 59.24076233 156.31021976 55.14554024 C156.13393653 46.6814826 155.87814694 38.21744165 155.39344788 29.76509094 C155.36226868 29.00360245 155.33108948 28.24211395 155.29896545 27.45755005 C154.94385892 22.09014208 153.55609885 18.69867126 150.47914124 14.26069641 C146.47380531 11.82608045 143.33622505 11.12268502 138.74085999 11.19429016 C137.53949402 11.20867126 137.53949402 11.20867126 136.31385803 11.2233429 C135.70840149 11.23566956 135.10294495 11.24799622 134.47914124 11.26069641 C134.47327499 12.09341568 134.46740875 12.92613495 134.46136475 13.78408813 C134.40349015 21.62704876 134.33144389 29.46972301 134.24342632 37.31240559 C134.19867536 41.3445467 134.15942995 45.37658568 134.13270569 49.40888977 C134.10671941 53.29942804 134.066351 57.18957424 134.01595497 61.07987022 C133.99925442 62.56499039 133.98776001 64.05017842 133.98152733 65.53537941 C133.97192033 67.61391546 133.94390502 69.69144126 133.91151428 71.76972961 C133.8948597 73.54510857 133.8948597 73.54510857 133.87786865 75.35635376 C133.47914124 78.26069641 133.47914124 78.26069641 132.13793945 80.1650238 C130.47914124 81.26069641 130.47914124 81.26069641 127.5059967 81.28242493 C123.56590084 79.95242806 122.92603017 78.57044933 121.04945374 74.91304016 C120.48226624 73.83345032 119.91507874 72.75386047 119.33070374 71.64155579 C118.76093811 70.50524719 118.19117249 69.3689386 117.60414124 68.19819641 C117.01117249 67.05802063 116.41820374 65.91784485 115.80726624 64.74311829 C114.34511939 61.92494816 112.90366222 59.09802045 111.47914124 56.26069641 C110.81914124 56.26069641 110.15914124 56.26069641 109.47914124 56.26069641 C109.12609924 56.94696106 108.77305725 57.63322571 108.40931702 58.34028625 C106.81151206 61.44079499 105.20790543 64.53826625 103.60414124 67.63569641 C103.0485553 68.71593079 102.49296936 69.79616516 101.92054749 70.90913391 C101.11810608 72.45600891 101.11810608 72.45600891 100.29945374 74.03413391 C99.80719299 74.9872345 99.31493225 75.94033508 98.80775452 76.9223175 C97.47914124 79.26069641 97.47914124 79.26069641 95.47914124 81.26069641 C93.16914124 81.26069641 90.85914124 81.26069641 88.47914124 81.26069641 C88.14914124 58.16069641 87.81914124 35.06069641 87.47914124 11.26069641 C71.65396193 11.1734075 71.65396193 11.1734075 55.82875061 11.11421204 C49.37221358 11.09629363 42.91580446 11.07511847 36.45936584 11.03437805 C31.25278384 11.00173069 26.04633904 10.98383197 20.83966255 10.97606468 C18.8553813 10.97053085 16.87110738 10.9597246 14.88688469 10.94350624 C12.10293857 10.92166062 9.31955606 10.91873248 6.53553772 10.92012024 C5.71913818 10.90933441 4.90273865 10.89854858 4.06159973 10.88743591 C-1.87119801 10.91933959 -7.14325497 11.7245857 -11.39585876 16.26069641 Z M98.47914124 11.26069641 C98.47914124 25.12069641 98.47914124 38.98069641 98.47914124 53.26069641 C100.92372624 50.00124974 102.20074274 47.71659706 103.72914124 44.07319641 C105.00648499 41.41304016 105.00648499 41.41304016 106.47914124 39.26069641 C110.29164124 38.13569641 110.29164124 38.13569641 113.47914124 38.26069641 C113.87746155 38.93616516 114.27578186 39.61163391 114.68617249 40.30757141 C115.21597717 41.19960266 115.74578186 42.09163391 116.29164124 43.01069641 C116.81371155 43.89241516 117.33578186 44.77413391 117.87367249 45.68257141 C119.61593569 48.56313042 119.61593569 48.56313042 122.47914124 52.26069641 C122.47914124 38.73069641 122.47914124 25.20069641 122.47914124 11.26069641 C114.55914124 11.26069641 106.63914124 11.26069641 98.47914124 11.26069641 Z M-37.52085876 43.26069641 C-37.52085876 50.19069641 -37.52085876 57.12069641 -37.52085876 64.26069641 C-33.33318426 64.3148085 -29.14621425 64.35442709 -24.95835876 64.38569641 C-23.18622009 64.41083313 -23.18622009 64.41083313 -21.37828064 64.43647766 C-11.30730528 64.83957494 -11.30730528 64.83957494 -2.64585876 60.51069641 C-1.20354628 57.62607145 -0.65032329 55.49730957 -0.52085876 52.26069641 C-2.08333514 48.06668087 -3.6424992 45.50376533 -7.52085876 43.26069641 C-10.81198564 42.84738462 -10.81198564 42.84738462 -14.47398376 42.96772766 C-15.13420532 42.9719725 -15.79442688 42.97621735 -16.47465515 42.98059082 C-18.57381267 42.99732206 -20.67199373 43.0349609 -22.77085876 43.07319641 C-24.19792819 43.08825057 -25.62501273 43.1019377 -27.05210876 43.11421204 C-30.54236669 43.14465033 -34.03052583 43.20337343 -37.52085876 43.26069641 Z M222.04164124 58.19819641 C221.1766803 59.13534485 220.31171936 60.07249329 219.42054749 61.03804016 C218.77988342 61.77151672 218.13921936 62.50499329 217.47914124 63.26069641 C218.93659548 66.62405235 220.79031977 68.80603646 223.39320374 71.37007141 C224.53402405 72.50122375 224.53402405 72.50122375 225.69789124 73.65522766 C226.49195374 74.43253235 227.28601624 75.20983704 228.10414124 76.01069641 C228.90593811 76.80346985 229.70773499 77.59624329 230.53382874 78.41304016 C232.51116969 80.36684135 234.49303032 82.31581744 236.47914124 84.26069641 C236.94964905 83.85657532 237.42015686 83.45245422 237.90492249 83.03608704 C238.52753967 82.50177063 239.15015686 81.96745422 239.79164124 81.41694641 C240.40652405 80.88907532 241.02140686 80.36120422 241.65492249 79.81733704 C243.25316879 78.453523 244.86507561 77.1057511 246.47914124 75.76069641 C248.76190072 73.43893015 248.76190072 73.43893015 248.48695374 70.53022766 C247.10890436 66.0595791 244.65478193 63.6644874 241.35414124 60.44819641 C240.79726624 59.86360657 240.24039124 59.27901672 239.66664124 58.67671204 C236.78846821 55.81511835 234.80247734 54.36835783 230.88929749 53.06538391 C226.31839257 53.32717686 225.06455277 54.8440069 222.04164124 58.19819641 Z M207.17225647 73.45405579 C206.63286438 73.99868469 206.09347229 74.5433136 205.53773499 75.10444641 C204.9544342 75.69096985 204.37113342 76.27749329 203.77015686 76.88179016 C202.85266663 77.81184875 202.85266663 77.81184875 201.91664124 78.76069641 C200.99335022 79.690755 200.99335022 79.690755 200.05140686 80.63960266 C198.52508608 82.17775539 197.00182973 83.71894784 195.47914124 85.26069641 C196.93659548 88.62405235 198.79031977 90.80603646 201.39320374 93.37007141 C202.53402405 94.50122375 202.53402405 94.50122375 203.69789124 95.65522766 C204.49195374 96.43253235 205.28601624 97.20983704 206.10414124 98.01069641 C206.90593811 98.80346985 207.70773499 99.59624329 208.53382874 100.41304016 C210.51116969 102.36684135 212.49303032 104.31581744 214.47914124 106.26069641 C218.24495184 103.0803852 221.96353112 99.90927816 225.41664124 96.38569641 C226.00316467 95.79014954 226.58968811 95.19460266 227.19398499 94.58100891 C227.61808655 94.14530579 228.04218811 93.70960266 228.47914124 93.26069641 C227.02419013 89.91285533 225.18108633 87.71692268 222.60023499 85.15132141 C221.46618225 84.02016907 221.46618225 84.02016907 220.30921936 82.86616516 C219.51966858 82.08886047 218.7301178 81.31155579 217.91664124 80.51069641 C216.72651428 79.32153625 216.72651428 79.32153625 215.51234436 78.10835266 C211.76769557 73.1807973 211.76769557 73.1807973 207.17225647 73.45405579 Z M185.47914124 95.26069641 C175.24914124 105.49069641 165.01914124 115.72069641 154.47914124 126.26069641 C156.1458079 130.59402974 156.1458079 130.59402974 160.47914124 132.26069641 C170.70914124 122.03069641 180.93914124 111.80069641 191.47914124 101.26069641 C189.81247457 96.92736308 189.81247457 96.92736308 185.47914124 95.26069641 Z M198.14404297 109.47554016 C197.57778702 110.04401672 197.01153107 110.61249329 196.42811584 111.19819641 C195.78752731 111.83886047 195.14693878 112.47952454 194.48693848 113.13960266 C193.79213882 113.8395636 193.09733917 114.53952454 192.38148499 115.26069641 C191.31819725 116.32610657 191.31819725 116.32610657 190.23342896 117.41304016 C187.95882102 119.69326789 185.68770527 121.97693952 183.41664124 124.26069641 C181.87975979 125.8025903 180.34265342 127.34426003 178.80531311 128.88569641 C175.02730272 132.67476206 171.25242181 136.46692087 167.47914124 140.26069641 C169.45914124 142.57069641 171.43914124 144.88069641 173.47914124 147.26069641 C178.14021587 143.3417984 182.56648178 139.31252567 186.85023499 134.98725891 C187.41742752 134.41865143 187.98462006 133.85004395 188.56900024 133.26420593 C190.35394036 131.47373405 192.1353438 129.67979157 193.91664124 127.88569641 C195.13711063 126.66020318 196.35781177 125.43494069 197.57875061 124.20991516 C200.5482288 121.22949867 203.5145438 118.24596747 206.47914124 115.26069641 C205.50348012 114.09109654 204.52351623 112.92508464 203.54164124 111.76069641 C202.9963678 111.11100891 202.45109436 110.46132141 201.88929749 109.79194641 C201.42394592 109.28663391 200.95859436 108.78132141 200.47914124 108.26069641 C199.30156565 108.14852777 199.30156565 108.14852777 198.14404297 109.47554016 Z M-37.52085876 110.26069641 C-37.52085876 116.86069641 -37.52085876 123.46069641 -37.52085876 130.26069641 C-33.32136456 130.30667627 -29.12274812 130.34647973 -24.92320251 130.37055969 C-23.49543799 130.38060069 -22.06769394 130.39423622 -20.63999939 130.41157532 C-18.58460935 130.43590793 -16.52949185 130.44719843 -14.47398376 130.45600891 C-12.62015076 130.47171936 -12.62015076 130.47171936 -10.72886658 130.48774719 C-7.65533147 130.27021389 -6.01297203 130.01877167 -3.52085876 128.26069641 C-1.15641271 124.24113812 -0.37236489 122.15165965 -1.14585876 117.51069641 C-2.73629122 113.75149242 -3.91842195 112.06191482 -7.52085876 110.26069641 C-9.77206619 110.17496247 -12.02585179 110.15357453 -14.27867126 110.16304016 C-14.94172272 110.16445511 -15.60477417 110.16587006 -16.28791809 110.16732788 C-18.40727739 110.17292887 -20.52653135 110.18548141 -22.64585876 110.19819641 C-24.08205516 110.20321129 -25.5182532 110.20777422 -26.95445251 110.21186829 C-30.47666125 110.22204808 -33.99864197 110.24162304 -37.52085876 110.26069641 Z M143.05873108 137.45405579 C142.25749817 138.27099915 142.25749817 138.27099915 141.44007874 139.10444641 C140.86000061 139.69096985 140.27992249 140.27749329 139.68226624 140.88179016 C139.07898499 141.50182922 138.47570374 142.12186829 137.85414124 142.76069641 C137.24312561 143.38073547 136.63210999 144.00077454 136.00257874 144.63960266 C134.49026404 146.17554727 132.98412009 147.71756316 131.47914124 149.26069641 C137.30543028 156.41870866 143.91743973 162.78661407 150.47914124 169.26069641 C154.55290155 167.65059115 157.24421192 164.72247371 160.22914124 161.63569641 C160.7357428 161.12007141 161.24234436 160.60444641 161.76429749 160.07319641 C163.00718025 158.80686303 164.243794 157.53438201 165.47914124 156.26069641 C161.48517604 151.35382488 157.17504593 146.81799078 152.72914124 142.32319641 C152.15011047 141.73127502 151.57107971 141.13935364 150.97450256 140.52949524 C149.51503195 139.06660516 148.00101629 137.65855126 146.47914124 136.26069641 C144.42516146 136.04627642 144.42516146 136.04627642 143.05873108 137.45405579 Z M125.47914124 160.26069641 C124.27678886 163.52626228 123.09486532 166.79885557 121.91664124 170.07319641 C121.57439514 171.00196594 121.23214905 171.93073547 120.87953186 172.88764954 C120.56048889 173.78032532 120.24144592 174.6730011 119.91273499 175.59272766 C119.61423645 176.41490784 119.31573792 177.23708801 119.00819397 178.08418274 C118.23660252 180.41867241 118.23660252 180.41867241 119.47914124 183.26069641 C129.87414124 179.79569641 129.87414124 179.79569641 140.47914124 176.26069641 C138.88769854 173.07781102 138.06496477 171.59600146 135.69398499 169.24507141 C134.89831116 168.45229797 134.89831116 168.45229797 134.08656311 167.64350891 C133.53548889 167.10468079 132.98441467 166.56585266 132.41664124 166.01069641 C131.58422913 165.1792511 131.58422913 165.1792511 130.73500061 164.33100891 C128.47442827 161.54325323 128.47442827 161.54325323 125.47914124 160.26069641 Z M-37.52085876 176.26069641 C-37.52085876 183.19069641 -37.52085876 190.12069641 -37.52085876 197.26069641 C-33.33883801 197.3527776 -29.16036288 197.43232374 -24.97813416 197.48042297 C-23.55711419 197.50048063 -22.13617618 197.52773419 -20.71543884 197.56245422 C-18.66729982 197.61123652 -16.62025602 197.63372181 -14.57164001 197.65132141 C-12.72566223 197.68274231 -12.72566223 197.68274231 -10.84239197 197.71479797 C-6.88591266 197.17389011 -5.30024247 196.07821431 -2.52085876 193.26069641 C-0.55947571 188.92930884 -0.28398534 187.02118478 -1.70835876 182.44819641 C-3.30940584 179.07731246 -3.30940584 179.07731246 -6.52085876 177.26069641 C-10.27569631 176.25098885 -13.82085158 176.14394761 -17.69664001 176.16304016 C-19.43204041 176.16787415 -19.43204041 176.16787415 -21.20249939 176.17280579 C-22.40068298 176.18118469 -23.59886658 176.1895636 -24.83335876 176.19819641 C-26.65963806 176.20496399 -26.65963806 176.20496399 -28.52281189 176.21186829 C-31.52218195 176.22363052 -34.52152666 176.24156531 -37.52085876 176.26069641 Z " fill="#0E0E0E" transform="translate(74.52085876464844,59.73930358886719)"/>
<path d="M0 0 C3.5 -0.3125 3.5 -0.3125 7 0 C9 2 9 2 9.1953125 3.9453125 C9.13020833 5.96354167 9.06510417 7.98177083 9 10 C9.721875 10.20625 10.44375 10.4125 11.1875 10.625 C14.77007712 12.37648215 17.04462032 14.57056487 19 18 C20.16539082 21.69514162 20.54479971 24.81960062 18.875 28.4375 C16.60838706 30.32634412 14.90365755 30.68609108 12 31 C12.763125 31.66 13.52625 32.32 14.3125 33 C18.13745504 36.90145414 20.02302133 41.02103967 19.98046875 46.52734375 C19.17817611 52.39025153 17.3328672 55.4523349 12.65625 59.0390625 C11 60 11 60 9 60 C9.04125 61.27875 9.0825 62.5575 9.125 63.875 C9.1953125 66.0546875 9.1953125 66.0546875 9 68 C7 70 7 70 3.5 70.3125 C2.345 70.209375 1.19 70.10625 0 70 C-2.4294516 66.3558226 -2.16179575 64.28758728 -2 60 C-2.7425 59.773125 -3.485 59.54625 -4.25 59.3125 C-8.09146563 57.47907322 -10.11488412 54.77023176 -12 51 C-12.12005453 49.50350638 -12.17531451 48.00125207 -12.1875 46.5 C-12.20167969 45.7059375 -12.21585937 44.911875 -12.23046875 44.09375 C-12 42 -12 42 -10 40 C-7.375 39.375 -7.375 39.375 -5 39 C-5.42152344 38.51789063 -5.84304687 38.03578125 -6.27734375 37.5390625 C-6.82519531 36.90742188 -7.37304688 36.27578125 -7.9375 35.625 C-8.48277344 34.99851563 -9.02804688 34.37203125 -9.58984375 33.7265625 C-12.6519482 29.97739307 -12.32811456 26.45421787 -12.28515625 21.765625 C-11.78491524 16.91397249 -9.41719079 14.25046246 -5.875 11.125 C-4 10 -4 10 -2 10 C-2.04125 8.906875 -2.0825 7.81375 -2.125 6.6875 C-2 3 -2 3 0 0 Z M0 21 C-0.67801034 23.90073181 -0.67801034 23.90073181 -1 27 C1.39763185 29.39763185 2.33273498 29.34280586 5.625 29.625 C6.44226563 29.69976562 7.25953125 29.77453125 8.1015625 29.8515625 C8.72804688 29.90054688 9.35453125 29.94953125 10 30 C9.60404157 28.51515588 9.18249294 27.0371169 8.75 25.5625 C8.51796875 24.73878906 8.2859375 23.91507813 8.046875 23.06640625 C7.1950306 20.84350657 7.1950306 20.84350657 5.078125 20.15234375 C2.80382638 19.85164584 2.80382638 19.85164584 0 21 Z M-3 40 C-2.01 42.97 -1.02 45.94 0 49 C2.35367713 49.6878236 2.35367713 49.6878236 5 50 C5.99 49.34 6.98 48.68 8 48 C8.41666667 45.5 8.41666667 45.5 8 43 C5.60236815 40.60236815 4.66726502 40.65719414 1.375 40.375 C-0.06875 40.25125 -1.5125 40.1275 -3 40 Z " fill="#171717" transform="translate(113,207)"/>
<path d="M0 0 C0.85803223 -0.00563965 1.71606445 -0.0112793 2.60009766 -0.01708984 C3.53837402 -0.01304138 4.47665039 -0.00899292 5.44335938 -0.00482178 C6.43384277 -0.00832642 7.42432617 -0.01183105 8.44482422 -0.01544189 C11.7256568 -0.02425929 15.00627452 -0.01840996 18.28710938 -0.01165771 C20.56250042 -0.01300436 22.83789119 -0.01494489 25.11328125 -0.01745605 C29.88479346 -0.02040733 34.65623085 -0.01610951 39.42773438 -0.0067749 C45.55145218 0.00461958 51.67499468 -0.00193987 57.79870605 -0.01391983 C62.49806037 -0.02113829 67.19737296 -0.01885055 71.89672852 -0.01366425 C74.15502951 -0.01232771 76.41333426 -0.01397558 78.67163086 -0.01862335 C81.82480949 -0.0236883 84.9777021 -0.01597863 88.13085938 -0.00482178 C89.06913574 -0.00887024 90.00741211 -0.0129187 90.97412109 -0.01708984 C92.26116943 -0.00863037 92.26116943 -0.00863037 93.57421875 0 C94.31973999 0.00075405 95.06526123 0.0015081 95.83337402 0.002285 C97.78710938 0.25396729 97.78710938 0.25396729 100.78710938 2.25396729 C101.7657909 5.11472867 102.00846049 6.64099497 100.97460938 9.50396729 C99.78710938 11.25396729 99.78710938 11.25396729 97.78710938 12.25396729 C96.42552654 12.34963979 95.05940977 12.38461563 93.69447327 12.38768005 C92.8378157 12.39194504 91.98115814 12.39621002 91.09854126 12.40060425 C90.15666962 12.40015106 89.21479797 12.39969788 88.24438477 12.39923096 C86.75887871 12.40426888 86.75887871 12.40426888 85.24336243 12.40940857 C81.95715087 12.41893732 78.67099015 12.42086261 75.38476562 12.42193604 C73.10794554 12.42514714 70.83112567 12.4285111 68.55430603 12.43202209 C63.77684043 12.43801809 58.99939293 12.4398615 54.22192383 12.43927002 C48.09034315 12.43916834 41.95887812 12.45282449 35.82732487 12.47004223 C31.12368737 12.4811425 26.42007801 12.48318984 21.71642876 12.48266029 C19.45533283 12.48384324 17.19423624 12.48828253 14.93315315 12.49599266 C11.77509506 12.50575327 8.6172904 12.5029301 5.45922852 12.49688721 C4.5193811 12.50250671 3.57953369 12.50812622 2.61120605 12.51391602 C1.32198997 12.50762428 1.32198997 12.50762428 0.00672913 12.50120544 C-0.74009093 12.50175021 -1.48691099 12.50229498 -2.25636196 12.50285625 C-4.21289062 12.25396729 -4.21289062 12.25396729 -7.21289062 10.25396729 C-7.61132812 8.37896729 -7.61132812 8.37896729 -7.58789062 6.25396729 C-7.595625 5.55271729 -7.60335937 4.85146729 -7.61132812 4.12896729 C-6.76411781 0.14209522 -3.43457517 0.00347387 0 0 Z " fill="#121212" transform="translate(110.212890625,152.74603271484375)"/>
<path d="M0 0 C7.78843397 -0.06943556 15.57679577 -0.12277821 23.36546135 -0.15543652 C26.9818704 -0.17110901 30.59806808 -0.19237553 34.21435547 -0.22631836 C37.70269988 -0.25885631 41.19084068 -0.27684108 44.6793251 -0.28463173 C46.66143769 -0.29289269 48.64346809 -0.31632087 50.62545776 -0.33988953 C51.82655182 -0.34011612 53.02764587 -0.34034271 54.26513672 -0.34057617 C55.32658905 -0.34723801 56.38804138 -0.35389984 57.48165894 -0.36076355 C58.31271149 -0.24171158 59.14376404 -0.12265961 60 0 C62 3 62 3 61.75 6.0625 C61 9 61 9 59 11 C56.57104492 11.25396729 56.57104492 11.25396729 53.48046875 11.25878906 C51.748573 11.26824554 51.748573 11.26824554 49.98168945 11.27789307 C48.72960693 11.2738446 47.47752441 11.26979614 46.1875 11.265625 C44.90770264 11.26753845 43.62790527 11.2694519 42.30932617 11.27142334 C39.59907207 11.27437382 36.88894973 11.27007955 34.17871094 11.26074219 C30.70150769 11.24934753 27.22461318 11.25590743 23.74742126 11.26788712 C20.43575596 11.27684425 17.12417409 11.27057635 13.8125 11.265625 C11.93437622 11.27169769 11.93437622 11.27169769 10.01831055 11.27789307 C8.86371338 11.27158875 7.70911621 11.26528442 6.51953125 11.25878906 C5.49964111 11.25719788 4.47975098 11.25560669 3.42895508 11.25396729 C1 11 1 11 -1 9 C-1.33870968 2.67741935 -1.33870968 2.67741935 0 0 Z " fill="#040404" transform="translate(104,179)"/>
<path d="M0 0 C8.91 0 17.82 0 27 0 C27 15.18 27 30.36 27 46 C26.34 46 25.68 46 25 46 C24.18613468 43.16592863 23.89651232 40.72555644 23.97827148 37.78222656 C24.00841591 36.5514035 24.00841591 36.5514035 24.03916931 35.29571533 C24.06620438 34.41953552 24.09323944 33.54335571 24.12109375 32.640625 C24.14470474 31.73624695 24.16831573 30.8318689 24.19264221 29.90008545 C24.26910719 27.01655712 24.35320536 24.13330903 24.4375 21.25 C24.49073787 19.29298238 24.54347815 17.33595116 24.59570312 15.37890625 C24.72376565 10.58570876 24.86214921 5.79296597 25 1 C16.75 1 8.5 1 0 1 C0 0.67 0 0.34 0 0 Z " fill="#484848" transform="translate(172,70)"/>
<path d="M0 0 C2.97 0 5.94 0 9 0 C9 0.33 9 0.66 9 1 C6.36 1 3.72 1 1 1 C1.00888245 1.83049866 1.01776489 2.66099731 1.0269165 3.5166626 C1.1070735 11.34434799 1.16796991 19.1718955 1.20724869 26.999897 C1.22812133 31.02436077 1.25643235 35.04848535 1.30175781 39.07275391 C1.3452282 42.95663536 1.36913954 46.84019062 1.37950897 50.72429657 C1.38689831 52.20590093 1.40132818 53.68748749 1.42292023 55.16895294 C1.45197212 57.24486321 1.45595556 59.31942687 1.45410156 61.39550781 C1.46298401 62.57687317 1.47186646 63.75823853 1.48101807 64.97540283 C0.89990273 68.62940238 -0.03424448 69.84224547 -3 72 C-6.1875 71.875 -6.1875 71.875 -9 71 C-9.33 70.34 -9.66 69.68 -10 69 C-7.03 69 -4.06 69 -1 69 C-0.67 46.23 -0.34 23.46 0 0 Z " fill="#5C5C5C" transform="translate(208,70)"/>
<path d="M0 0 C0.66 0 1.32 0 2 0 C1.45276317 3.37462715 0.9451 5.08235 -1 8 C-1.66 8 -2.32 8 -3 8 C-3.2475 8.5775 -3.495 9.155 -3.75 9.75 C-6.16909489 14.10437081 -9.60767821 16.74752729 -14 19 C-14.99 19 -15.98 19 -17 19 C-16.48501953 18.49549316 -15.97003906 17.99098633 -15.43945312 17.47119141 C-13.12114016 15.19431436 -10.81050842 12.90979529 -8.5 10.625 C-7.68917969 9.8309375 -6.87835938 9.036875 -6.04296875 8.21875 C-5.27597656 7.45820313 -4.50898438 6.69765625 -3.71875 5.9140625 C-3.00654297 5.2123291 -2.29433594 4.5105957 -1.56054688 3.78759766 C0.21921489 2.14437944 0.21921489 2.14437944 0 0 Z " fill="#727272" transform="translate(280,173)"/>
<path d="M0 0 C0 6.0927702 -5.23079085 10.49233039 -9.21875 14.6796875 C-11 16 -11 16 -15 16 C-15.33 14.68 -15.66 13.36 -16 12 C-15.01 12.33 -14.02 12.66 -13 13 C-8.71 8.71 -4.42 4.42 0 0 Z " fill="#6D6D6D" transform="translate(262,193)"/>
<path d="M0 0 C0.66 0.99 1.32 1.98 2 3 C0.71451591 4.33929505 -0.57858155 5.67128643 -1.875 7 C-2.59429687 7.7425 -3.31359375 8.485 -4.0546875 9.25 C-6 11 -6 11 -8 11 C-6.52670958 5.99081256 -3.72484762 3.48192278 0 0 Z " fill="#5F5F5F" transform="translate(200,198)"/>
<path d="M0 0 C0.8125 1.6875 0.8125 1.6875 1 4 C-2.17423736 8.03993846 -5.05770013 9.73569073 -10 11 C-6.79239749 7.19364503 -3.59253891 3.45436433 0 0 Z " fill="#777777" transform="translate(236,219)"/>
<path d="M0 0 C0.33 0 0.66 0 1 0 C1.50146657 7.57771707 0.94998798 12.45783241 -3 19 C-3.93423645 15.98968256 -4.04449911 15.13349732 -3 12 C-2.34 12 -1.68 12 -1 12 C-0.67 8.04 -0.34 4.08 0 0 Z " fill="#565656" transform="translate(84,108)"/>
<path d="M0 0 C2.97 0.495 2.97 0.495 6 1 C5.67 1.99 5.34 2.98 5 4 C3.68 4 2.36 4 1 4 C-1.22743787 5.41977909 -1.22743787 5.41977909 -3 7 C-3.33 6.01 -3.66 5.02 -4 4 C-3.01 4 -2.02 4 -1 4 C-0.67 2.68 -0.34 1.36 0 0 Z " fill="#494949" transform="translate(258,153)"/>
<path d="M0 0 C-3.6441774 2.4294516 -5.71241272 2.16179575 -10 2 C-10 2.66 -10 3.32 -10 4 C-11.65 4 -13.3 4 -15 4 C-10.77951468 -0.85355812 -6.02568966 -0.10042816 0 0 Z " fill="#4A4A4A" transform="translate(76,60)"/>
<path d="M0 0 C1.65 0 3.3 0 5 0 C4.38125 0.7425 3.7625 1.485 3.125 2.25 C1.39562719 4.48801188 0.13893339 6.43739987 -1 9 C-1.125 2.25 -1.125 2.25 0 0 Z " fill="#383838" transform="translate(104,179)"/>
<path d="M0 0 C0.66 0 1.32 0 2 0 C1.45276317 3.37462715 0.9451 5.08235 -1 8 C-2.32 7.67 -3.64 7.34 -5 7 C-4.175 6.030625 -3.35 5.06125 -2.5 4.0625 C0.10539608 1.52977999 0.10539608 1.52977999 0 0 Z " fill="#7F7F7F" transform="translate(280,173)"/>
<path d="M0 0 C3 1 3 1 3.875 2.625 C4.06657088 6.26484677 2.56996079 8.73448156 1 12 C0 10 0 10 0.5 7.6875 C1.04064844 4.78151461 0.72966066 2.83756923 0 0 Z " fill="#5D5D5D" transform="translate(72,241)"/>
<path d="M0 0 C-0.25 1.875 -0.25 1.875 -1 4 C-3.0625 5.25 -3.0625 5.25 -5 6 C-4.625 3.5625 -4.625 3.5625 -4 1 C-2 0 -2 0 0 0 Z " fill="#404040" transform="translate(108,153)"/>
<path d="M0 0 C0.66 0 1.32 0 2 0 C3.5078125 1.75 3.5078125 1.75 5.125 4 C5.66382813 4.7425 6.20265625 5.485 6.7578125 6.25 C7.16773438 6.8275 7.57765625 7.405 8 8 C5.6875 7.8125 5.6875 7.8125 3 7 C0 2.96551724 0 2.96551724 0 0 Z " fill="#808080" transform="translate(268,145)"/>
<path d="M0 0 C0 3.90838866 -1.50567876 5.11594107 -4 8 C-4.99 7.67 -5.98 7.34 -7 7 C-5.42655961 3.85311922 -2.72148049 2.20034593 0 0 Z " fill="#9F9F9F" transform="translate(295,160)"/>
<path d="M0 0 C0.99 0.33 1.98 0.66 3 1 C1.515 2.485 1.515 2.485 0 4 C-0.99 3.67 -1.98 3.34 -3 3 C-2.01 2.01 -1.02 1.02 0 0 Z " fill="#2A2A2A" transform="translate(238,188)"/>
<path d="M0 0 C0.99 0.33 1.98 0.66 3 1 C3.625 3.3125 3.625 3.3125 4 6 C3.01 7.485 3.01 7.485 2 9 C1.34 6.03 0.68 3.06 0 0 Z " fill="#666666" transform="translate(208,154)"/>
<path d="M0 0 C1.24546405 2.49092811 0.7767578 3.41080733 0 6 C-1.65 6 -3.3 6 -5 6 C-3.35 4.02 -1.7 2.04 0 0 Z " fill="#565656" transform="translate(264,134)"/>
</svg>
