<?xml version="1.0" encoding="UTF-8"?>
<svg version="1.1" xmlns="http://www.w3.org/2000/svg" width="557" height="448">
<path d="M0 0 C0.82113281 0.05027344 1.64226562 0.10054687 2.48828125 0.15234375 C8.52516343 0.5919746 13.51938576 2.500367 19 5 C19.82628906 5.3609375 20.65257812 5.721875 21.50390625 6.09375 C39.06447183 14.22822169 51.76433929 29.50532794 58.90234375 47.2421875 C62.65452016 57.73334741 63.29113502 67.9206952 63 79 C64.59714844 78.41992188 64.59714844 78.41992188 66.2265625 77.828125 C74.53374353 74.83853988 82.81716662 72.080748 91.33984375 69.76171875 C93.94578956 69.10365386 93.94578956 69.10365386 96 68 C101.60582139 67.40363602 105.60420532 68.78531949 110.80615234 70.82666016 C113.93032052 71.9744015 117.03991212 72.89367871 120.25 73.76953125 C128.90908056 76.20914098 137.41418333 79.06476361 145.9375 81.9375 C147.48102326 82.45536595 149.02464278 82.97294504 150.56835938 83.49023438 C155.75861533 85.2302784 160.94830623 86.97201423 166.13604736 88.71954346 C168.15402524 89.3990877 170.17265138 90.07667435 172.19140625 90.75390625 C173.33939697 91.14006104 174.4873877 91.52621582 175.67016602 91.92407227 C179.09348426 93.0302064 182.53913309 94.01860532 186 95 C187.46877805 95.46830383 188.93429351 95.94711569 190.39453125 96.44140625 C191.53656006 96.82643311 191.53656006 96.82643311 192.70166016 97.21923828 C193.4601123 97.47688965 194.21856445 97.73454102 195 98 C207.14277663 102.14886112 207.14277663 102.14886112 219.4375 105.8125 C227.40356421 108.02834775 235.2037714 110.71733646 243.03686523 113.359375 C253.00716363 116.70627805 263.03066631 119.84483411 273.09204102 122.9050293 C279.32439899 124.81141323 285.46031255 126.85988406 291.5703125 129.12719727 C294.76498732 130.27480202 297.97160352 131.18190746 301.25 132.0625 C314.11600719 135.67401079 314.11600719 135.67401079 317 140 C317.43334917 143.39456848 317.58452029 145.21911742 315.5 148.00390625 C312.12782942 150.6963737 308.71393646 151.74179991 304.625 153 C303.82570068 153.2563623 303.02640137 153.51272461 302.20288086 153.77685547 C296.22540731 155.67539308 290.2026248 157.3914636 284.16015625 159.0703125 C281.21716843 159.93611114 278.37089148 160.92184861 275.5 162 C266.54184042 165.36096386 257.27352076 167.69164184 248 170 C248.00276538 170.59929951 248.00553076 171.19859901 248.00837994 171.81605911 C248.07462506 186.3964935 248.1242734 200.976919 248.15543652 215.55746841 C248.17090724 222.60851698 248.19200057 229.65946511 248.22631836 236.71044922 C248.25940656 243.51204127 248.27684179 250.31352878 248.28463173 257.11519623 C248.29018486 259.71319982 248.30102843 262.31119754 248.31719017 264.9091568 C248.33889256 268.54145264 248.34196987 272.17331406 248.34057617 275.80566406 C248.35675491 277.42514702 248.35675491 277.42514702 248.3732605 279.0773468 C248.36913651 280.06730148 248.36501251 281.05725616 248.36076355 282.07720947 C248.36352893 282.93632053 248.36629431 283.79543159 248.36914349 284.68057632 C247.91559959 287.53030955 246.93145529 288.88687087 245 291 C242.82128906 292.16918945 242.82128906 292.16918945 240.265625 293.11328125 C239.31059082 293.47075439 238.35555664 293.82822754 237.37158203 294.1965332 C236.34145996 294.56480225 235.31133789 294.93307129 234.25 295.3125 C233.18249512 295.70203857 232.11499023 296.09157715 231.01513672 296.49291992 C190.69891458 311 190.69891458 311 177 311 C177.01571045 312.28165039 177.0314209 313.56330078 177.04760742 314.88378906 C177.10191556 319.63974725 177.13635342 324.39567802 177.16479492 329.15185547 C177.1798795 331.21017059 177.20034987 333.26845358 177.22631836 335.32666016 C177.26271585 338.28556244 177.27972966 341.24403967 177.29296875 344.203125 C177.30845261 345.12305237 177.32393646 346.04297974 177.33988953 346.99078369 C177.3415689 353.36896593 177.3415689 353.36896593 175.6027832 356.58129883 C173.61701081 358.33900231 172.62811798 358.51216244 170 358.4375 C168.9790625 358.43556641 168.9790625 358.43556641 167.9375 358.43359375 C165.42551632 357.87143611 164.60954235 356.98798993 163 355 C162.63923645 353.0827179 162.63923645 353.0827179 162.65942383 350.89575195 C162.65965042 350.07512772 162.65987701 349.25450348 162.66011047 348.40901184 C162.67559433 347.52767075 162.69107819 346.64632965 162.70703125 345.73828125 C162.71127609 344.83248825 162.71552094 343.92669525 162.71989441 342.99345398 C162.73669152 340.09950067 162.7743455 337.20624294 162.8125 334.3125 C162.82754551 332.35092151 162.84123415 330.38933211 162.85351562 328.42773438 C162.88659843 323.61822144 162.93838778 318.80922867 163 314 C162.39752441 314.08564209 161.79504883 314.17128418 161.17431641 314.25952148 C123.99315839 319.48492431 87.17910373 319.00553791 50 314 C48.54158691 313.80929932 48.54158691 313.80929932 47.05371094 313.61474609 C17.99769021 309.72974978 -20.14161245 304.43464785 -46 290 C-46 289.34 -46 288.68 -46 288 C-46.66 288 -47.32 288 -48 288 C-48 249.06 -48 210.12 -48 170 C-50.97 169.34 -53.94 168.68 -57 168 C-59.30179526 167.34721296 -61.59383856 166.65909188 -63.875 165.9375 C-64.52645996 165.7319751 -65.17791992 165.5264502 -65.84912109 165.31469727 C-73.99064268 162.72287864 -82.08177054 159.97356953 -90.17553711 157.23706055 C-97.22855434 154.86748158 -104.24109719 152.7146903 -111.49609375 151.046875 C-114.75348916 149.68496865 -116.07515971 147.91628934 -118 145 C-118.5 142.4375 -118.5 142.4375 -118 140 C-115.21801754 136.68076587 -112.86052158 135.31149643 -108.74609375 134.0703125 C-107.15450439 133.5757959 -107.15450439 133.5757959 -105.53076172 133.07128906 C-104.36561035 132.71776367 -103.20045898 132.36423828 -102 132 C-100.07508855 131.38218826 -98.15021508 130.76424289 -96.22695923 130.14129639 C-94.20906934 129.48778727 -92.1897614 128.83886257 -90.16992188 128.19140625 C-89.49501709 127.97500488 -88.8201123 127.75860352 -88.12475586 127.53564453 C-86.73751213 127.09124042 -85.35013999 126.64723695 -83.96264648 126.20361328 C-81.92380327 125.55139308 -79.88568436 124.8969495 -77.84765625 124.2421875 C-76.0534021 123.66766846 -76.0534021 123.66766846 -74.22290039 123.08154297 C-71.43366796 122.14553057 -68.71647172 121.12730216 -66 120 C-66.36351562 119.56171875 -66.72703125 119.1234375 -67.1015625 118.671875 C-73.90291405 110.09170842 -78.32728898 100.58464364 -81 90 C-81.20496094 89.33226562 -81.40992188 88.66453125 -81.62109375 87.9765625 C-86.53149006 70.29913577 -81.44489709 52.11026912 -74 36 C-73.34 36 -72.68 36 -72 36 C-71.814375 35.13375 -71.814375 35.13375 -71.625 34.25 C-70.99351176 31.97664233 -70.11141809 30.0746471 -69 28 C-68.34 28 -67.68 28 -67 28 C-66.7628125 27.43796875 -66.525625 26.8759375 -66.28125 26.296875 C-64.71052303 23.48105958 -62.78528536 21.52044584 -60.5 19.25 C-59.7059375 18.45078125 -58.911875 17.6515625 -58.09375 16.828125 C-56 15 -56 15 -54 15 C-54 14.34 -54 13.68 -54 13 C-43.95505346 5.42184343 -32.32208278 1.5718786 -20 0 C-18.865625 -0.226875 -17.73125 -0.45375 -16.5625 -0.6875 C-10.9918032 -1.17615761 -5.55273886 -0.53430739 0 0 Z M-44 24 C-44.75796875 24.48984375 -45.5159375 24.9796875 -46.296875 25.484375 C-58.6305489 34.07541682 -65.40409527 48.32648716 -68.46484375 62.66015625 C-69.79714368 70.97487482 -69.42670848 78.94332786 -67 87 C-66.74347656 87.86238281 -66.48695312 88.72476563 -66.22265625 89.61328125 C-63.16877885 98.8797676 -58.39502154 107.50681036 -51 114 C-50.4740625 114.52851563 -49.948125 115.05703125 -49.40625 115.6015625 C-38.83798526 125.76680019 -24.50295136 130.97744103 -10 131.375 C8.18273716 130.87656971 22.73673771 122.93318254 35 110 C40.08701764 104.26688831 40.08701764 104.26688831 42 97 C42.66 97 43.32 97 44 97 C49.11830054 83.10746997 51.4572901 66.02140222 45.78515625 51.99609375 C44.93662394 50.30640767 44.05292283 48.63349877 43.12109375 46.98828125 C42 45 42 45 41 42 C40.34 42 39.68 42 39 42 C38.896875 41.4225 38.79375 40.845 38.6875 40.25 C37.89103535 37.64338842 36.80934723 36.0264689 35 34 C34.34 34 33.68 34 33 34 C32.7215625 33.1646875 32.7215625 33.1646875 32.4375 32.3125 C30.61720281 29.38419583 28.4144239 28.01274242 25.55859375 26.1484375 C24 25 24 25 23 23 C20.66160309 21.7497096 18.34331862 20.60468905 15.9375 19.5 C14.97166992 19.03787109 14.97166992 19.03787109 13.98632812 18.56640625 C-4.73782716 9.86704796 -27.19331913 12.22389027 -44 24 Z M75.6328125 90.046875 C73 91 73 91 69.5546875 91.578125 C62.8952942 92.64725508 62.8952942 92.64725508 57.69238281 96.61328125 C55.30236534 100.58787424 53.59099945 104.83881327 51.84375 109.12402344 C50.39597804 112.34297012 48.29027191 114.937603 46.03125 117.6171875 C44.80072537 118.9797081 44.80072537 118.9797081 45 121 C44.01 121.33 43.02 121.66 42 122 C42 122.66 42 123.32 42 124 C40.515 124.495 40.515 124.495 39 125 C39 125.66 39 126.32 39 127 C38.195625 127.28875 37.39125 127.5775 36.5625 127.875 C33.8673532 128.73262568 33.8673532 128.73262568 33 131 C30.87023755 132.20261969 28.75927841 133.30869408 26.5625 134.375 C25.92578369 134.68590576 25.28906738 134.99681152 24.63305664 135.31713867 C22.76038991 136.22244575 20.88185043 137.11396641 19 138 C17.66582031 138.63228516 17.66582031 138.63228516 16.3046875 139.27734375 C0.12901301 146.35086477 -18.95607658 145.44174464 -35.44140625 139.828125 C-39.78551658 138.06655836 -43.88125003 136.14117645 -47.875 133.6875 C-51.51172657 131.72366765 -52.92991266 131.37383272 -57 132 C-59.56174081 132.81426762 -62.0582213 133.74384261 -64.56640625 134.7109375 C-68.90363959 136.33925036 -73.28923771 137.79627855 -77.6875 139.25 C-78.50250977 139.52021973 -79.31751953 139.79043945 -80.15722656 140.06884766 C-82.1043797 140.7138888 -84.0521265 141.35713746 -86 142 C-86 142.66 -86 143.32 -86 144 C-85.09572266 144.29132813 -84.19144531 144.58265625 -83.25976562 144.8828125 C-79.00603015 146.2537214 -74.7529357 147.62661225 -70.5 149 C-69.34352966 149.37331955 -69.34352966 149.37331955 -68.16369629 149.75418091 C-58.34012682 152.92687033 -48.53329264 156.14226042 -38.75 159.4375 C-31.68373893 161.81481306 -24.62183052 164.02428168 -17.43359375 166.00390625 C-10.94359281 167.88667103 -4.55850636 170.09872768 1.83984375 172.26928711 C4.75515016 173.25544354 7.67530939 174.22678301 10.59545898 175.19848633 C13.21847083 176.07282361 15.83975448 176.95222706 18.4609375 177.83203125 C27.661158 180.91532323 36.86102765 183.98803949 46.125 186.875 C57.21163112 190.33251732 68.2144314 194.04433321 79.2265625 197.73046875 C80.39533936 198.12081299 81.56411621 198.51115723 82.76831055 198.91333008 C84.76240788 199.58385416 86.75404117 200.26182265 88.74145508 200.9519043 C89.91937622 201.35856323 89.91937622 201.35856323 91.12109375 201.7734375 C91.7752124 202.00337402 92.42933105 202.23331055 93.10327148 202.47021484 C99.72264471 204.31910658 104.92846646 202.88156082 111.04296875 200.1953125 C114.56705834 198.77077959 118.1601989 197.72063617 121.8125 196.6875 C131.98436394 193.78855946 141.98706683 190.40153686 152 187 C150.46429315 183.9285863 147.94530292 183.39022722 144.875 181.9375 C139.53357539 179.35795243 134.42726669 176.54422206 129.375 173.4375 C124.00593565 170.14065747 118.5846745 167.175305 112.87890625 164.484375 C110.54678395 163.28192388 108.41344056 162.01479678 106.2109375 160.6015625 C103.38771051 158.80560128 100.55231051 157.23556703 97.53515625 155.7890625 C96.79845703 155.43070312 96.06175781 155.07234375 95.30273438 154.703125 C93.79000003 153.97511335 92.26877678 153.26452015 90.74023438 152.5703125 C88.61236044 151.51485687 86.80316821 150.54772174 85 149 C83.91021853 145.26990238 83.53979882 143.19652307 84.9375 139.5625 C85.288125 139.046875 85.63875 138.53125 86 138 C92.69758095 137.48651879 96.19148068 138.68930836 101.75 142.3125 C103.23518235 143.23337298 104.72224503 144.15121862 106.2109375 145.06640625 C107.37447754 145.78787842 107.37447754 145.78787842 108.56152344 146.52392578 C112.75935591 149.06498456 117.06628024 151.40357538 121.375 153.75 C122.2309375 154.21817139 123.086875 154.68634277 123.96875 155.16870117 C127.35914661 157.02133904 130.75374776 158.86618055 134.1484375 160.7109375 C138.75008634 163.21213401 143.33350665 165.74129244 147.89526367 168.31445312 C149.28964696 169.09987538 150.68562865 169.88246717 152.08325195 170.66210938 C155.14466201 172.37202691 158.16729856 174.10324001 161.15234375 175.9453125 C166.20216434 178.99078635 169.7868127 180.86763746 175.70703125 179.68359375 C179.19332596 178.64423843 182.58538457 177.4210938 185.9765625 176.10546875 C189.30203288 174.88956679 192.64831302 173.93686476 196.0625 173 C200.0926688 171.87905478 203.96108881 170.69345474 207.8125 169.0625 C211.8650922 167.37284095 215.969727 166.07642004 220.1875 164.875 C228.53563076 162.48789002 236.802003 159.85938046 245.0625 157.1875 C245.72576294 156.97303223 246.38902588 156.75856445 247.0723877 156.53759766 C259.74088524 152.43654557 272.37931808 148.24590783 285 144 C285 143.34 285 142.68 285 142 C274.769199 138.32867474 264.57861604 134.77296994 254.09375 131.89453125 C250.28909877 130.79444901 246.61295627 129.4426542 242.90844727 128.04760742 C240.0412774 127.0148679 237.16379219 126.10566001 234.24609375 125.2265625 C226.79369442 122.95225508 219.38488059 120.55320772 211.97640991 118.14065552 C207.91077272 116.81682103 203.8439418 115.49666051 199.77734375 114.17578125 C198.95633682 113.9090007 198.1353299 113.64222015 197.28944397 113.36735535 C189.25801376 110.75783153 181.22384864 108.15683512 173.1875 105.5625 C172.54286804 105.35427612 171.89823608 105.14605225 171.23406982 104.93151855 C164.08465084 102.62299641 156.92924399 100.33901922 149.75 98.125 C145.57678028 96.83501343 141.46616785 95.46729199 137.375 93.9375 C132.13868426 91.97977835 126.80783253 90.49932492 121.421875 89.01171875 C118.28704548 88.08486847 115.29231667 87.00278491 112.25 85.8125 C99.04584465 80.98827439 88.17660921 84.49945335 75.6328125 90.046875 Z M-34 175 C-34 209.65 -34 244.3 -34 280 C-13.48107799 286.56605504 6.3387265 292.55616752 27.38476562 296.50732422 C30.0867829 297.01634876 32.78546181 297.54119431 35.484375 298.06640625 C58.27917052 302.43434305 81.17888578 304.22142108 104.375 304.25 C105.10648254 304.25167175 105.83796509 304.25334351 106.59161377 304.25506592 C118.56782842 304.25667584 130.44433309 303.64907272 142.375 302.625 C143.50793488 302.53031433 143.50793488 302.53031433 144.66375732 302.43371582 C146.80564951 302.25055585 148.94581914 302.05431425 151.0859375 301.8515625 C152.3032959 301.73635254 153.5206543 301.62114258 154.77490234 301.50244141 C158.38173846 301.06387641 158.38173846 301.06387641 163 299 C163 265.67 163 232.34 163 198 C158.10433219 198.81594464 153.77247925 199.95923485 149.125 201.5625 C147.52868872 202.10299127 145.93233207 202.64334854 144.3359375 203.18359375 C143.4809668 203.47476074 142.62599609 203.76592773 141.74511719 204.06591797 C133.73873991 206.7902509 125.72032507 209.47684347 117.68457031 212.11328125 C115.35433258 212.88296327 113.03253074 213.67354535 110.7109375 214.46875 C109.52757812 214.8503125 108.34421875 215.231875 107.125 215.625 C105.67480469 216.10839844 105.67480469 216.10839844 104.1953125 216.6015625 C94.90530404 217.75997431 85.24477074 213.3004412 76.5625 210.4375 C75.19748904 209.99224012 73.8323336 209.54742295 72.46704102 209.10302734 C62.30756725 205.78894694 52.1764622 202.39024631 42.04711914 198.98535156 C35.34699618 196.74473751 28.64088073 194.68739705 21.828125 192.81640625 C18.17972201 191.76320705 14.65274489 190.46269838 11.09765625 189.1328125 C0.67173389 185.32005401 -9.89484022 181.91544191 -20.59375 178.95703125 C-25.07940985 177.69672544 -29.53715491 176.33885353 -34 175 Z M223.75 177.75 C218.03285555 179.69259717 212.32180156 181.52208107 206.5 183.125 C201.58185077 184.48799748 196.94658634 186.14909507 192.24609375 188.125 C188.8986802 189.42903589 185.49335785 190.17106763 182 191 C180.35 191.66 178.7 192.32 177 193 C177 227.32 177 261.64 177 297 C186.79365832 295.41128151 186.79365832 295.41128151 196.13671875 292.90234375 C198.33564584 292.20936673 200.54986121 291.564754 202.76953125 290.94140625 C213.5878668 287.89469125 223.408279 284.11900261 234 280 C234 245.35 234 210.7 234 175 C230.43669376 175 227.0958213 176.5997883 223.75 177.75 Z " fill="#222223" transform="translate(180,46)"/>
<path d="M0 0 C2.53785617 1.66273336 2.9318384 2.73355011 3.6875 5.6875 C3.8421875 6.8321875 3.8421875 6.8321875 4 8 C4.87011719 8.05607422 4.87011719 8.05607422 5.7578125 8.11328125 C12.31645044 8.66524583 16.61364196 10.13241544 21.875 14.25 C24 17 24 17 24.625 20.5 C24 24 24 24 22.0625 27 C18.32005236 29.44404744 16.57298211 29.33608402 12.29296875 28.59765625 C8.98001406 27.73414336 6.07460946 26.50459612 3 25 C3 29.95 3 34.9 3 40 C5.97 40.495 5.97 40.495 9 41 C16.76107994 43.86308132 21.68295981 47.88195517 26.13671875 54.75390625 C27.38157414 57.99278339 27.3021455 60.91659649 27.3125 64.375 C27.32925781 65.66148437 27.34601563 66.94796875 27.36328125 68.2734375 C26.98133229 72.19149454 25.97712676 74.63001614 24 78 C23.34 78 22.68 78 22 78 C21.505 79.485 21.505 79.485 21 81 C20.34 81 19.68 81 19 81 C19 81.66 19 82.32 19 83 C14.00703705 85.9445679 9.66442374 86.63495936 4 87 C3.95101562 87.69867188 3.90203125 88.39734375 3.8515625 89.1171875 C3.77679688 90.02726562 3.70203125 90.93734375 3.625 91.875 C3.55539063 92.77992188 3.48578125 93.68484375 3.4140625 94.6171875 C3 97 3 97 1 99 C-6.09859155 99.67605634 -6.09859155 99.67605634 -9 97.5 C-10.44831655 93.87920862 -10.19435828 90.88716564 -10 87 C-11.2375 86.938125 -12.475 86.87625 -13.75 86.8125 C-20.97231222 85.98970494 -29.10574819 83.49577622 -34.3125 78.1875 C-36.65352943 73.76555552 -36.26194249 71.81115573 -35 67 C-33.41373415 64.90095334 -32.54005795 64.11418368 -29.94921875 63.56640625 C-24.32130369 63.55668619 -21.61000487 64.56701765 -17 68 C-14.36864668 69.1455254 -11.71651907 70.06326929 -9 71 C-9 65.72 -9 60.44 -9 55 C-10.629375 54.62875 -12.25875 54.2575 -13.9375 53.875 C-20.38746325 52.08796121 -26.50975276 49.64224526 -30.41015625 43.9375 C-33.90324709 37.12659886 -35.32577172 30.42855068 -32.9375 23 C-30.47826448 17.14632673 -26.30008005 11.74030818 -20.4375 9.0625 C-17 8 -17 8 -13.75 7.6875 C-12.8425 7.460625 -11.935 7.23375 -11 7 C-9.19970518 4.06644453 -9.19970518 4.06644453 -8 1 C-5.20129973 -0.39935013 -3.09501208 -0.25265405 0 0 Z M-15 26 C-15.59587577 30.08600528 -15.31567384 31.52648925 -13 35 C-11.68 35.33 -10.36 35.66 -9 36 C-9 31.71 -9 27.42 -9 23 C-11.47976302 23 -13.13604817 24.5661909 -15 26 Z M3 59 C3 63.29 3 67.58 3 72 C4.32 71.34 5.64 70.68 7 70 C7.66 69.67 8.32 69.34 9 69 C9.33380814 65.62563814 9.33380814 65.62563814 9 62 C7.2515605 59.97891823 7.2515605 59.97891823 5 59 C4.34 59 3.68 59 3 59 Z " fill="#212121" transform="translate(174,68)"/>
<path d="M0 0 C0.66 0.33 1.32 0.66 2 1 C0.35 3.31 -1.3 5.62 -3 8 C-2.34 8 -1.68 8 -1 8 C-0.67 8.66 -0.34 9.32 0 10 C1.94074861 9.72382467 1.94074861 9.72382467 4 9 C4.66 8.01 5.32 7.02 6 6 C5.01 4.68 4.02 3.36 3 2 C5.3125 1.3125 5.3125 1.3125 8 1 C9.8125 2.4375 9.8125 2.4375 11 4 C11.33 3.01 11.66 2.02 12 1 C12 2.32 12 3.64 12 5 C12.99 5.33 13.98 5.66 15 6 C14.67 6.66 14.34 7.32 14 8 C14.99 8.33 15.98 8.66 17 9 C16.2265625 9.35191406 15.453125 9.70382813 14.65625 10.06640625 C8.5015963 12.98377304 3.41312598 15.9137886 -1.4765625 20.6796875 C-3 22 -3 22 -5 22 C-5.2475 22.53625 -5.495 23.0725 -5.75 23.625 C-7.29696975 26.56424252 -9.13014369 29.25754408 -11 32 C-11.33 30.68 -11.66 29.36 -12 28 C-11.34 28 -10.68 28 -10 28 C-9.83318891 25.08347826 -9.83318891 25.08347826 -10 22 C-10.66 21.34 -11.32 20.68 -12 20 C-12.125 17.375 -12.125 17.375 -12 15 C-12.78375 15.78375 -13.5675 16.5675 -14.375 17.375 C-15.91666667 18.91666667 -17.45833333 20.45833333 -19 22 C-19.66 21.67 -20.32 21.34 -21 21 C-21 20.34 -21 19.68 -21 19 C-20.34 19 -19.68 19 -19 19 C-18.7628125 18.43796875 -18.525625 17.8759375 -18.28125 17.296875 C-16.71052303 14.48105958 -14.78528536 12.52044584 -12.5 10.25 C-11.7059375 9.45078125 -10.911875 8.6515625 -10.09375 7.828125 C-8 6 -8 6 -6 6 C-6 5.34 -6 4.68 -6 4 C-4.03852126 2.61061923 -2.03833424 1.2739589 0 0 Z " fill="#282828" transform="translate(132,55)"/>
<path d="M0 0 C4.38185869 0.25108617 6.8089905 1.8596924 10.1875 4.5625 C9.0899777 7.55574263 8.51067108 8.40860901 5.5625 9.8125 C4.77875 10.06 3.995 10.3075 3.1875 10.5625 C3.1875 12.5425 3.1875 14.5225 3.1875 16.5625 C-0.21562738 15.50374926 -2.82603231 14.55347846 -5.8125 12.5625 C-6.81150309 8.78055972 -7.07006854 6.3695481 -5.875 2.625 C-3.8125 0.5625 -3.8125 0.5625 0 0 Z " fill="#2A2A2A" transform="translate(269.8125,182.4375)"/>
<path d="M0 0 C0.66 0 1.32 0 2 0 C5.20224719 9.39325843 5.20224719 9.39325843 4 13 C3.34 13 2.68 13 2 13 C1.67 15.31 1.34 17.62 1 20 C-1.375 20.1875 -1.375 20.1875 -4 20 C-4.66 19.01 -5.32 18.02 -6 17 C-5.67 16.34 -5.34 15.68 -5 15 C-5.66 15 -6.32 15 -7 15 C-9.18965517 10.62068966 -9.18965517 10.62068966 -8.3125 7.75 C-7 6 -7 6 -4 5 C-2.66172696 3.33729713 -1.32810215 1.67083819 0 0 Z " fill="#272727" transform="translate(118,70)"/>
<path d="M0 0 C0.66 0.33 1.32 0.66 2 1 C1.360625 1.763125 0.72125 2.52625 0.0625 3.3125 C-2.14232781 5.88246713 -2.14232781 5.88246713 -3 9 C-4.32 9 -5.64 9 -7 9 C-7.66 11.97 -8.32 14.94 -9 18 C-8.34 18.33 -7.68 18.66 -7 19 C-6.0625 21.625 -6.0625 21.625 -6 25 C-7.39048958 27.57498071 -9.10159829 29.77972395 -11 32 C-11.33 30.68 -11.66 29.36 -12 28 C-11.34 28 -10.68 28 -10 28 C-9.83318891 25.08347826 -9.83318891 25.08347826 -10 22 C-10.66 21.34 -11.32 20.68 -12 20 C-12.125 17.375 -12.125 17.375 -12 15 C-12.78375 15.78375 -13.5675 16.5675 -14.375 17.375 C-15.91666667 18.91666667 -17.45833333 20.45833333 -19 22 C-19.66 21.67 -20.32 21.34 -21 21 C-21 20.34 -21 19.68 -21 19 C-20.34 19 -19.68 19 -19 19 C-18.7628125 18.43796875 -18.525625 17.8759375 -18.28125 17.296875 C-16.71052303 14.48105958 -14.78528536 12.52044584 -12.5 10.25 C-11.7059375 9.45078125 -10.911875 8.6515625 -10.09375 7.828125 C-8 6 -8 6 -6 6 C-6 5.34 -6 4.68 -6 4 C-4.03852126 2.61061923 -2.03833424 1.2739589 0 0 Z " fill="#373737" transform="translate(132,55)"/>
<path d="M0 0 C4.455 0.99 4.455 0.99 9 2 C6.79080336 5.75563429 4.43615728 9.38776679 2 13 C4.475 13.99 4.475 13.99 7 15 C3.80421108 16.59789446 1.34747444 15.1581304 -2 14.1875 C-3.258125 13.83042969 -4.51625 13.47335938 -5.8125 13.10546875 C-9 12 -9 12 -11 10 C-8.21176345 8.9673198 -7.1322726 8.95490707 -4.25 9.9375 C-3.5075 10.288125 -2.765 10.63875 -2 11 C-3.66924071 7.95865509 -3.66924071 7.95865509 -6 7 C-5.195625 6.21625 -4.39125 5.4325 -3.5625 4.625 C-1.01309583 2.28017144 -1.01309583 2.28017144 0 0 Z " fill="#343434" transform="translate(100,192)"/>
<path d="M0 0 C4 0 4 0 5.75 1.5 C6.36875 2.2425 6.36875 2.2425 7 3 C7.33 2.01 7.66 1.02 8 0 C8 1.32 8 2.64 8 4 C8.99 4.33 9.98 4.66 11 5 C10.67 5.66 10.34 6.32 10 7 C10.99 7.33 11.98 7.66 13 8 C11.78763672 8.59748047 11.78763672 8.59748047 10.55078125 9.20703125 C9.48214844 9.73683594 8.41351563 10.26664063 7.3125 10.8125 C6.25675781 11.33457031 5.20101562 11.85664062 4.11328125 12.39453125 C1.33223304 13.8286728 -1.33904567 15.35603378 -4 17 C-4.33 16.01 -4.66 15.02 -5 14 C-4.01 14 -3.02 14 -2 14 C-2.33 13.01 -2.66 12.02 -3 11 C-1.59554165 8.7363436 0.1967913 6.9791315 2 5 C1.01 3.68 0.02 2.36 -1 1 C-0.67 0.67 -0.34 0.34 0 0 Z " fill="#2E2E2F" transform="translate(136,56)"/>
<path d="M0 0 C0.66 0.33 1.32 0.66 2 1 C0.515 2.485 0.515 2.485 -1 4 C-0.01 5.32 0.98 6.64 2 8 C-2.625 12 -2.625 12 -6 12 C-6 11.01 -6 10.02 -6 9 C-6.66 9 -7.32 9 -8 9 C-6.6284197 6.04582705 -5.13179822 3.47288594 -3 1 C-2.01 0.67 -1.02 0.34 0 0 Z " fill="#202020" transform="translate(137,54)"/>
<path d="M0 0 C2 0 2 0 4.625 2.5 C5.800625 3.7375 5.800625 3.7375 7 5 C6.67 5.99 6.34 6.98 6 8 C8.475 8.99 8.475 8.99 11 10 C7.80421108 11.59789446 5.34747444 10.1581304 2 9.1875 C0.741875 8.83042969 -0.51625 8.47335938 -1.8125 8.10546875 C-5 7 -5 7 -7 5 C-4.21176345 3.9673198 -3.1322726 3.95490707 -0.25 4.9375 C0.4925 5.288125 1.235 5.63875 2 6 C0.33075929 2.95865509 0.33075929 2.95865509 -2 2 C-1.34 1.34 -0.68 0.68 0 0 Z " fill="#3D3D3D" transform="translate(96,197)"/>
<path d="M0 0 C0.66 0.99 1.32 1.98 2 3 C1.34 3.66 0.68 4.32 0 5 C0.3185177 7.10820797 0.3185177 7.10820797 1 9 C1.66 9 2.32 9 3 9 C3.33 10.65 3.66 12.3 4 14 C2.68 14 1.36 14 0 14 C0 13.34 0 12.68 0 12 C-4.04622502 11.63019987 -4.04622502 11.63019987 -7 14 C-5.125 8.25 -5.125 8.25 -4 6 C-3.34 6 -2.68 6 -2 6 C-1.855625 5.38125 -1.71125 4.7625 -1.5625 4.125 C-1 2 -1 2 0 0 Z " fill="#404040" transform="translate(110,76)"/>
<path d="M0 0 C0.66 0 1.32 0 2 0 C3.12880057 3.31114834 4.21302675 6.58978257 5 10 C4.01 10 3.02 10 2 10 C1.67 9.01 1.34 8.02 1 7 C-0.98 7.33 -2.96 7.66 -5 8 C-5.33 8.99 -5.66 9.98 -6 11 C-6.99 11.33 -7.98 11.66 -9 12 C-8.1875 9.0625 -8.1875 9.0625 -7 6 C-6.01 5.67 -5.02 5.34 -4 5 C-2.66172696 3.33729713 -1.32810215 1.67083819 0 0 Z " fill="#131313" transform="translate(118,70)"/>
<path d="M0 0 C1.32 0.33 2.64 0.66 4 1 C4 1.99 4 2.98 4 4 C3.34 4 2.68 4 2 4 C2 5.98 2 7.96 2 10 C-0.86724686 9.42655063 -1.8614515 9.1385485 -4 7 C-3.625 4.375 -3.625 4.375 -3 2 C-2.01 2 -1.02 2 0 2 C0 1.34 0 0.68 0 0 Z " fill="#242424" transform="translate(140,255)"/>
<path d="M0 0 C0.33 0.99 0.66 1.98 1 3 C2.65 3 4.3 3 6 3 C6 3.33 6 3.66 6 4 C4.35 4 2.7 4 1 4 C1 4.99 1 5.98 1 7 C-2.63 7 -6.26 7 -10 7 C-10 6.67 -10 6.34 -10 6 C-8.35 5.67 -6.7 5.34 -5 5 C-4.67 3.68 -4.34 2.36 -4 1 C-2.68 0.67 -1.36 0.34 0 0 Z " fill="#383838" transform="translate(247,354)"/>
<path d="M0 0 C0.99 0.33 1.98 0.66 3 1 C3 1.99 3 2.98 3 4 C3.66 4 4.32 4 5 4 C5 4.99 5 5.98 5 7 C4.34 7 3.68 7 3 7 C2.67 9.31 2.34 11.62 2 14 C1.01 13.34 0.02 12.68 -1 12 C-0.67 11.01 -0.34 10.02 0 9 C-0.185625 8.319375 -0.37125 7.63875 -0.5625 6.9375 C-0.706875 6.298125 -0.85125 5.65875 -1 5 C-0.34 4.34 0.32 3.68 1 3 C0.34 2.34 -0.32 1.68 -1 1 C-0.67 0.67 -0.34 0.34 0 0 Z " fill="#272727" transform="translate(117,76)"/>
<path d="M0 0 C7.92 0.33 15.84 0.66 24 1 C24 1.33 24 1.66 24 2 C19.71 2 15.42 2 11 2 C11.33 3.32 11.66 4.64 12 6 C10.125 5.75 10.125 5.75 8 5 C6.75 2.9375 6.75 2.9375 6 1 C4.02 1 2.04 1 0 1 C0 0.67 0 0.34 0 0 Z " fill="#5C5C5F" transform="translate(244,348)"/>
<path d="M0 0 C3.3 0.66 6.6 1.32 10 2 C7 3 7 3 4.375 3.5 C2.05538548 3.76252526 2.05538548 3.76252526 1 5 C1.66 5.66 2.32 6.32 3 7 C3 7.99 3 8.98 3 10 C0.13275314 9.42655063 -0.8614515 9.1385485 -3 7 C-3 6.01 -3 5.02 -3 4 C-1.68 3.34 -0.36 2.68 1 2 C0.67 1.34 0.34 0.68 0 0 Z " fill="#454545" transform="translate(356,139)"/>
<path d="M0 0 C-1.32 0.33 -2.64 0.66 -4 1 C-3.34 2.65 -2.68 4.3 -2 6 C-2.99 6.495 -2.99 6.495 -4 7 C-4 6.34 -4 5.68 -4 5 C-6.39719432 4.32041397 -6.39719432 4.32041397 -9 4 C-9.66 4.66 -10.32 5.32 -11 6 C-13.625 6.125 -13.625 6.125 -16 6 C-14.49015032 2.98030064 -12.18924698 2.59478081 -9.125 1.3125 C-7.52011719 0.62607422 -7.52011719 0.62607422 -5.8828125 -0.07421875 C-3 -1 -3 -1 0 0 Z " fill="#585858" transform="translate(151,49)"/>
<path d="M0 0 C0.33 0.99 0.66 1.98 1 3 C1.99 2.67 2.98 2.34 4 2 C4.99 2.33 5.98 2.66 7 3 C7.99 2.67 8.98 2.34 10 2 C9.67 3.32 9.34 4.64 9 6 C7.68 5.67 6.36 5.34 5 5 C4.67 5.99 4.34 6.98 4 8 C1 7 1 7 -1 4 C-0.625 1.8125 -0.625 1.8125 0 0 Z " fill="#3A3A3B" transform="translate(172,122)"/>
<path d="M0 0 C1.48199902 0.44909061 2.96055236 0.90956564 4.4375 1.375 C5.26121094 1.63023438 6.08492187 1.88546875 6.93359375 2.1484375 C9 3 9 3 10 5 C8.865625 5.12375 7.73125 5.2475 6.5625 5.375 C4.7990625 5.684375 4.7990625 5.684375 3 6 C2.67 6.66 2.34 7.32 2 8 C1.34 8 0.68 8 0 8 C-1.09658936 4.71023192 -0.79953138 3.28696233 0 0 Z " fill="#484848" transform="translate(181,109)"/>
<path d="M0 0 C0.66 0 1.32 0 2 0 C2 1.32 2 2.64 2 4 C3.32 4.33 4.64 4.66 6 5 C4.68 5 3.36 5 2 5 C2 6.32 2 7.64 2 9 C-3.75 7.375 -3.75 7.375 -6 4 C-3.525 4.99 -3.525 4.99 -1 6 C-0.67 4.02 -0.34 2.04 0 0 Z " fill="#505050" transform="translate(294,203)"/>
<path d="M0 0 C0.66 0.33 1.32 0.66 2 1 C1.67 2.98 1.34 4.96 1 7 C-4.75 5.375 -4.75 5.375 -7 2 C-3.98968256 1.06576355 -3.13349732 0.95550089 0 2 C0 1.34 0 0.68 0 0 Z " fill="#161616" transform="translate(292,202)"/>
<path d="M0 0 C1.98 0.66 3.96 1.32 6 2 C6 2.66 6 3.32 6 4 C4.68 4 3.36 4 2 4 C2 4.99 2 5.98 2 7 C1.01 6.67 0.02 6.34 -1 6 C-1 5.34 -1 4.68 -1 4 C-1.66 3.67 -2.32 3.34 -3 3 C-2.01 2.34 -1.02 1.68 0 1 C0 0.67 0 0.34 0 0 Z " fill="#292929" transform="translate(141,52)"/>
<path d="M0 0 C1.32 0.33 2.64 0.66 4 1 C4 1.66 4 2.32 4 3 C2.73392393 3.53229326 1.46189588 4.05044544 0.1875 4.5625 C-0.52019531 4.85253906 -1.22789062 5.14257812 -1.95703125 5.44140625 C-4 6 -4 6 -7 5 C-2.25 2 -2.25 2 0 2 C0 1.34 0 0.68 0 0 Z " fill="#464646" transform="translate(405,340)"/>
<path d="M0 0 C0.66 0.33 1.32 0.66 2 1 C1.0409375 2.1446875 1.0409375 2.1446875 0.0625 3.3125 C-2.14232781 5.88246713 -2.14232781 5.88246713 -3 9 C-3.99 9 -4.98 9 -6 9 C-6.375 6.75 -6.375 6.75 -6 4 C-3 1.6875 -3 1.6875 0 0 Z " fill="#4F4F4F" transform="translate(132,55)"/>
<path d="M0 0 C0.33 0.66 0.66 1.32 1 2 C0.3125 4.0625 0.3125 4.0625 -1 6 C-3 6.625 -3 6.625 -5 7 C-5.66 7.66 -6.32 8.32 -7 9 C-7.99 8.67 -8.98 8.34 -10 8 C-6.7 5.36 -3.4 2.72 0 0 Z " fill="#606060" transform="translate(210,160)"/>
<path d="M0 0 C1.67542976 0.28604898 3.34385343 0.61781233 5 1 C3.25 3.5 3.25 3.5 1 6 C-0.32 6 -1.64 6 -3 6 C-1.125 1.125 -1.125 1.125 0 0 Z " fill="#151517" transform="translate(187,113)"/>
<path d="M0 0 C0.99 0.33 1.98 0.66 3 1 C2.67 1.66 2.34 2.32 2 3 C2.99 3.33 3.98 3.66 5 4 C3.02253397 4.73080266 1.01927511 5.39421747 -1 6 C-1.66 5.67 -2.32 5.34 -3 5 C-1.125 1.125 -1.125 1.125 0 0 Z " fill="#3A3A3A" transform="translate(144,60)"/>
<path d="M0 0 C0.66 0.33 1.32 0.66 2 1 C1 2 0 3 -1 4 C-1.7115625 4.804375 -1.7115625 4.804375 -2.4375 5.625 C-4.26450881 7.23276776 -5.65487825 7.48956282 -8 8 C-7.23883449 6.84772177 -6.46567307 5.7033614 -5.6875 4.5625 C-5.25824219 3.92441406 -4.82898438 3.28632812 -4.38671875 2.62890625 C-3 1 -3 1 0 0 Z " fill="#181818" transform="translate(137,54)"/>
<path d="M0 0 C2.625 0.375 2.625 0.375 5 1 C5 1.99 5 2.98 5 4 C5.66 4.33 6.32 4.66 7 5 C5.35 5 3.7 5 2 5 C1.67 4.34 1.34 3.68 1 3 C0.01 2.67 -0.98 2.34 -2 2 C-1.34 1.34 -0.68 0.68 0 0 Z " fill="#272727" transform="translate(246,352)"/>
<path d="M0 0 C0.99 1.485 0.99 1.485 2 3 C2.99 3.33 3.98 3.66 5 4 C5 4.66 5 5.32 5 6 C4.01 6 3.02 6 2 6 C1.67 7.65 1.34 9.3 1 11 C0.67 11 0.34 11 0 11 C0 7.37 0 3.74 0 0 Z " fill="#262627" transform="translate(345,253)"/>
<path d="M0 0 C6.625 -0.25 6.625 -0.25 10 2 C8.35 2 6.7 2 5 2 C4.67 2.99 4.34 3.98 4 5 C3.67 4.34 3.34 3.68 3 3 C2.01 2.67 1.02 2.34 0 2 C0 1.34 0 0.68 0 0 Z " fill="#393939" transform="translate(254,243)"/>
<path d="M0 0 C0.33 1.32 0.66 2.64 1 4 C-5.625 3.25 -5.625 3.25 -9 1 C-5.57367167 -0.61798838 -3.61944899 -1.34053666 0 0 Z " fill="#535355" transform="translate(354,148)"/>
<path d="M0 0 C2.49361571 1.20381448 4.68143083 2.45428722 7 4 C7 4.99 7 5.98 7 7 C4.5625 6.625 4.5625 6.625 2 6 C1.67 5.34 1.34 4.68 1 4 C1.33 3.34 1.66 2.68 2 2 C1.34 2 0.68 2 0 2 C0 1.34 0 0.68 0 0 Z " fill="#161616" transform="translate(111,83)"/>
<path d="M0 0 C0.99 0 1.98 0 3 0 C3.33 1.32 3.66 2.64 4 4 C1.69 4.33 -0.62 4.66 -3 5 C-1.125 1.125 -1.125 1.125 0 0 Z " fill="#3E3E3E" transform="translate(284,258)"/>
<path d="M0 0 C2.475 0.99 2.475 0.99 5 2 C5 2.99 5 3.98 5 5 C2.69 5.33 0.38 5.66 -2 6 C-1.34 4.02 -0.68 2.04 0 0 Z " fill="#101011" transform="translate(453,201)"/>
<path d="M0 0 C-0.54269531 0.26554688 -1.08539063 0.53109375 -1.64453125 0.8046875 C-2.71767578 1.33449219 -2.71767578 1.33449219 -3.8125 1.875 C-4.52019531 2.22304687 -5.22789062 2.57109375 -5.95703125 2.9296875 C-8.21246418 4.0656486 -8.21246418 4.0656486 -11 6 C-11 5.34 -11 4.68 -11 4 C-11.66 3.67 -12.32 3.34 -13 3 C-11.21189234 2.30329584 -9.41937948 1.61788811 -7.625 0.9375 C-6.62726563 0.55464844 -5.62953125 0.17179688 -4.6015625 -0.22265625 C-2 -1 -2 -1 0 0 Z " fill="#606062" transform="translate(430,202)"/>
<path d="M0 0 C0.66 1.32 1.32 2.64 2 4 C1 5 1 5 -1.5625 5.0625 C-2.7690625 5.0315625 -2.7690625 5.0315625 -4 5 C-4.33 4.01 -4.66 3.02 -5 2 C-2 0 -2 0 0 0 Z " fill="#2D2D2E" transform="translate(320,136)"/>
<path d="M0 0 C1.32 0.33 2.64 0.66 4 1 C4.33 2.32 4.66 3.64 5 5 C3.68 5 2.36 5 1 5 C0.67 3.35 0.34 1.7 0 0 Z M-4 2 C0 3 0 3 0 3 Z " fill="#111113" transform="translate(297,129)"/>
<path d="M0 0 C0.33 0.66 0.66 1.32 1 2 C3.78918149 3.10540926 3.78918149 3.10540926 6 3 C5.34 4.32 4.68 5.64 4 7 C3.01 6.67 2.02 6.34 1 6 C1 5.34 1 4.68 1 4 C0.34 4 -0.32 4 -1 4 C-0.67 2.68 -0.34 1.36 0 0 Z " fill="#28282A" transform="translate(176,118)"/>
<path d="M0 0 C1.32 0.66 2.64 1.32 4 2 C2.69593116 4.01920337 1.36176581 6.01924973 0 8 C-0.33 8 -0.66 8 -1 8 C-1.125 2.25 -1.125 2.25 0 0 Z " fill="#434343" transform="translate(226,157)"/>
<path d="M0 0 C1.46015291 0.28241641 2.91809793 0.57626614 4.375 0.875 C5.18710937 1.03742188 5.99921875 1.19984375 6.8359375 1.3671875 C9 2 9 2 11 4 C10.05125 3.79375 9.1025 3.5875 8.125 3.375 C7.09375 3.25125 6.0625 3.1275 5 3 C4.34 3.66 3.68 4.32 3 5 C1.5 3.625 1.5 3.625 0 2 C0 1.34 0 0.68 0 0 Z " fill="#6F6F70" transform="translate(283,115)"/>
<path d="M0 0 C-0.66 0 -1.32 0 -2 0 C-2.33 1.32 -2.66 2.64 -3 4 C-3.66 4 -4.32 4 -5 4 C-5 3.34 -5 2.68 -5 2 C-6.98 2.33 -8.96 2.66 -11 3 C-4.33333333 -1.44444444 -4.33333333 -1.44444444 0 0 Z " fill="#6F6F6F" transform="translate(396,213)"/>
<path d="M0 0 C0.33 0.99 0.66 1.98 1 3 C-2.79303725 1.99806563 -5.71536341 1.18975773 -9 -1 C-5.40440208 -2.33170293 -3.34558716 -1.80842549 0 0 Z " fill="#55555A" transform="translate(154,150)"/>
<path d="M0 0 C1.04449911 3.13349732 0.93423645 3.98968256 0 7 C-1.7074998 5.71937515 -3.37373596 4.38232443 -5 3 C-5 2.34 -5 1.68 -5 1 C-4.34 1 -3.68 1 -3 1 C-3 1.66 -3 2.32 -3 3 C-2.34 3 -1.68 3 -1 3 C-0.67 2.01 -0.34 1.02 0 0 Z " fill="#292929" transform="translate(184,114)"/>
<path d="M0 0 C0 0.66 0 1.32 0 2 C-0.66 2 -1.32 2 -2 2 C-2.28875 2.78375 -2.5775 3.5675 -2.875 4.375 C-4 7 -4 7 -6 9 C-5.38983051 3.50847458 -5.38983051 3.50847458 -3.5625 1.125 C-2 0 -2 0 0 0 Z " fill="#131313" transform="translate(215,159)"/>
<path d="M0 0 C0.33 0.66 0.66 1.32 1 2 C0.06553465 4.03144641 -0.93224776 6.03533587 -2 8 C-2.99 7.67 -3.98 7.34 -5 7 C-5 6.34 -5 5.68 -5 5 C-4.34 5 -3.68 5 -3 5 C-2.5359375 4.0409375 -2.5359375 4.0409375 -2.0625 3.0625 C-1 1 -1 1 0 0 Z " fill="#4E4E4E" transform="translate(116,69)"/>
<path d="M0 0 C-0.66 0 -1.32 0 -2 0 C-2 0.99 -2 1.98 -2 3 C-6.455 2.01 -6.455 2.01 -11 1 C-11 0.67 -11 0.34 -11 0 C-3.57142857 -1.28571429 -3.57142857 -1.28571429 0 0 Z " fill="#535353" transform="translate(369,342)"/>
<path d="M0 0 C-1.26839526 0.50615298 -2.53983102 1.00469099 -3.8125 1.5 C-4.87404297 1.91765625 -4.87404297 1.91765625 -5.95703125 2.34375 C-8 3 -8 3 -11 3 C-10.67 2.01 -10.34 1.02 -10 0 C-6.26432828 -0.76411467 -3.65188082 -1.07174763 0 0 Z " fill="#626264" transform="translate(322,251)"/>
<path d="M0 0 C-0.3125 1.9375 -0.3125 1.9375 -1 4 C-1.99 4.33 -2.98 4.66 -4 5 C-4 4.01 -4 3.02 -4 2 C-5.65 2 -7.3 2 -9 2 C-9 1.67 -9 1.34 -9 1 C-2.25 0 -2.25 0 0 0 Z " fill="#505051" transform="translate(286,248)"/>
<path d="M0 0 C0.66 0 1.32 0 2 0 C2.66 2.31 3.32 4.62 4 7 C3.01 7 2.02 7 1 7 C0.67 4.69 0.34 2.38 0 0 Z " fill="#515151" transform="translate(263,188)"/>
<path d="M0 0 C0.99 0.33 1.98 0.66 3 1 C1.515 4.96 1.515 4.96 0 9 C-1.125 7.25 -1.125 7.25 -2 5 C-1.125 2.8125 -1.125 2.8125 0 1 C0 0.67 0 0.34 0 0 Z " fill="#4B4B4B" transform="translate(236,140)"/>
<path d="M0 0 C0.33 0 0.66 0 1 0 C1.3125 2.3125 1.3125 2.3125 1 5 C-1.5 6.8125 -1.5 6.8125 -4 8 C-3.4021799 4.65220745 -2.20964398 2.57791798 0 0 Z " fill="#5B5B5B" transform="translate(146,83)"/>
<path d="M0 0 C1.98 0 3.96 0 6 0 C6.33 0.66 6.66 1.32 7 2 C6.67 2.66 6.34 3.32 6 4 C6.66 4 7.32 4 8 4 C7.67 4.66 7.34 5.32 7 6 C6.01 5.34 5.02 4.68 4 4 C4 3.34 4 2.68 4 2 C2.68 1.67 1.36 1.34 0 1 C0 0.67 0 0.34 0 0 Z " fill="#767677" transform="translate(199,67)"/>
<path d="M0 0 C2.125 0.9375 2.125 0.9375 4 2 C2.625 3.5 2.625 3.5 1 5 C0.34 5 -0.32 5 -1 5 C-1.33 3.68 -1.66 2.36 -2 1 C-1.34 0.67 -0.68 0.34 0 0 Z " fill="#202020" transform="translate(115,77)"/>
<path d="M0 0 C4 4.75 4 4.75 4 7 C3.01 7 2.02 7 1 7 C0.67 6.01 0.34 5.02 0 4 C-0.66 3.34 -1.32 2.68 -2 2 C-1.34 2 -0.68 2 0 2 C0 1.34 0 0.68 0 0 Z " fill="#1C1C1C" transform="translate(119,73)"/>
</svg>
