<svg width="17" height="17" viewBox="0 0 17 17" fill="none" xmlns="http://www.w3.org/2000/svg">
<path d="M6.37496 2.83333V14.875M10.625 14.1667V2.125M1.41663 12.3237V4.57515C1.41663 3.28198 2.56198 2.28862 3.84215 2.4715L6.04944 2.78683C6.26517 2.81765 6.48435 2.8151 6.69931 2.77928L10.3006 2.17906C10.5156 2.14323 10.7347 2.14068 10.9505 2.1715L13.7588 2.57269C14.8057 2.72225 15.5833 3.61883 15.5833 4.67634V12.4249C15.5833 13.718 14.4379 14.7114 13.1578 14.5285L10.9505 14.2132C10.7347 14.1824 10.5156 14.1849 10.3006 14.2207L6.69931 14.8209C6.48435 14.8568 6.26517 14.8593 6.04944 14.8285L3.2411 14.4273C2.19423 14.2778 1.41663 13.3812 1.41663 12.3237Z" stroke="#FDFDFD" stroke-width="1.5" stroke-linecap="round" stroke-linejoin="round"/>
</svg>
