<svg width="16" height="17" viewBox="0 0 16 17" fill="none" xmlns="http://www.w3.org/2000/svg">
<path d="M8.00004 1.83398C4.31725 1.83398 1.33337 4.81786 1.33337 8.50065C1.33337 12.1834 4.31725 15.1673 8.00004 15.1673C11.6828 15.1673 14.6667 12.1834 14.6667 8.50065C14.6667 4.81786 11.6828 1.83398 8.00004 1.83398ZM11.871 9.25334C11.871 9.43076 11.7258 9.57592 11.5484 9.57592H9.07531V12.049C9.07531 12.2265 8.93015 12.3716 8.75273 12.3716H7.24735C7.06993 12.3716 6.92477 12.2265 6.92477 12.049V9.57592H4.45165C4.27423 9.57592 4.12907 9.43076 4.12907 9.25334V7.74796C4.12907 7.57054 4.27423 7.42538 4.45165 7.42538H6.92477V4.95226C6.92477 4.77484 7.06993 4.62968 7.24735 4.62968H8.75273C8.93015 4.62968 9.07531 4.77484 9.07531 4.95226V7.42538H11.5484C11.7258 7.42538 11.871 7.57054 11.871 7.74796V9.25334Z" fill="black"/>
</svg>
