<svg width="20" height="18" viewBox="0 0 20 18" fill="none" xmlns="http://www.w3.org/2000/svg">
<path d="M8.22415 1.87054C8.98215 0.480655 10.9779 0.480654 11.7359 1.87054L12.9522 4.10091C13.2399 4.62836 13.7494 4.99856 14.34 5.10915L16.837 5.57676C18.3931 5.86817 19.0098 7.7662 17.9222 8.9166L16.1769 10.7627C15.7641 11.1992 15.5695 11.7982 15.6468 12.394L15.9737 14.9134C16.1775 16.4834 14.5629 17.6564 13.1327 16.9775L10.8377 15.8881C10.2949 15.6305 9.66509 15.6305 9.12234 15.8881L6.8273 16.9775C5.39711 17.6564 3.78255 16.4834 3.98627 14.9134L4.31318 12.394C4.39049 11.7982 4.19586 11.1992 3.78311 10.7627L2.03779 8.9166C0.950166 7.7662 1.56687 5.86817 3.12297 5.57676L5.62005 5.10915C6.21058 4.99856 6.72012 4.62836 7.00778 4.10091L8.22415 1.87054Z" fill="#F7FAF8" stroke="#363538" stroke-width="1.5" stroke-linejoin="round"/>
</svg>
