<svg width="17" height="17" viewBox="0 0 17 17" fill="none" xmlns="http://www.w3.org/2000/svg">
<path d="M5.83338 4.38672L6.19615 3.29842C6.37764 2.75396 6.88716 2.38672 7.46106 2.38672H9.53904C10.1129 2.38672 10.6225 2.75396 10.8039 3.29842L11.1667 4.38672H12.7547C13.2503 4.38672 13.5726 4.90826 13.351 5.35153L13.025 6.00356C12.8987 6.25614 12.8273 6.53259 12.8156 6.81473L12.5799 12.47C12.5353 13.5412 11.6538 14.3867 10.5816 14.3867H6.41845C5.34627 14.3867 4.46482 13.5412 4.42019 12.47L4.18455 6.81473C4.1728 6.53259 4.10143 6.25614 3.97514 6.00356L3.64912 5.35153C3.42749 4.90826 3.74982 4.38672 4.24541 4.38672H5.83338Z" fill="white"/>
<path d="M5.83338 4.38672L6.19615 3.29842C6.37764 2.75396 6.88716 2.38672 7.46106 2.38672H9.53904C10.1129 2.38672 10.6225 2.75396 10.8039 3.29842L11.1667 4.38672M5.83338 4.38672H4.24541C3.74982 4.38672 3.42749 4.90826 3.64912 5.35153L3.97514 6.00356C4.10143 6.25614 4.1728 6.53259 4.18455 6.81473L4.42019 12.47C4.46482 13.5412 5.34627 14.3867 6.41845 14.3867H10.5816C11.6538 14.3867 12.5353 13.5412 12.5799 12.47L12.8156 6.81473C12.8273 6.53259 12.8987 6.25614 13.025 6.00356L13.351 5.35153C13.5726 4.90826 13.2503 4.38672 12.7547 4.38672H11.1667M5.83338 4.38672H11.1667M10.1267 11.3867L10.2933 7.38672M6.87342 11.3867L6.70676 7.38672" stroke="#363538" stroke-width="1.5" stroke-linecap="round" stroke-linejoin="round"/>
</svg>
