<svg width="39" height="39" viewBox="0 0 39 39" fill="none" xmlns="http://www.w3.org/2000/svg">
<path d="M33.7626 16.25C33.9998 17.2952 34.125 18.383 34.125 19.5C34.125 27.5772 27.5772 34.125 19.5 34.125C18.3738 34.125 17.2774 33.9977 16.2243 33.7567C15.2071 33.524 14.1472 33.4917 13.1318 33.732C10.864 34.2686 7.73393 34.7011 5.59246 34.0927C4.69008 33.8363 4.60174 32.72 5.03663 31.8888C5.54252 30.9219 5.98259 29.7316 6.3152 28.6741C6.68768 27.4897 6.45136 26.2278 5.97732 25.0803C5.26695 23.3607 4.87502 21.4761 4.87502 19.5C4.87502 11.4228 11.4229 4.875 19.5 4.875C20.9097 4.875 22.2727 5.07443 23.5625 5.44662M13 17.0625H26M13 23.5625H19.5M32.5 3.25V6.5M32.5 6.5V9.75M32.5 6.5H29.25M32.5 6.5H35.75" stroke="#3C5B40" stroke-width="2.4375" stroke-linecap="round" stroke-linejoin="round"/>
</svg>
