<svg width="18" height="19" viewBox="0 0 18 19" fill="none" xmlns="http://www.w3.org/2000/svg">
<rect x="0.806152" y="0.851562" width="17.194" height="17.194" rx="8.59702" fill="#C0EACA"/>
<path d="M8.4021 10.4084L10.3922 12.3986C10.7202 12.7266 11.2819 12.5393 11.3475 12.0802L11.5333 10.7799C11.5677 10.5388 11.6794 10.3153 11.8517 10.1431L13.5765 8.41828C14.0161 7.97863 14.0161 7.26581 13.5765 6.82616L11.9844 5.23404C11.5447 4.79438 10.8319 4.79438 10.3922 5.23404L8.66745 6.95883C8.49521 7.13108 8.27174 7.24281 8.0306 7.27726L6.73037 7.463C6.27118 7.5286 6.08395 8.09028 6.41194 8.41828L8.4021 10.4084ZM8.4021 10.4084L4.81982 13.9907" stroke="black" stroke-width="0.73177" stroke-linecap="round" stroke-linejoin="round"/>
</svg>
