<svg width="18" height="18" viewBox="0 0 18 18" fill="none" xmlns="http://www.w3.org/2000/svg">
<rect width="18" height="18" rx="9" fill="#E8C55F"/>
<path d="M7.95204 10.0043L10.0355 12.0878C10.3789 12.4311 10.9669 12.2351 11.0355 11.7544L11.23 10.3932C11.2661 10.1408 11.383 9.90685 11.5633 9.72653L13.369 7.92089C13.8292 7.46063 13.8292 6.7144 13.369 6.25413L11.7022 4.58738C11.242 4.12712 10.4957 4.12712 10.0355 4.58738L8.22983 6.39303C8.04952 6.57335 7.81558 6.69032 7.56313 6.72638L6.20195 6.92084C5.72124 6.98951 5.52523 7.57752 5.8686 7.92089L7.95204 10.0043ZM7.95204 10.0043L4.20185 13.7545" stroke="white" stroke-width="0.766071" stroke-linecap="round" stroke-linejoin="round"/>
</svg>
