<svg width="29" height="30" viewBox="0 0 29 30" fill="none" xmlns="http://www.w3.org/2000/svg">
<path fill-rule="evenodd" clip-rule="evenodd" d="M4.79609 12.8064C4.79609 8.77605 7.99028 5.55166 11.8781 5.55166C15.766 5.55166 18.9602 8.77605 18.9602 12.8064C18.9602 16.8368 15.766 20.0612 11.8781 20.0612C7.99028 20.0612 4.79609 16.8368 4.79609 12.8064ZM11.8781 3.12573C6.60359 3.12573 2.37017 7.48362 2.37017 12.8064C2.37017 18.1293 6.60359 22.4871 11.8781 22.4871C14.0713 22.4871 16.0845 21.7337 17.6881 20.4708L24.0467 26.9617C24.5155 27.4402 25.2834 27.4482 25.762 26.9794C26.2405 26.5106 26.2484 25.7426 25.7796 25.2641L19.3899 18.7413C20.6423 17.0991 21.3861 15.0375 21.3861 12.8064C21.3861 7.48362 17.1527 3.12573 11.8781 3.12573Z" fill="white"/>
</svg>
