<svg xmlns="http://www.w3.org/2000/svg" width="36" height="36" viewBox="0 0 36 36" fill="none">
  <circle cx="18" cy="18" r="18" fill="#536F5A"/>
  <path d="M25.866 16.7009V14.2362C25.866 13.684 25.4183 13.2362 24.866 13.2362H19.3509C19.0857 13.2362 18.8314 13.1309 18.6438 12.9433L17.4973 11.7968C17.3097 11.6093 17.0554 11.5039 16.7902 11.5039H12.1412C11.589 11.5039 11.1412 11.9516 11.1412 12.5039V23.4964C11.1412 24.0487 11.589 24.4964 12.1412 24.4964H13.0065C13.4115 24.4964 13.7397 24.1681 13.7397 23.7632V23.7632C13.7397 23.6753 13.7555 23.5881 13.7864 23.5057L16.0949 17.3498C16.2413 16.9595 16.6144 16.7009 17.0312 16.7009H26.211C26.8935 16.7009 27.3755 17.3696 27.1596 18.0171L25.2278 23.8126C25.0917 24.221 24.7096 24.4964 24.2791 24.4964H12.8736" stroke="white" stroke-width="1.5" stroke-linecap="round" stroke-linejoin="round"/>
</svg>