<svg width="36" height="36" viewBox="0 0 36 36" fill="none" xmlns="http://www.w3.org/2000/svg">
<circle cx="18" cy="18" r="18" fill="#536F5A"/>
<path d="M22 13C22 15.2091 20.2091 17 18 17C15.7909 17 14 15.2091 14 13C14 10.7909 15.7909 9 18 9C20.2091 9 22 10.7909 22 13Z" stroke="white" stroke-width="1.5" stroke-linecap="round" stroke-linejoin="round"/>
<path d="M11 23V24C11 25.6569 12.3431 27 14 27H22C23.6569 27 25 25.6569 25 24V23C25 21.3431 23.6569 20 22 20H14C12.3431 20 11 21.3431 11 23Z" stroke="white" stroke-width="1.5" stroke-linecap="round" stroke-linejoin="round"/>
</svg>
