<svg xmlns="http://www.w3.org/2000/svg" width="36" height="36" viewBox="0 0 36 36" fill="none">
  <circle cx="18" cy="18" r="18" fill="#536F5A"/>
  <path fill-rule="evenodd" clip-rule="evenodd" d="M19.6763 10.3163C19.2488 8.56124 16.7512 8.56124 16.3237 10.3163C16.2599 10.58 16.1347 10.8249 15.9583 11.0311C15.7819 11.2373 15.5594 11.399 15.3087 11.5029C15.0581 11.6068 14.7865 11.6501 14.5159 11.6293C14.2454 11.6084 13.9836 11.5239 13.7519 11.3828C12.2083 10.4423 10.442 12.2085 11.3825 13.7521C11.9901 14.7488 11.4512 16.0494 10.3171 16.325C8.56096 16.7514 8.56096 19.25 10.3171 19.6753C10.5809 19.7392 10.8259 19.8645 11.0321 20.041C11.2383 20.2175 11.3999 20.4402 11.5038 20.691C11.6076 20.9418 11.6507 21.2135 11.6297 21.4841C11.6086 21.7547 11.5239 22.0165 11.3825 22.2482C10.442 23.7917 12.2083 25.558 13.7519 24.6175C13.9836 24.4761 14.2454 24.3914 14.516 24.3704C14.7866 24.3493 15.0583 24.3924 15.3091 24.4963C15.5599 24.6001 15.7826 24.7617 15.9591 24.9679C16.1356 25.1741 16.2609 25.4191 16.3248 25.6829C16.7512 27.439 19.2499 27.439 19.6752 25.6829C19.7393 25.4192 19.8647 25.1744 20.0413 24.9684C20.2178 24.7623 20.4405 24.6008 20.6912 24.497C20.9419 24.3932 21.2135 24.35 21.4841 24.3709C21.7546 24.3919 22.0164 24.4764 22.2481 24.6175C23.7917 25.558 25.558 23.7917 24.6175 22.2482C24.4763 22.0165 24.3918 21.7547 24.3709 21.4842C24.35 21.2136 24.3932 20.942 24.497 20.6913C24.6008 20.4406 24.7623 20.2179 24.9683 20.0414C25.1744 19.8648 25.4192 19.7394 25.6829 19.6753C27.439 19.2489 27.439 16.7502 25.6829 16.325C25.4191 16.2611 25.1741 16.1358 24.9679 15.9593C24.7617 15.7828 24.6001 15.5601 24.4962 15.3093C24.3924 15.0585 24.3493 14.7868 24.3703 14.5162C24.3914 14.2456 24.4761 13.9838 24.6175 13.7521C25.558 12.2085 23.7917 10.4423 22.2481 11.3828C22.0164 11.5242 21.7546 11.6089 21.484 11.6299C21.2134 11.651 20.9417 11.6078 20.6909 11.504C20.4401 11.4002 20.2174 11.2386 20.0409 11.0324C19.8644 10.8262 19.7391 10.5812 19.6752 10.3174L19.6763 10.3163Z" stroke="white" stroke-width="1.5"/>
  <path d="M20 18C20 19.1046 19.1046 20 18 20C16.8954 20 16 19.1046 16 18C16 16.8954 16.8954 16 18 16C19.1046 16 20 16.8954 20 18Z" stroke="white" stroke-width="1.5"/>
</svg>