<svg width="16" height="16" viewBox="0 0 16 16" fill="none" xmlns="http://www.w3.org/2000/svg">
<path d="M5.33333 4.66667V2M10.6667 4.66667V2M5.34 6.66667H5.33333M5.34 8.66667H5.33333M5.34 10.6667H5.33333M8.00667 8.66667H8M8.00667 6.66667H8M10.6733 8.66667H10.6667M8.00667 10.6667H8M10.6733 6.66667H10.6667M4 14H12C13.1046 14 14 13.1046 14 12V5.33333C14 4.22876 13.1046 3.33333 12 3.33333H4C2.89543 3.33333 2 4.22876 2 5.33333V12C2 13.1046 2.89543 14 4 14Z" stroke="#363538" stroke-width="1.5" stroke-linecap="round" stroke-linejoin="round"/>
</svg>
