<svg width="16" height="16" viewBox="0 0 16 16" fill="none" xmlns="http://www.w3.org/2000/svg">
<path d="M8.9917 10.9465L9.93451 11.8893C10.9759 12.9307 12.6643 12.9307 13.7057 11.8893C14.7471 10.8479 14.7471 9.15948 13.7057 8.11808L11.8201 6.23246C10.7787 5.19106 9.09029 5.19106 8.04889 6.23246C7.57068 6.71067 7.31206 7.32533 7.27304 7.95112M7.34177 5.05394L6.39896 4.11113C5.35757 3.06973 3.66913 3.06973 2.62773 4.11113C1.58633 5.15252 1.58633 6.84096 2.62773 7.88236L4.51335 9.76798C5.55474 10.8094 7.24318 10.8094 8.28458 9.76798C8.7628 9.28977 9.02141 8.67511 9.06043 8.04932" stroke="#363538" stroke-width="1.5" stroke-linecap="round" stroke-linejoin="round"/>
</svg>
