<svg width="16" height="16" viewBox="0 0 16 16" fill="none" xmlns="http://www.w3.org/2000/svg">
<path d="M4 12.6663H12M4 12.6663C2.89543 12.6663 2 11.7709 2 10.6663M4 12.6663C4 11.5618 3.10457 10.6663 2 10.6663M2 10.6663V5.33301M14 10.6663V5.33301M14 10.6663C14 11.7709 13.1046 12.6663 12 12.6663M14 10.6663C12.8954 10.6663 12 11.5618 12 12.6663M12 3.33301H4M12 3.33301C13.1046 3.33301 14 4.22844 14 5.33301M12 3.33301C12 4.43758 12.8954 5.33301 14 5.33301M4 3.33301C2.89543 3.33301 2 4.22844 2 5.33301M4 3.33301C4 4.43758 3.10457 5.33301 2 5.33301M10 7.99967C10 8.73605 9.10457 9.33301 8 9.33301C6.89543 9.33301 6 8.73605 6 7.99967C6 7.26329 6.89543 6.66634 8 6.66634C9.10457 6.66634 10 7.26329 10 7.99967Z" stroke="#363538" stroke-width="1.5"/>
</svg>
