<svg width="16" height="16" viewBox="0 0 16 16" fill="none" xmlns="http://www.w3.org/2000/svg">
<path d="M7.99967 1.33301C4.31688 1.33301 1.33301 4.31688 1.33301 7.99967C1.33301 11.6825 4.31688 14.6663 7.99967 14.6663C11.6825 14.6663 14.6663 11.6825 14.6663 7.99967C14.6663 4.31688 11.6825 1.33301 7.99967 1.33301ZM11.8706 8.75236C11.8706 8.92978 11.7255 9.07494 11.5481 9.07494H9.07494V11.5481C9.07494 11.7255 8.92978 11.8706 8.75236 11.8706H7.24699C7.06957 11.8706 6.92441 11.7255 6.92441 11.5481V9.07494H4.45129C4.27387 9.07494 4.12871 8.92978 4.12871 8.75236V7.24699C4.12871 7.06957 4.27387 6.92441 4.45129 6.92441H6.92441V4.45129C6.92441 4.27387 7.06957 4.12871 7.24699 4.12871H8.75236C8.92978 4.12871 9.07494 4.27387 9.07494 4.45129V6.92441H11.5481C11.7255 6.92441 11.8706 7.06957 11.8706 7.24699V8.75236Z" fill="white"/>
</svg>
