<svg width="31" height="29" viewBox="0 0 31 29" fill="none" xmlns="http://www.w3.org/2000/svg">
<path d="M9.9231 19.4959L27.0554 25.715C27.3909 25.8355 27.7478 25.8675 28.0969 25.8083C28.4458 25.7492 28.7771 25.6006 29.0631 25.3749C29.3513 25.1514 29.5866 24.8564 29.7497 24.5142C29.9126 24.1721 29.9984 23.7926 30 23.4071V3.41353C29.9984 3.02812 29.9126 2.64865 29.7497 2.3065C29.5866 1.96435 29.3513 1.66931 29.0631 1.44576C28.7751 1.22405 28.4432 1.07985 28.094 1.02494C27.7451 0.970063 27.3891 1.00604 27.0554 1.12994L9.9231 7.34909V19.4959Z" stroke="#305138" stroke-width="2" stroke-linecap="round" stroke-linejoin="round"/>
<path d="M1 13.423C1 14.2206 1.14425 15.0103 1.42452 15.7472C1.70478 16.484 2.11558 17.1536 2.63344 17.7175C3.67931 18.8565 5.09783 19.4964 6.57692 19.4964H9.92307V7.34961H6.57692C5.84456 7.34961 5.11936 7.50669 4.44272 7.81192C3.76611 8.11714 3.15131 8.56451 2.63344 9.12846C1.58757 10.2674 1 11.8122 1 13.423Z" stroke="#305138" stroke-width="2" stroke-linecap="round" stroke-linejoin="round"/>
<path d="M6.57693 19.4976V21.927C6.57693 22.7246 6.72118 23.5144 7.00145 24.2512C7.28172 24.988 7.69252 25.6575 8.21037 26.2214C8.72824 26.7855 9.34304 27.2327 10.0197 27.5381C10.6963 27.8432 11.4215 28.0004 12.1539 28.0004" stroke="#305138" stroke-width="2" stroke-linecap="round" stroke-linejoin="round"/>
</svg>
