<svg width="10" height="11" viewBox="0 0 10 11" fill="none" xmlns="http://www.w3.org/2000/svg">
<g clip-path="url(#clip0_48_12)">
<path d="M3.20099 7.39499L8.72754 9.75396C8.83576 9.79966 8.95089 9.8118 9.06351 9.78935C9.17605 9.76693 9.28292 9.71057 9.37518 9.62495C9.46815 9.54018 9.54405 9.42828 9.59667 9.29848C9.64921 9.16872 9.67689 9.02477 9.67741 8.87855V1.29478C9.67689 1.14859 9.64921 1.00465 9.59667 0.874872C9.54405 0.745091 9.46815 0.63318 9.37518 0.548385C9.28228 0.464288 9.17521 0.409591 9.06257 0.388763C8.95002 0.367948 8.83518 0.381594 8.72754 0.428591L3.20099 2.78758V7.39499Z" stroke="#525352" stroke-linecap="round" stroke-linejoin="round"/>
<path d="M0.322571 5.09148C0.322571 5.39402 0.369103 5.69356 0.459513 5.97307C0.549919 6.25255 0.682435 6.50654 0.849487 6.72043C1.18686 7.15246 1.64445 7.39518 2.12158 7.39518H3.20098V2.78778H2.12158C1.88533 2.78778 1.6514 2.84736 1.43313 2.96314C1.21486 3.07891 1.01654 3.2486 0.849487 3.46252C0.51211 3.89453 0.322571 4.48049 0.322571 5.09148Z" stroke="#525352" stroke-linecap="round" stroke-linejoin="round"/>
<path d="M2.12158 7.39565V8.31714C2.12158 8.61968 2.16811 8.91926 2.25852 9.19873C2.34893 9.47821 2.48145 9.73216 2.6485 9.94605C2.81555 10.16 3.01388 10.3296 3.23215 10.4455C3.45041 10.5612 3.68435 10.6208 3.9206 10.6208" stroke="#525352" stroke-linecap="round" stroke-linejoin="round"/>
</g>
<defs>
<clipPath id="clip0_48_12">
<rect width="10" height="11" fill="white"/>
</clipPath>
</defs>
</svg>
