<svg width="16" height="17" viewBox="0 0 16 17" fill="none" xmlns="http://www.w3.org/2000/svg">
<path d="M5.33332 4.94922L5.69609 3.86092C5.87758 3.31646 6.3871 2.94922 6.961 2.94922H9.03898C9.61288 2.94922 10.1224 3.31646 10.3039 3.86092L10.6667 4.94922M5.33332 4.94922H3.74535C3.24976 4.94922 2.92743 5.47076 3.14906 5.91403L3.47508 6.56606C3.60137 6.81864 3.67274 7.09509 3.68449 7.37723L3.92013 13.0325C3.96476 14.1037 4.84621 14.9492 5.91839 14.9492H10.0816C11.1538 14.9492 12.0352 14.1037 12.0799 13.0325L12.3155 7.37723C12.3272 7.09509 12.3986 6.81864 12.5249 6.56606L12.8509 5.91403C13.0726 5.47076 12.7502 4.94922 12.2546 4.94922H10.6667M5.33332 4.94922H10.6667M9.62662 11.9492L9.79328 7.94922M6.37336 11.9492L6.2067 7.94922" stroke="#FF3B30" stroke-linecap="round" stroke-linejoin="round"/>
</svg>
