<?xml version="1.0" standalone="no"?>
<!DOCTYPE svg PUBLIC "-//W3C//DTD SVG 20010904//EN"
 "http://www.w3.org/TR/2001/REC-SVG-20010904/DTD/svg10.dtd">
<svg version="1.0" xmlns="http://www.w3.org/2000/svg"
 width="512.000000pt" height="512.000000pt" viewBox="0 0 512.000000 512.000000"
 preserveAspectRatio="xMidYMid meet">
<metadata>
Created by potrace 1.14, written by Peter Selinger 2001-2017
</metadata>
<g transform="translate(0.000000,512.000000) scale(0.100000,-0.100000)"
fill="#000000" stroke="none">
<path d="M0 2560 l0 -2560 2560 0 2560 0 0 2560 0 2560 -2560 0 -2560 0 0
-2560z m4308 3 l-3 -1158 -1752 -3 -1753 -2 0 1160 0 1160 1755 0 1755 0 -2
-1157z"/>
<path d="M1240 3575 l0 -75 470 0 470 0 0 65 0 65 90 0 90 0 0 -65 0 -65 935
0 935 0 0 75 0 75 -1495 0 -1495 0 0 -75z"/>
<path d="M860 3590 c0 -5 16 -10 35 -10 35 0 35 0 35 -45 0 -45 0 -45 -35 -45
-19 0 -35 -4 -35 -10 0 -6 33 -10 80 -10 47 0 80 4 80 10 0 6 -16 10 -35 10
-35 0 -35 0 -35 45 0 45 0 45 35 45 19 0 35 5 35 10 0 6 -33 10 -80 10 -47 0
-80 -4 -80 -10z"/>
<path d="M1240 3375 l0 -75 470 0 470 0 0 65 0 65 90 0 90 0 0 -65 0 -65 935
0 935 0 0 75 0 75 -1495 0 -1495 0 0 -75z"/>
<path d="M860 3420 c0 -6 33 -10 80 -10 47 0 80 4 80 10 0 6 -33 10 -80 10
-47 0 -80 -4 -80 -10z"/>
<path d="M860 3360 c0 -6 28 -10 63 -11 l62 -1 -62 -21 c-35 -11 -63 -26 -63
-32 0 -6 28 -21 63 -32 l62 -21 -62 -1 c-35 -1 -63 -5 -63 -11 0 -6 33 -10 80
-10 103 0 106 18 10 49 -38 12 -70 24 -70 26 0 2 32 14 70 25 45 13 70 26 70
35 0 12 -17 15 -80 15 -47 0 -80 -4 -80 -10z"/>
<path d="M1240 3250 c0 -6 45 -10 115 -10 l115 0 0 -70 0 -70 240 0 240 0 0
70 0 70 325 0 325 0 0 -70 0 -70 240 0 240 0 0 70 0 70 369 0 370 0 21 -57
c11 -32 23 -64 25 -70 3 -10 49 -13 185 -13 l180 0 0 80 0 80 -1495 0 c-990 0
-1495 -3 -1495 -10z"/>
<path d="M860 3170 c0 -5 14 -10 30 -10 26 0 30 -4 30 -28 0 -35 26 -72 50
-72 31 0 50 28 50 76 l0 44 -80 0 c-47 0 -80 -4 -80 -10z m138 -47 c-3 -33 -6
-38 -28 -38 -22 0 -25 5 -28 38 -3 35 -2 37 28 37 30 0 31 -2 28 -37z"/>
<path d="M1240 3050 c0 -6 45 -10 115 -10 l114 0 3 -67 3 -68 238 -3 237 -2 0
70 0 70 325 0 325 0 0 -70 0 -70 460 0 460 0 0 69 0 68 269 2 c248 1 271 0
281 -16 11 -17 11 -17 6 0 -4 13 0 17 17 17 25 0 71 -43 81 -75 5 -19 3 -21
-30 -17 -29 4 -36 1 -41 -17 -7 -28 -25 -27 -63 5 -24 21 -28 29 -19 40 10 13
14 12 29 -1 9 -8 20 -12 23 -8 11 10 8 20 -5 21 -7 0 -21 2 -32 4 -10 2 -23
-4 -29 -13 -8 -13 -2 -23 27 -50 27 -24 35 -39 31 -52 -11 -26 -34 -20 -41 11
-9 35 -38 67 -77 83 -18 7 -38 20 -44 29 -12 13 -14 13 -26 -1 -6 -9 -23 -20
-37 -24 -14 -4 -36 -17 -49 -29 -21 -18 -23 -19 -18 -3 8 22 -17 64 -28 48 -9
-16 -25 -13 -25 3 0 8 8 16 18 18 14 3 13 5 -5 10 -16 4 -23 2 -23 -8 0 -8 -7
-14 -15 -14 -8 0 -15 7 -15 15 0 8 -5 15 -10 15 -6 0 -9 -5 -8 -11 2 -6 -3
-14 -9 -16 -7 -3 -13 2 -13 10 0 10 -7 13 -20 10 -33 -9 -64 -103 -39 -118 5
-4 9 -15 9 -26 0 -19 -19 -19 -1175 -19 -777 0 -1175 -3 -1175 -10 0 -6 45
-10 115 -10 l114 0 3 -67 3 -68 238 -3 237 -2 0 70 0 70 325 0 325 0 0 -70 0
-70 460 0 460 0 0 70 0 70 31 0 c21 0 40 -9 56 -26 23 -25 23 -26 3 -31 -27
-7 -25 -16 10 -56 28 -33 29 -35 12 -51 -17 -15 -120 -16 -1205 -16 -785 0
-1187 -3 -1187 -10 0 -6 45 -10 115 -10 l115 0 0 -65 0 -65 240 0 240 0 0 65
0 65 325 0 325 0 0 -65 0 -65 240 0 240 0 0 65 0 65 261 0 260 0 -8 -22 c-4
-13 -8 -51 -8 -85 l0 -63 -1172 0 -1173 0 0 -80 0 -80 470 0 469 0 3 68 3 67
88 3 87 3 0 -71 0 -70 520 0 520 0 0 70 0 70 99 0 c112 0 125 -9 79 -52 -30
-28 -37 -72 -18 -109 11 -19 -6 -19 -1155 -19 l-1165 0 0 -80 0 -80 470 0 469
0 3 68 3 67 88 3 87 3 0 -71 0 -70 520 0 520 0 0 70 0 70 83 0 82 -1 20 -42
c31 -65 44 -68 305 -68 256 0 274 4 302 61 9 19 23 41 30 49 8 10 9 16 1 18
-8 3 -8 12 0 32 13 35 2 77 -27 104 -28 26 -23 47 10 47 13 0 24 5 24 10 0 6
-8 10 -17 10 -15 0 -18 10 -18 63 0 34 -4 72 -8 85 -7 19 -5 22 17 22 14 0 26
5 26 10 0 6 -14 10 -32 10 -17 0 -39 7 -49 16 -17 16 -17 18 13 55 17 22 28
42 25 46 -4 3 3 18 15 32 l23 26 -24 -20 c-17 -15 -23 -16 -19 -5 2 8 14 19
26 25 25 11 29 25 9 25 -18 0 -51 29 -66 58 -9 18 -9 22 2 22 7 0 19 -6 26
-12 22 -20 5 51 -19 85 l-21 27 46 0 c25 0 45 5 45 10 0 7 -505 10 -1495 10
-990 0 -1495 -3 -1495 -10z m2390 -50 c0 -6 -6 -13 -14 -16 -9 -4 -13 -22 -11
-67 1 -34 0 -50 -2 -34 -2 15 -8 27 -12 27 -10 0 -7 43 4 78 7 22 35 31 35 12z
m89 -25 c8 -8 11 -23 7 -38 -5 -23 -11 -25 -48 -23 -42 2 -43 2 -43 -31 0 -40
17 -38 27 3 7 28 7 28 4 -4 -3 -40 16 -38 25 4 l7 29 1 -27 c1 -28 -41 -78
-66 -78 -22 0 -33 33 -15 46 14 10 15 18 6 51 -6 22 -7 48 -4 58 12 35 67 40
99 10z m44 -26 c-6 -6 -9 -18 -6 -25 3 -8 0 -14 -5 -14 -16 0 -24 18 -12 25 6
4 8 11 5 16 -10 15 6 32 18 20 8 -8 8 -14 0 -22z m115 -37 l3 -52 -31 0 c-28
0 -31 3 -25 23 4 12 16 36 27 52 l20 30 -31 -33 c-17 -18 -31 -41 -31 -52 0
-13 -7 -20 -20 -20 -45 0 -15 65 45 98 32 18 40 9 43 -46z m72 43 c54 -28 82
-95 40 -95 -13 0 -20 7 -20 20 0 10 -14 35 -31 55 -34 39 -32 42 11 20z m-16
-27 c9 -12 16 -33 16 -45 0 -18 -6 -23 -25 -23 -23 0 -25 4 -25 45 0 50 11 57
34 23z m206 -6 c0 -3 -8 -15 -17 -26 -17 -20 -17 -20 0 -7 9 8 20 11 23 8 3
-3 -3 -11 -14 -18 -19 -12 -18 -13 14 -46 19 -18 34 -36 34 -38 0 -15 -33 -1
-62 25 -18 17 -36 30 -40 30 -16 0 -7 27 17 50 13 12 22 27 19 31 -3 5 2 6 10
3 9 -3 16 -9 16 -12z m-410 -37 c0 -14 -4 -25 -10 -25 -11 0 -14 33 -3 43 11
11 13 8 13 -18z m23 -5 c-3 -11 -7 -20 -9 -20 -2 0 -4 9 -4 20 0 11 4 20 9 20
5 0 7 -9 4 -20z m407 -15 c-7 -9 -15 -13 -17 -11 -7 7 7 26 19 26 6 0 6 -6 -2
-15z m-260 -15 c0 -5 -4 -10 -10 -10 -5 0 -10 5 -10 10 0 6 5 10 10 10 6 0 10
-4 10 -10z m290 -5 c-7 -8 -17 -15 -22 -15 -6 0 -5 7 2 15 7 8 17 15 22 15 6
0 5 -7 -2 -15z m-436 -34 c3 -22 9 -46 12 -55 4 -11 0 -16 -13 -16 -10 0 -35
-8 -55 -19 l-37 -18 -27 28 c-15 16 -26 31 -23 33 110 99 133 106 143 47z
m124 27 c9 -9 15 -9 24 0 7 7 34 12 60 12 l48 0 0 -40 c0 -32 -7 -46 -39 -78
-67 -67 -69 -126 -6 -155 73 -33 88 -42 93 -54 6 -19 -18 -16 -63 7 -22 11
-48 20 -58 20 -21 0 -59 18 -69 34 -4 6 -8 27 -8 46 0 37 -18 69 -62 112 -22
21 -28 37 -28 68 l0 40 48 0 c26 0 53 -5 60 -12z m240 -30 c26 -24 49 -44 51
-45 3 -2 -8 -16 -23 -32 l-27 -28 -37 18 c-20 11 -45 19 -55 19 -13 0 -17 5
-13 18 3 9 8 34 12 55 8 50 31 49 92 -5z m-322 -112 c-7 -35 13 -64 34 -51 6
4 10 -5 10 -22 0 -16 7 -38 15 -50 14 -19 13 -21 -8 -27 -12 -3 -42 -22 -65
-41 l-42 -37 0 46 c0 25 -3 46 -8 46 -4 0 -6 -20 -4 -45 2 -25 1 -62 -3 -81
-5 -28 -9 -33 -19 -24 -8 6 -30 11 -49 12 -32 1 -38 6 -52 40 -49 124 38 263
169 267 27 1 28 -1 22 -33z m223 8 c-16 -44 -22 -49 -30 -28 -15 38 -10 54 16
54 22 0 24 -2 14 -26z m27 -39 c-10 -25 -22 -45 -27 -45 -12 0 -11 9 7 64 11
33 20 44 27 37 7 -7 5 -24 -7 -56z m82 13 c38 -40 62 -95 62 -142 0 -46 -27
-114 -51 -126 -29 -16 -75 -11 -100 10 -26 21 -29 20 61 23 54 2 55 2 57 35 3
31 2 32 -37 32 l-40 0 0 50 c0 28 -4 50 -10 50 -5 0 -10 -13 -10 -30 0 -27 -2
-29 -24 -19 l-23 11 35 69 c20 38 38 69 42 69 3 0 20 -15 38 -32z m-293 12 c9
-15 -16 -43 -27 -32 -10 10 0 42 12 42 5 0 12 -5 15 -10z m143 -15 c14 -30 15
-35 5 -35 -19 1 -45 30 -40 45 9 22 22 18 35 -10z m-9 -61 c-17 -21 -29 -17
-29 11 0 23 2 24 21 15 16 -9 18 -14 8 -26z m27 -22 c-8 -9 -19 -13 -22 -9
-10 9 16 38 28 31 6 -4 4 -13 -6 -22z m-129 -78 c-45 -23 -107 -87 -107 -111
0 -7 -7 -13 -15 -13 -19 0 -19 13 -1 48 27 51 123 116 155 104 9 -3 -2 -13
-32 -28z m125 5 c16 -9 19 -17 13 -45 -5 -28 -1 -38 19 -58 14 -15 20 -27 13
-29 -7 -2 13 -2 43 1 30 2 61 9 67 14 18 15 61 -16 69 -49 10 -37 -14 -76 -56
-90 l-35 -12 40 -1 c30 0 36 -3 25 -10 -8 -5 -67 -10 -131 -10 -102 0 -119 -2
-143 -21 l-26 -20 -26 20 c-24 19 -41 21 -143 21 -64 0 -123 5 -131 10 -11 7
-5 10 25 11 38 1 39 1 11 9 -67 21 -87 80 -41 125 29 30 71 33 80 6 8 -25 35
-36 35 -15 0 13 6 14 28 8 15 -4 42 -8 60 -8 l34 1 -4 -69 -3 -68 27 0 c15 0
31 7 36 16 8 14 10 14 21 0 15 -18 59 -21 81 -5 13 9 12 10 -2 5 -16 -5 -18 2
-18 59 l0 65 28 -4 c15 -2 19 -1 10 1 -9 2 -22 11 -28 19 -17 20 -44 18 -65
-6 l-18 -20 -14 20 c-17 24 -46 26 -63 5 -12 -14 -40 -21 -40 -10 0 19 35 68
63 89 65 49 121 65 159 45z m146 -31 c-3 -8 -24 -13 -58 -13 -34 0 -55 5 -57
13 -4 9 12 12 57 12 45 0 61 -3 58 -12z m-108 -28 c0 -5 -4 -10 -10 -10 -5 0
-10 5 -10 10 0 6 5 10 10 10 6 0 10 -4 10 -10z m40 0 c0 -5 -4 -10 -10 -10 -5
0 -10 5 -10 10 0 6 5 10 10 10 6 0 10 -4 10 -10z m40 0 c0 -5 -4 -10 -10 -10
-5 0 -10 5 -10 10 0 6 5 10 10 10 6 0 10 -4 10 -10z m40 0 c0 -5 -4 -10 -10
-10 -5 0 -10 5 -10 10 0 6 5 10 10 10 6 0 10 -4 10 -10z m-460 -71 c0 -6 -4
-7 -10 -4 -5 3 -10 11 -10 16 0 6 5 7 10 4 6 -3 10 -11 10 -16z m160 1 c0 -5
-4 -10 -10 -10 -5 0 -10 5 -10 10 0 6 5 10 10 10 6 0 10 -4 10 -10z m100 0 c0
-5 -4 -10 -10 -10 -5 0 -10 5 -10 10 0 6 5 10 10 10 6 0 10 -4 10 -10z m-70
-70 c0 -39 -17 -93 -21 -65 -4 31 -4 121 -1 129 9 17 22 -21 22 -64z m45 0
c-2 -72 -10 -85 -23 -36 -11 37 2 111 17 102 4 -3 6 -32 6 -66z m-78 20 c0
-16 -4 -30 -9 -30 -4 0 -8 14 -8 30 0 17 4 30 8 30 5 0 9 -13 9 -30z m103 0
c0 -16 -4 -30 -8 -30 -5 0 -9 14 -9 30 0 17 4 30 9 30 4 0 8 -13 8 -30z m-100
-50 c0 -5 -4 -10 -10 -10 -5 0 -10 5 -10 10 0 6 5 10 10 10 6 0 10 -4 10 -10z
m100 0 c0 -5 -4 -10 -10 -10 -5 0 -10 5 -10 10 0 6 5 10 10 10 6 0 10 -4 10
-10z m-100 -30 c0 -5 -4 -10 -10 -10 -5 0 -10 5 -10 10 0 6 5 10 10 10 6 0 10
-4 10 -10z m100 0 c0 -5 -4 -10 -10 -10 -5 0 -10 5 -10 10 0 6 5 10 10 10 6 0
10 -4 10 -10z m-86 -61 l26 -20 26 20 c24 19 40 21 150 21 68 0 124 -4 124 -9
0 -5 -9 -19 -19 -32 -18 -23 -28 -24 -153 -29 -73 -3 -191 -3 -261 0 -120 5
-130 7 -148 29 -10 13 -19 27 -19 32 0 5 56 9 124 9 110 0 126 -2 150 -21z"/>
<path d="M3815 2800 c3 -5 15 -10 26 -10 11 0 17 5 14 10 -3 6 -15 10 -26 10
-11 0 -17 -4 -14 -10z"/>
<path d="M3925 2800 c-3 -5 3 -10 14 -10 11 0 23 5 26 10 3 6 -3 10 -14 10
-11 0 -23 -4 -26 -10z"/>
<path d="M3700 2582 c0 -27 -4 -32 -24 -32 -27 0 -33 -15 -32 -75 1 -35 4 -40
32 -45 30 -7 30 -6 32 39 3 98 2 134 -3 139 -3 3 -5 -9 -5 -26z m-10 -52 c0
-5 -7 -10 -15 -10 -8 0 -15 5 -15 10 0 6 7 10 15 10 8 0 15 -4 15 -10z m3 -27
c-7 -2 -21 -2 -30 0 -10 3 -4 5 12 5 17 0 24 -2 18 -5z m7 -23 c0 -5 -11 -10
-25 -10 -14 0 -25 5 -25 10 0 6 11 10 25 10 14 0 25 -4 25 -10z m-7 -27 c-7
-2 -21 -2 -30 0 -10 3 -4 5 12 5 17 0 24 -2 18 -5z"/>
<path d="M3752 2591 c2 -7 7 -12 11 -12 12 1 9 15 -3 20 -7 2 -11 -2 -8 -8z"/>
<path d="M3880 2440 c0 -5 5 -10 10 -10 6 0 10 5 10 10 0 6 -4 10 -10 10 -5 0
-10 -4 -10 -10z"/>
<path d="M3705 2260 c-27 -7 -27 -8 -5 -8 14 0 39 4 55 8 27 7 27 8 5 8 -14 0
-38 -4 -55 -8z"/>
<path d="M4025 2260 c17 -4 41 -8 55 -8 22 0 22 1 -5 8 -16 4 -41 8 -55 8 -22
0 -22 -1 5 -8z"/>
<path d="M877 3018 c-26 -21 -31 -61 -9 -88 15 -19 31 -24 79 -28 38 -3 63 0
67 7 5 7 -9 11 -43 11 -68 0 -101 14 -101 43 0 37 19 47 87 47 35 0 63 4 63
10 0 15 -123 12 -143 -2z"/>
<path d="M860 2860 c0 -5 28 -10 62 -12 l63 -3 -63 -40 c-84 -54 -81 -65 18
-65 47 0 80 4 80 10 0 6 -29 10 -66 10 l-66 0 63 43 c34 24 65 49 67 55 3 9
-20 12 -77 12 -45 0 -81 -4 -81 -10z"/>
<path d="M860 2710 c0 -6 11 -15 25 -20 20 -8 25 -16 25 -45 0 -29 -4 -36 -25
-41 -14 -3 -25 -12 -25 -19 0 -15 152 45 157 62 2 6 -20 20 -49 31 -29 11 -65
25 -80 31 -18 7 -28 7 -28 1z m109 -76 c-48 -18 -49 -17 -49 15 l0 29 41 -16
42 -16 -34 -12z"/>
<path d="M860 2540 c0 -6 28 -10 63 -10 l62 0 -62 -41 c-86 -57 -83 -69 17
-69 97 0 107 18 13 22 l-67 3 67 44 c37 24 67 47 67 52 0 5 -36 9 -80 9 -47 0
-80 -4 -80 -10z"/>
<path d="M1030 2081 c-30 -27 -52 -53 -47 -57 4 -4 31 14 59 42 l51 49 -37
-68 c-21 -38 -35 -71 -32 -74 5 -5 30 2 101 32 l40 16 -50 -45 c-27 -24 -47
-47 -43 -52 7 -6 108 79 116 97 8 19 -21 16 -77 -6 -33 -14 -63 -25 -65 -25
-3 0 10 27 30 60 31 54 37 81 16 80 -4 0 -32 -23 -62 -49z"/>
<path d="M1240 2060 c0 -7 505 -10 1495 -10 990 0 1495 3 1495 10 0 7 -505 10
-1495 10 -990 0 -1495 -3 -1495 -10z"/>
<path d="M1162 1954 c-60 -44 -89 -84 -37 -50 24 16 27 16 55 0 23 -14 28 -23
23 -45 -3 -14 -1 -29 5 -33 5 -3 14 25 21 64 13 81 14 110 3 110 -5 0 -36 -21
-70 -46z m64 14 c-3 -7 -7 -25 -10 -41 -6 -26 -7 -27 -31 -11 l-24 16 27 24
c30 26 43 30 38 12z"/>
<path d="M1275 1902 c-10 -37 -20 -73 -23 -79 -2 -7 1 -13 7 -13 6 0 14 14 18
30 7 39 12 41 57 28 38 -12 40 -19 20 -72 -3 -9 -1 -16 5 -16 8 0 51 120 51
144 0 19 -19 2 -25 -23 -6 -28 -7 -28 -47 -18 -39 10 -40 11 -35 43 10 61 -10
44 -28 -24z"/>
<path d="M1610 1920 c-28 -28 -12 -56 40 -70 44 -12 53 -21 44 -44 -9 -24 -60
-20 -85 7 -19 20 -21 21 -17 2 8 -46 95 -58 118 -16 15 29 3 49 -38 62 -52 16
-65 28 -51 45 16 20 56 17 68 -3 5 -10 13 -14 18 -10 11 11 -34 47 -58 47 -10
0 -28 -9 -39 -20z"/>
<path d="M1830 1922 c-33 -27 -19 -57 33 -74 31 -9 42 -18 42 -33 0 -30 -58
-34 -78 -5 -9 13 -18 17 -21 11 -11 -17 32 -51 62 -51 47 0 80 53 50 78 -7 6
-29 14 -48 19 -25 7 -35 15 -35 29 0 26 41 31 66 8 27 -24 35 -10 10 15 -26
26 -52 27 -81 3z"/>
<path d="M3075 1915 c-50 -49 -17 -145 50 -145 38 0 75 42 75 85 0 43 -37 85
-75 85 -14 0 -37 -11 -50 -25z m89 -11 c9 -8 16 -31 16 -49 0 -39 -22 -65 -55
-65 -33 0 -55 26 -55 65 0 39 22 65 55 65 13 0 31 -7 39 -16z"/>
<path d="M1486 1921 c-14 -23 -56 -144 -52 -149 3 -2 11 7 17 22 10 21 19 26
49 26 30 0 39 -5 50 -27 26 -56 20 -5 -8 62 -27 67 -44 86 -56 66z m32 -51
c11 -29 10 -30 -18 -30 -28 0 -28 1 -18 35 13 39 22 38 36 -5z"/>
<path d="M1750 1850 c0 -47 4 -80 10 -80 6 0 10 33 10 80 0 47 -4 80 -10 80
-6 0 -10 -33 -10 -80z"/>
<path d="M1952 1918 c3 -7 13 -43 23 -80 10 -38 22 -68 26 -68 5 0 18 33 30
73 l22 72 20 -72 c11 -40 24 -73 28 -73 5 0 15 24 23 53 25 88 29 107 18 107
-5 0 -15 -27 -22 -60 -7 -33 -16 -58 -20 -55 -3 2 -12 29 -19 60 -17 77 -40
72 -62 -15 l-17 -65 -10 40 c-6 22 -14 52 -18 68 -3 15 -11 27 -16 27 -6 0 -8
-6 -6 -12z"/>
<path d="M2185 1860 c-15 -38 -25 -76 -22 -82 3 -8 9 -1 16 15 9 22 17 27 46
27 29 0 37 -5 45 -25 5 -14 15 -25 21 -25 6 0 9 6 6 13 -46 115 -61 147 -72
147 -7 0 -25 -31 -40 -70z m64 -12 c1 -5 -11 -8 -25 -8 -20 0 -25 4 -20 16 3
9 9 28 13 42 l6 27 13 -35 c7 -19 13 -38 13 -42z"/>
<path d="M2690 1850 c0 -47 4 -80 10 -80 6 0 10 33 10 80 0 47 -4 80 -10 80
-6 0 -10 -33 -10 -80z"/>
<path d="M2750 1850 c0 -47 4 -80 10 -80 6 0 10 29 10 67 l0 68 45 -68 c25
-37 50 -65 55 -62 13 8 13 155 0 155 -5 0 -10 -28 -12 -62 l-3 -63 -40 63
c-54 84 -65 81 -65 -18z"/>
<path d="M2920 1849 c0 -51 4 -78 10 -74 6 3 10 21 10 40 0 32 2 34 38 38 l37
4 -37 1 c-35 2 -38 4 -38 31 0 28 3 30 43 34 40 3 40 4 -10 5 l-53 2 0 -81z"/>
<path d="M3230 1850 c0 -47 4 -80 10 -80 6 0 10 18 10 40 0 33 3 40 20 40 21
0 45 -20 71 -60 9 -14 20 -22 24 -18 4 4 -4 22 -18 41 -24 32 -25 34 -6 45 22
14 25 42 7 60 -7 7 -36 12 -65 12 l-53 0 0 -80z m108 46 c5 -24 -14 -36 -55
-36 -30 0 -33 3 -33 31 0 29 1 30 42 27 33 -2 44 -8 46 -22z"/>
<path d="M3402 1848 l2 -83 5 75 6 75 23 -67 c13 -37 27 -70 32 -73 4 -3 19
26 33 63 l26 67 0 -67 c1 -38 5 -68 11 -68 6 0 10 33 10 80 0 119 -27 104 -72
-40 -3 -8 -15 15 -27 53 -33 97 -52 91 -49 -15z"/>
<path d="M3621 1908 c-5 -13 -18 -47 -30 -76 -24 -61 -24 -62 -11 -62 5 0 12
11 16 25 5 21 12 25 43 25 31 0 40 -5 50 -26 6 -15 14 -24 18 -21 10 10 -51
157 -65 157 -7 0 -16 -10 -21 -22z m33 -66 c-35 -8 -41 2 -26 38 l15 35 12
-35 c10 -29 10 -36 -1 -38z"/>
<path d="M3733 1923 c27 -4 27 -5 27 -79 0 -43 4 -74 10 -74 6 0 10 31 10 74
l0 75 33 4 c17 2 1 4 -38 4 -38 0 -58 -2 -42 -4z"/>
<path d="M3860 1856 c0 -41 5 -78 10 -81 6 -4 10 23 10 74 0 47 -4 81 -10 81
-6 0 -10 -31 -10 -74z"/>
<path d="M3920 1850 c0 -47 4 -80 10 -80 6 0 10 13 10 29 0 16 7 35 16 42 15
12 19 10 33 -11 30 -45 49 -65 56 -58 4 4 -7 25 -24 46 -17 22 -31 43 -31 48
0 4 12 21 27 36 39 41 10 34 -37 -8 l-40 -36 0 36 c0 20 -4 36 -10 36 -6 0
-10 -33 -10 -80z"/>
<path d="M4116 1921 c-7 -11 -56 -139 -56 -146 0 -3 4 -5 10 -5 5 0 12 11 16
25 5 21 12 25 43 25 31 0 40 -5 51 -27 26 -57 20 -2 -8 63 -28 66 -44 85 -56
65z m31 -46 c11 -34 11 -35 -17 -35 -28 0 -28 1 -17 35 6 19 13 35 17 35 4 0
11 -16 17 -35z"/>
<path d="M1090 1642 c-29 -24 -16 -51 32 -68 18 -6 33 -17 33 -25 0 -20 -44
-24 -51 -5 -7 17 -34 22 -34 7 0 -19 32 -41 59 -41 61 0 70 67 11 86 -42 14
-52 34 -16 34 14 0 26 -4 26 -10 0 -5 7 -10 15 -10 22 0 18 17 -7 34 -29 21
-41 20 -68 -2z"/>
<path d="M2455 1635 c-27 -26 -31 -54 -14 -88 16 -29 28 -37 62 -37 62 0 89
79 42 125 -13 14 -33 25 -45 25 -11 0 -32 -11 -45 -25z m80 -49 c0 -46 -24
-68 -52 -50 -21 13 -27 36 -19 70 6 21 12 25 39 22 30 -3 32 -5 32 -42z"/>
<path d="M2745 1635 c-27 -26 -31 -54 -14 -88 16 -29 28 -37 62 -37 62 0 89
79 42 125 -13 14 -33 25 -45 25 -11 0 -32 -11 -45 -25z m80 -49 c0 -46 -24
-68 -52 -50 -21 13 -27 36 -19 70 6 21 12 25 39 22 30 -3 32 -5 32 -42z"/>
<path d="M2924 1650 c-54 -21 -48 -114 9 -134 44 -16 81 3 85 42 3 30 1 32
-27 32 -21 0 -31 -5 -31 -15 0 -8 7 -15 15 -15 20 0 19 -16 -1 -24 -24 -9 -31
-8 -48 10 -22 21 -20 50 5 75 19 19 22 19 44 5 30 -20 35 -20 35 -1 0 9 -12
20 -26 25 -29 12 -32 12 -60 0z"/>
<path d="M4106 1639 c-50 -40 -23 -129 40 -129 42 0 64 18 64 50 0 27 -3 30
-30 30 -20 0 -30 -5 -30 -15 0 -8 7 -15 16 -15 22 0 11 -24 -13 -28 -28 -4
-45 21 -41 60 2 26 8 34 26 36 13 2 30 -2 38 -9 10 -8 18 -9 25 -2 7 7 4 16
-12 27 -31 21 -51 20 -83 -5z"/>
<path d="M870 1580 c0 -56 3 -70 15 -70 12 0 15 14 15 70 0 56 -3 70 -15 70
-12 0 -15 -14 -15 -70z"/>
<path d="M930 1580 c0 -78 17 -96 22 -22 l3 47 30 -47 c42 -68 55 -63 55 22 0
78 -17 96 -22 23 l-3 -48 -28 48 c-41 69 -57 63 -57 -23z"/>
<path d="M1205 1640 c3 -5 15 -10 26 -10 17 0 19 -7 19 -60 0 -47 3 -60 15
-60 12 0 15 13 15 60 0 53 2 60 20 60 11 0 20 5 20 10 0 6 -27 10 -61 10 -37
0 -58 -4 -54 -10z"/>
<path d="M1340 1580 c0 -56 3 -70 15 -70 12 0 15 14 15 70 0 56 -3 70 -15 70
-12 0 -15 -14 -15 -70z"/>
<path d="M1390 1640 c0 -5 9 -10 20 -10 18 0 20 -7 20 -60 0 -47 3 -60 15 -60
12 0 15 13 15 60 0 53 2 60 20 60 11 0 20 5 20 10 0 6 -25 10 -55 10 -30 0
-55 -4 -55 -10z"/>
<path d="M1530 1592 c0 -32 5 -63 12 -70 17 -17 64 -15 82 4 22 21 23 124 1
124 -12 0 -15 -13 -15 -55 0 -40 -4 -57 -15 -61 -27 -11 -45 16 -45 67 0 27
-4 49 -10 49 -6 0 -10 -26 -10 -58z"/>
<path d="M1670 1640 c0 -5 9 -10 20 -10 18 0 20 -7 20 -60 0 -47 3 -60 15 -60
12 0 15 13 15 60 0 53 2 60 20 60 11 0 20 5 20 10 0 6 -25 10 -55 10 -30 0
-55 -4 -55 -10z"/>
<path d="M1860 1640 c0 -5 9 -10 20 -10 18 0 20 -7 20 -60 0 -47 3 -60 15 -60
12 0 15 13 15 60 0 53 2 60 20 60 11 0 20 5 20 10 0 6 -25 10 -55 10 -30 0
-55 -4 -55 -10z"/>
<path d="M2000 1580 l0 -70 55 0 c30 0 55 5 55 10 0 6 -21 10 -46 10 -41 0
-45 2 -42 23 2 18 10 23 41 25 50 4 48 22 -3 22 -29 0 -40 4 -40 15 0 11 11
15 40 15 22 0 40 5 40 10 0 6 -22 10 -50 10 l-50 0 0 -70z"/>
<path d="M2140 1580 c0 -40 4 -70 10 -70 6 0 10 11 10 24 0 13 6 29 14 35 11
9 18 5 36 -24 12 -19 28 -35 36 -35 19 0 18 4 -13 50 l-26 41 23 24 c35 38 2
31 -37 -7 l-33 -32 0 32 c0 18 -4 32 -10 32 -6 0 -10 -30 -10 -70z"/>
<path d="M2282 1583 c4 -80 25 -100 30 -26 l3 48 28 -47 c41 -70 57 -64 57 22
0 54 -3 70 -14 70 -10 0 -16 -14 -18 -42 l-3 -43 -24 43 c-15 26 -32 42 -43
42 -17 0 -19 -7 -16 -67z"/>
<path d="M2600 1580 l0 -70 50 0 c28 0 50 5 50 10 0 6 -16 10 -35 10 l-35 0 0
60 c0 47 -3 60 -15 60 -12 0 -15 -14 -15 -70z"/>
<path d="M3050 1579 c0 -52 3 -70 13 -67 7 3 13 29 15 71 2 55 0 67 -13 67
-12 0 -15 -14 -15 -71z"/>
<path d="M3180 1580 l0 -70 43 0 c24 0 48 5 55 12 15 15 16 58 2 58 -7 0 -7 7
0 21 17 31 -4 49 -56 49 l-44 0 0 -70z m80 35 c0 -10 -10 -15 -30 -15 -20 0
-30 5 -30 15 0 10 10 15 30 15 20 0 30 -5 30 -15z m3 -52 c12 -11 -14 -33 -39
-33 -17 0 -24 6 -24 20 0 15 7 20 28 20 16 0 32 -3 35 -7z"/>
<path d="M3350 1605 c-27 -64 -34 -95 -21 -95 5 0 15 9 21 20 14 27 54 26 73
-2 27 -41 30 -10 4 54 -31 80 -50 85 -77 23z m49 -27 c1 -5 -8 -8 -19 -8 -17
0 -18 3 -8 26 11 23 13 24 19 7 4 -10 8 -21 8 -25z"/>
<path d="M3480 1580 c0 -78 17 -96 22 -22 l3 47 30 -47 c43 -68 55 -63 55 22
0 78 -17 96 -22 23 l-3 -48 -28 48 c-41 69 -57 63 -57 -23z"/>
<path d="M3630 1580 l0 -70 40 0 c51 0 80 27 80 73 0 45 -26 67 -78 67 l-42 0
0 -70z m88 6 c3 -40 -8 -56 -40 -56 -15 0 -18 9 -18 51 0 49 1 50 28 47 24 -3
27 -8 30 -42z"/>
<path d="M3780 1596 c0 -36 5 -60 16 -70 18 -19 65 -21 82 -4 14 14 16 128 2
128 -5 0 -10 -21 -10 -47 0 -56 -10 -76 -36 -71 -16 3 -20 14 -22 61 -2 42 -7
57 -17 57 -11 0 -15 -14 -15 -54z"/>
<path d="M3930 1580 c0 -56 3 -70 15 -70 11 0 15 12 15 48 l0 47 31 -48 c16
-27 35 -47 42 -44 7 2 13 29 15 70 2 55 0 67 -13 67 -11 0 -15 -11 -15 -47 l0
-47 -30 47 c-44 69 -60 63 -60 -23z"/>
</g>
</svg>
