<?xml version="1.0" standalone="no"?>
<!DOCTYPE svg PUBLIC "-//W3C//DTD SVG 20010904//EN"
 "http://www.w3.org/TR/2001/REC-SVG-20010904/DTD/svg10.dtd">
<svg version="1.0" xmlns="http://www.w3.org/2000/svg"
 width="400.000000pt" height="400.000000pt" viewBox="0 0 400.000000 400.000000"
 preserveAspectRatio="xMidYMid meet">
<metadata>
Created by potrace 1.14, written by Peter Selinger 2001-2017
</metadata>
<g transform="translate(0.000000,400.000000) scale(0.100000,-0.100000)"
fill="#000000" stroke="none">
<path d="M1790 3785 c-419 -54 -774 -229 -1067 -527 -153 -156 -251 -293 -340
-478 -204 -423 -235 -914 -86 -1350 47 -137 70 -189 139 -311 192 -342 534
-645 884 -782 616 -242 1276 -150 1785 249 213 167 396 393 512 634 160 333
212 679 157 1055 -95 650 -579 1225 -1204 1429 -251 82 -538 111 -780 81z
m1530 -1785 l0 -870 -1320 0 -1320 0 0 870 0 870 1320 0 1320 0 0 -870z"/>
<path d="M1010 2760 l0 -60 355 0 355 0 0 50 0 50 70 0 70 0 0 -50 0 -50 700
0 700 0 0 60 0 60 -1125 0 -1125 0 0 -60z"/>
<path d="M725 2770 c3 -5 17 -10 31 -10 20 0 24 -5 24 -30 0 -27 -3 -30 -30
-30 -16 0 -30 -4 -30 -10 0 -6 27 -10 60 -10 33 0 60 4 60 10 0 6 -11 10 -25
10 -21 0 -25 5 -25 30 0 25 4 30 25 30 14 0 25 5 25 10 0 6 -27 10 -61 10 -37
0 -58 -4 -54 -10z"/>
<path d="M1010 2610 l0 -60 355 0 355 0 0 50 0 50 70 0 70 0 0 -50 0 -50 700
0 700 0 0 60 0 60 -1125 0 -1125 0 0 -60z"/>
<path d="M748 2643 c17 -2 47 -2 65 0 17 2 3 4 -33 4 -36 0 -50 -2 -32 -4z"/>
<path d="M720 2600 c0 -5 19 -10 43 -11 l42 -1 -42 -15 c-24 -8 -43 -18 -43
-22 0 -4 19 -14 43 -22 l42 -14 -43 -3 c-61 -5 -42 -22 24 -22 67 0 69 17 6
40 -23 8 -42 17 -42 21 0 3 20 12 45 19 67 19 59 40 -15 40 -33 0 -60 -4 -60
-10z"/>
<path d="M1010 2513 c0 -5 39 -8 87 -8 l88 0 3 -52 3 -53 174 0 174 0 3 53 3
52 245 0 245 0 2 -30 c0 -16 2 -40 2 -52 1 -23 1 -23 175 -23 l175 0 3 53 3
52 280 0 280 0 19 -52 19 -53 133 0 134 0 0 60 0 60 -1125 0 c-619 0 -1125 -3
-1125 -7z"/>
<path d="M743 2453 c21 -3 27 -10 27 -28 0 -13 7 -31 16 -39 25 -25 54 -4 54
39 l0 35 -62 -1 c-35 -1 -51 -4 -35 -6z m87 -28 c0 -29 -28 -45 -41 -24 -17
27 -10 49 16 49 20 0 25 -5 25 -25z"/>
<path d="M1095 2361 l90 -6 3 -53 3 -52 172 2 172 3 5 50 5 50 245 0 245 0 1
-25 c1 -14 2 -37 3 -53 l1 -27 343 2 342 3 3 53 3 52 40 0 c32 0 39 -3 37 -16
-2 -10 3 -19 11 -22 9 -3 11 0 6 8 -14 23 18 28 184 29 157 0 167 -1 191 -22
14 -12 19 -15 13 -7 -20 22 -16 28 20 33 17 2 -476 4 -1098 4 -621 -1 -1089
-3 -1040 -6z"/>
<path d="M732 2338 c-13 -13 -15 -37 -6 -62 5 -12 19 -16 63 -14 l56 2 -52 3
c-42 3 -53 8 -58 25 -10 28 7 41 63 49 l47 6 -50 2 c-28 0 -56 -4 -63 -11z"/>
<path d="M2840 2343 c0 -14 40 -38 58 -35 6 2 12 0 12 -3 0 -11 -41 -45 -55
-45 -8 0 -15 -9 -15 -20 0 -11 6 -20 12 -20 7 0 3 -10 -9 -22 -18 -18 -24 -19
-37 -8 -9 7 -16 18 -16 24 0 8 -234 10 -892 7 -491 -3 -852 -7 -803 -10 l90
-6 3 -52 3 -53 175 0 174 0 0 55 0 55 248 -2 247 -3 3 -53 3 -52 342 2 342 3
3 53 c3 44 6 52 23 52 10 0 28 -9 39 -20 17 -17 17 -21 4 -28 -13 -7 -12 -12
6 -35 12 -15 18 -32 14 -39 -5 -10 -4 -10 6 -1 11 10 11 16 -3 31 -23 25 -22
28 16 62 45 41 63 39 71 -9 3 -21 13 -41 21 -45 11 -4 14 -13 9 -31 -5 -21 -2
-27 15 -32 14 -3 21 -13 21 -29 0 -12 5 -26 10 -29 6 -4 -9 -20 -32 -35 -38
-26 -44 -27 -50 -12 -4 11 -7 5 -7 -18 -2 -60 -21 -72 -21 -13 0 41 4 52 18
56 16 4 16 5 0 6 -11 1 -18 9 -18 23 0 29 -9 18 -12 -15 -2 -19 -8 -27 -23
-28 -17 -1 -16 -2 5 -9 24 -8 24 -8 3 -9 -18 -1 -23 -7 -23 -26 0 -27 -17 -34
-26 -12 -4 12 -158 14 -892 13 l-887 -1 -3 -57 -3 -58 356 0 355 0 0 50 0 50
70 0 70 0 0 -50 0 -50 384 0 385 0 3 48 3 47 78 3 c42 2 77 -1 77 -6 0 -5 -9
-17 -21 -28 -16 -15 -20 -27 -16 -56 3 -25 1 -38 -6 -38 -7 0 -400 0 -874 0
l-863 0 0 -60 0 -60 355 0 355 0 0 50 0 50 70 0 70 0 0 -50 0 -50 385 0 385 0
0 50 0 50 118 1 c83 1 104 4 74 9 -46 7 -62 21 -62 56 0 23 29 54 50 54 7 0
23 -8 34 -17 20 -17 20 -17 7 0 -15 20 -9 22 21 6 11 -6 18 -7 15 -2 -10 15
30 72 65 93 51 31 66 23 20 -10 -38 -27 -83 -90 -65 -90 5 0 14 14 21 30 24
52 148 108 160 71 2 -6 27 -11 58 -11 31 0 53 -4 49 -9 -3 -5 -25 -8 -49 -7
-35 2 -43 -1 -38 -13 3 -9 1 -12 -6 -7 -17 11 -15 -3 6 -27 20 -26 53 -33 82
-17 32 17 60 -3 60 -45 0 -39 -9 -47 -65 -56 l-40 -6 50 -2 c34 -2 44 -5 31
-10 -17 -6 -17 -8 -4 -14 20 -7 30 13 35 73 3 37 0 50 -16 64 -27 25 -26 36 2
36 17 0 19 2 7 10 -9 6 -13 23 -12 52 1 24 -2 50 -8 58 -7 11 -8 6 -4 -17 8
-41 -4 -112 -16 -93 -4 7 -6 19 -3 27 4 9 -4 13 -26 13 -29 0 -31 3 -32 38 -1
23 -3 28 -6 15 -5 -24 -11 -27 -30 -15 -9 6 -6 20 13 57 27 54 38 57 69 21 15
-18 26 -21 45 -15 l25 7 -26 1 c-15 1 -32 8 -39 16 -11 13 -9 19 7 38 35 38
35 54 1 54 -30 0 -30 0 -9 -17 22 -16 22 -16 3 -33 -17 -16 -24 -16 -61 -5
-40 13 -41 14 -35 48 9 46 9 46 47 32 29 -10 30 -10 13 3 -11 8 -28 15 -38 15
-10 0 -18 6 -18 13 0 9 -2 9 -8 0 -4 -7 -25 -11 -47 -10 -38 2 -40 4 -43 36
-4 39 15 39 35 0 7 -13 13 -18 13 -10 0 8 -7 23 -17 33 -26 28 4 22 33 -8 15
-14 24 -19 22 -12 -3 7 -26 27 -51 45 -39 27 -49 31 -53 18 -4 -8 -12 -15 -19
-15 -8 0 -28 -12 -45 -26 -17 -15 -34 -24 -37 -20 -4 3 2 12 12 20 20 15 11
41 -11 32 -8 -3 -14 1 -14 10 0 9 -5 12 -11 8 -6 -3 -15 0 -20 7 -6 10 -9 10
-9 2z m118 -83 c-20 -40 -48 -54 -48 -25 0 17 43 65 58 65 5 0 1 -18 -10 -40z
m38 -26 c-8 -20 -36 -17 -36 4 0 10 8 29 18 42 l17 25 3 -28 c2 -16 1 -35 -2
-43z m-103 1 c-3 -8 -9 -15 -14 -15 -10 0 -12 24 -3 33 11 11 24 -3 17 -18z
m207 -51 c0 -13 -16 -41 -36 -63 -28 -32 -35 -47 -32 -73 3 -29 8 -35 43 -46
46 -15 80 -42 53 -42 -9 0 -29 7 -44 15 -16 8 -38 15 -48 15 -30 0 -56 30 -56
64 0 20 -10 40 -30 61 -16 17 -32 45 -36 62 l-6 32 48 3 c27 2 70 1 97 0 42
-4 47 -6 47 -28z m0 -78 c0 -33 -25 -53 -45 -36 -8 7 -12 17 -8 23 4 6 12 3
21 -9 14 -18 14 -18 8 7 -3 14 -3 29 1 33 13 13 23 5 23 -18z m16 -43 c-18
-34 -22 -8 -4 34 8 21 12 24 15 11 2 -9 -3 -29 -11 -45z m-155 14 c-13 -13
-26 -3 -16 12 3 6 11 8 17 5 6 -4 6 -10 -1 -17z m103 -38 c-10 -16 -24 -9 -24
12 0 18 2 19 15 9 8 -7 12 -16 9 -21z m18 -21 c-7 -7 -12 -8 -12 -2 0 14 12
26 19 19 2 -3 -1 -11 -7 -17z m-225 -84 c-3 -3 -12 -4 -19 -1 -8 3 -5 6 6 6
11 1 17 -2 13 -5z m299 -13 c8 7 14 7 14 1 0 -5 7 -12 14 -15 11 -4 13 -1 10
11 -4 13 -3 13 7 -2 10 -16 9 -22 -7 -33 -34 -25 -98 2 -73 30 8 8 16 11 17 6
2 -6 10 -5 18 2z m-299 -7 c-3 -3 -12 -4 -19 -1 -8 3 -5 6 6 6 11 1 17 -2 13
-5z m0 -20 c-3 -3 -12 -4 -19 -1 -8 3 -5 6 6 6 11 1 17 -2 13 -5z"/>
<path d="M2950 2180 c0 -6 7 -10 15 -10 8 0 15 2 15 4 0 2 -7 6 -15 10 -8 3
-15 1 -15 -4z"/>
<path d="M3038 2173 c7 -3 16 -2 19 1 4 3 -2 6 -13 5 -11 0 -14 -3 -6 -6z"/>
<path d="M3100 2315 c-11 -13 -8 -21 15 -45 15 -16 32 -27 38 -23 5 3 -5 14
-22 25 -17 11 -31 23 -31 27 0 16 14 20 29 8 14 -11 14 -10 2 6 -16 21 -16 21
-31 2z"/>
<path d="M2785 2308 c5 -12 2 -18 -6 -18 -12 0 -12 -2 0 -9 8 -5 10 -14 6 -21
-5 -8 -4 -11 3 -6 6 3 12 -2 15 -11 2 -10 2 0 -1 22 -2 22 -8 45 -14 50 -6 6
-7 4 -3 -7z"/>
<path d="M3165 2280 c-3 -4 5 -10 16 -13 23 -6 21 -34 -2 -29 -9 1 -8 -3 4
-11 9 -8 17 -19 17 -26 0 -14 27 -15 35 -1 4 6 11 8 16 5 5 -4 9 -2 9 4 0 13
-37 24 -52 15 -10 -6 -10 -4 0 8 9 11 10 18 2 23 -16 10 -12 28 5 21 8 -3 15
-1 15 4 0 10 -59 10 -65 0z"/>
<path d="M2822 2240 c0 -14 2 -19 5 -12 2 6 2 18 0 25 -3 6 -5 1 -5 -13z"/>
<path d="M720 2220 c0 -5 21 -10 48 -10 l47 0 -47 -31 c-27 -17 -48 -35 -48
-40 0 -5 27 -9 60 -9 68 0 82 17 18 22 l-42 3 42 28 c23 15 42 32 42 37 0 6
-27 10 -60 10 -33 0 -60 -4 -60 -10z"/>
<path d="M2854 2114 c-19 -15 -19 -15 1 -6 11 5 27 12 35 15 13 5 13 6 -1 6
-8 1 -24 -6 -35 -15z"/>
<path d="M738 2099 c30 -16 31 -64 0 -72 -12 -4 -19 -9 -15 -13 8 -8 117 35
117 47 0 10 -61 37 -99 44 -26 5 -26 5 -3 -6z m73 -29 c17 0 1 -17 -21 -23
-15 -4 -20 0 -20 15 0 14 5 18 16 14 9 -3 20 -6 25 -6z"/>
<path d="M1095 2061 l90 -6 3 -47 3 -48 165 0 c90 0 167 0 172 0 4 0 8 22 10
50 l3 50 247 -2 247 -3 1 -48 1 -48 174 -2 174 -1 3 52 3 52 200 0 200 0 -7
-22 c-8 -27 -2 -23 15 10 l12 22 -903 -2 c-497 -1 -862 -4 -813 -7z"/>
<path d="M2773 1975 c0 -22 2 -30 4 -17 2 12 2 30 0 40 -3 9 -5 -1 -4 -23z"/>
<path d="M765 1981 l50 -6 -48 -33 c-26 -18 -45 -37 -42 -43 8 -12 115 -12
115 1 0 6 -21 10 -47 10 l-48 0 48 31 c26 17 47 35 47 40 0 5 -28 8 -62 7
l-63 -1 50 -6z"/>
<path d="M2954 1879 c-5 -9 -8 -80 -5 -128 1 -14 42 0 48 16 5 12 8 12 22 0
29 -25 39 -27 45 -11 4 12 2 15 -9 10 -10 -4 -15 1 -15 14 0 11 6 20 13 20 9
0 9 2 -1 8 -16 11 -12 61 5 55 17 -7 17 2 -1 16 -11 10 -19 7 -35 -10 -12 -13
-21 -18 -21 -11 0 17 -37 35 -46 21z m34 -21 c24 -24 9 -98 -20 -98 -13 0 -9
40 5 41 10 0 10 2 0 6 -14 5 -18 63 -5 63 4 0 13 -5 20 -12z m42 -44 c0 -27
-4 -43 -10 -39 -17 11 -11 85 7 85 2 0 3 -21 3 -46z"/>
<path d="M2770 1741 c0 -5 9 -7 20 -4 11 3 20 7 20 9 0 2 -9 4 -20 4 -11 0
-20 -4 -20 -9z"/>
<path d="M2863 1683 c26 -2 67 -2 90 0 23 2 2 3 -48 3 -49 0 -68 -1 -42 -3z"/>
<path d="M3063 1683 c26 -2 67 -2 90 0 23 2 2 3 -48 3 -49 0 -68 -1 -42 -3z"/>
<path d="M850 1634 c-22 -20 -38 -39 -35 -42 3 -3 22 10 41 29 39 36 39 35 9
-23 -23 -46 -17 -55 24 -34 48 25 59 18 21 -13 -19 -16 -33 -32 -30 -34 8 -8
95 71 87 79 -4 4 -26 0 -49 -9 -23 -9 -43 -15 -45 -13 -3 2 5 22 16 45 12 22
21 43 21 46 0 14 -24 2 -60 -31z"/>
<path d="M1010 1620 c0 -7 382 -10 1125 -10 743 0 1125 3 1125 10 0 7 -382 10
-1125 10 -743 0 -1125 -3 -1125 -10z"/>
<path d="M940 1533 c-41 -32 -42 -35 -17 -29 36 8 57 -7 57 -43 1 -42 18 -4
26 57 8 64 -2 66 -66 15z m53 -5 c-5 -24 -8 -26 -26 -17 -20 11 -20 12 4 30
13 9 24 17 25 16 1 -1 0 -14 -3 -29z"/>
<path d="M1034 1494 c-9 -30 -13 -58 -10 -61 3 -3 8 6 12 21 11 46 74 27 68
-21 -4 -25 -3 -24 9 7 25 63 29 80 18 80 -6 0 -11 -6 -11 -14 0 -22 -15 -27
-43 -17 -19 8 -23 15 -20 35 9 47 -6 27 -23 -30z"/>
<path d="M1289 1514 c-17 -20 -1 -46 32 -54 13 -3 25 -14 27 -23 3 -13 -4 -17
-27 -17 -17 0 -31 5 -31 10 0 6 -5 10 -12 10 -7 0 -3 -10 10 -22 18 -18 26
-20 49 -12 41 14 37 45 -10 67 -21 10 -35 22 -32 27 8 14 39 12 53 -2 7 -7 12
-8 12 -2 0 32 -49 44 -71 18z"/>
<path d="M1454 1516 c-15 -12 -17 -18 -8 -33 6 -10 20 -20 30 -22 25 -4 45
-21 38 -32 -8 -13 -48 -11 -62 3 -6 6 -14 9 -18 6 -3 -4 6 -14 21 -24 21 -14
30 -15 51 -5 35 16 27 42 -19 64 -21 10 -35 22 -32 27 9 14 55 12 55 -2 0 -6
3 -8 6 -5 9 8 -15 37 -30 37 -7 0 -21 -6 -32 -14z"/>
<path d="M2275 1522 c-9 -10 -5 -112 5 -112 6 0 10 11 10 24 0 19 6 26 28 29
l27 4 -27 2 c-21 1 -28 6 -28 21 0 16 7 20 32 20 17 0 28 3 25 6 -8 9 -64 13
-72 6z"/>
<path d="M2395 1516 c-13 -9 -19 -26 -19 -51 0 -60 53 -86 94 -45 26 26 25 51
-1 84 -23 29 -46 33 -74 12z m71 -30 c11 -45 2 -61 -36 -61 -31 0 -35 3 -38
28 -5 43 4 57 37 57 24 0 32 -5 37 -24z"/>
<path d="M2516 1523 c-10 -10 -7 -113 4 -113 6 0 10 11 10 25 0 34 24 32 50
-6 26 -35 40 -31 17 4 -14 21 -14 26 -1 39 18 17 9 48 -15 49 -9 0 -25 2 -37
4 -12 3 -24 2 -28 -2z m72 -30 c-2 -11 -14 -19 -31 -21 -22 -3 -27 1 -27 17 0
17 6 21 31 21 24 0 30 -4 27 -17z"/>
<path d="M2637 1524 c-11 -11 -8 -114 3 -114 6 0 10 19 11 43 l1 42 15 -42 c8
-24 18 -43 23 -43 5 0 14 16 20 35 16 48 30 53 28 10 -1 -19 2 -38 5 -42 4 -3
7 20 7 51 0 69 -17 71 -42 5 l-16 -44 -11 28 c-6 16 -11 32 -11 36 0 14 -26
42 -33 35z"/>
<path d="M3082 1497 l-32 -32 0 28 c0 15 -4 27 -10 27 -5 0 -10 -25 -10 -55 0
-52 14 -79 17 -34 3 36 14 36 44 -1 32 -38 40 -27 9 13 -25 32 -25 35 3 57 12
10 20 21 16 24 -3 3 -19 -9 -37 -27z"/>
<path d="M1173 1465 c-12 -30 -17 -55 -13 -55 4 0 10 7 14 15 8 21 53 19 65
-2 5 -10 12 -16 14 -13 8 8 -37 110 -49 110 -6 0 -20 -25 -31 -55z m47 3 c0
-10 -7 -18 -15 -18 -16 0 -19 17 -9 45 5 13 8 14 15 3 5 -7 9 -21 9 -30z"/>
<path d="M1390 1465 c0 -30 5 -55 10 -55 6 0 10 25 10 55 0 30 -4 55 -10 55
-5 0 -10 -25 -10 -55z"/>
<path d="M1559 1465 c22 -71 27 -74 41 -28 6 21 14 45 17 53 3 9 11 -5 19 -32
8 -27 19 -48 24 -48 6 0 10 3 10 8 0 4 7 28 15 55 8 26 10 47 5 47 -4 0 -12
-15 -15 -32 -12 -53 -19 -56 -30 -14 -16 56 -31 55 -47 -1 l-14 -48 -13 48
c-8 26 -17 47 -21 47 -4 0 0 -25 9 -55z"/>
<path d="M1725 1478 c-9 -24 -19 -49 -22 -55 -3 -7 0 -13 6 -13 6 0 11 7 11
15 0 21 50 19 66 -2 7 -10 14 -13 14 -6 0 20 -39 103 -49 103 -5 0 -17 -19
-26 -42z m40 1 c8 -24 1 -34 -19 -26 -9 4 -12 14 -9 26 7 27 20 27 28 0z"/>
<path d="M2100 1465 c0 -30 5 -55 10 -55 6 0 10 25 10 55 0 30 -4 55 -10 55
-5 0 -10 -25 -10 -55z"/>
<path d="M2152 1458 l2 -63 3 54 4 54 35 -51 c19 -29 37 -52 39 -52 3 0 4 28
3 63 -1 62 -1 62 -7 14 l-6 -47 -28 45 c-16 25 -33 45 -38 45 -5 0 -8 -28 -7
-62z"/>
<path d="M2796 1488 c-8 -18 -17 -44 -20 -58 -6 -23 -6 -23 7 -7 18 22 63 22
71 1 4 -9 9 -14 12 -11 8 7 -37 107 -48 107 -5 0 -15 -15 -22 -32z m44 -30 c0
-4 -9 -8 -21 -8 -15 0 -19 4 -15 16 3 9 6 21 6 27 1 13 30 -22 30 -35z"/>
<path d="M2887 1513 c19 -4 23 -12 26 -61 l3 -57 2 57 c2 50 5 57 25 61 12 2
0 4 -28 4 -27 0 -40 -2 -28 -4z"/>
<path d="M2993 1465 c0 -33 2 -45 4 -27 2 18 2 45 0 60 -2 15 -4 0 -4 -33z"/>
<path d="M3160 1474 c-21 -48 -27 -82 -9 -51 13 22 69 24 69 2 0 -8 5 -15 11
-15 6 0 9 6 6 13 -31 78 -41 97 -48 97 -6 0 -19 -21 -29 -46z m44 -15 c-7 -12
-34 -11 -34 0 0 5 3 17 7 27 6 16 7 16 19 -1 7 -10 11 -22 8 -26z"/>
<path d="M730 1260 c0 -27 5 -50 10 -50 6 0 10 23 10 50 0 28 -4 50 -10 50 -5
0 -10 -22 -10 -50z"/>
<path d="M781 1258 c2 -48 2 -50 8 -18 l7 35 20 -32 c28 -48 44 -42 44 17 0
28 -4 50 -10 50 -5 0 -10 -15 -10 -32 l0 -33 -21 33 c-12 17 -25 32 -30 32 -5
0 -8 -24 -8 -52z"/>
<path d="M887 1297 c-7 -19 2 -30 37 -45 22 -10 26 -16 17 -25 -9 -9 -16 -8
-32 1 -24 15 -32 12 -20 -7 11 -18 61 -17 72 0 13 21 6 32 -32 51 -28 13 -31
17 -16 23 10 4 24 1 34 -6 14 -12 16 -12 11 1 -6 20 -64 26 -71 7z"/>
<path d="M995 1301 c13 -5 20 -18 21 -37 3 -51 4 -54 14 -54 6 0 10 20 10 44
0 34 4 46 18 49 9 3 -5 5 -33 5 -34 0 -44 -2 -30 -7z"/>
<path d="M1093 1260 c0 -30 2 -43 4 -27 2 15 2 39 0 55 -2 15 -4 2 -4 -28z"/>
<path d="M1133 1303 c13 -3 17 -15 17 -49 0 -32 4 -44 15 -44 11 0 15 12 15
44 0 34 4 46 18 49 9 3 -5 5 -33 5 -27 0 -42 -2 -32 -5z"/>
<path d="M1220 1275 c0 -46 30 -78 62 -66 19 7 24 17 26 55 2 26 -1 46 -7 46
-5 0 -11 -19 -13 -42 -2 -31 -8 -44 -20 -46 -15 -3 -18 4 -18 42 0 34 -4 46
-15 46 -10 0 -15 -11 -15 -35z"/>
<path d="M1347 1300 c18 -7 22 -17 21 -45 -1 -19 2 -38 5 -42 4 -3 7 13 7 36
0 34 4 43 23 51 17 7 12 9 -28 9 -39 0 -45 -2 -28 -9z"/>
<path d="M1493 1303 c13 -3 17 -15 17 -49 0 -24 5 -44 10 -44 6 0 10 20 10 44
0 34 4 46 18 49 9 3 -3 5 -28 5 -25 0 -37 -2 -27 -5z"/>
<path d="M1580 1260 l0 -50 43 2 c36 1 38 2 10 5 -25 3 -33 9 -33 24 0 15 5
18 25 15 14 -3 25 0 25 5 0 5 -11 9 -25 9 -38 0 -32 28 8 33 28 3 26 4 -10 5
l-43 2 0 -50z"/>
<path d="M1690 1258 l1 -53 16 29 16 30 14 -27 c7 -15 18 -27 23 -27 14 0 12
12 -6 38 -15 21 -15 25 2 43 13 15 14 19 3 19 -8 0 -20 -9 -27 -20 -14 -23
-34 -27 -26 -6 3 8 1 17 -5 21 -7 4 -11 -12 -11 -47z"/>
<path d="M1800 1260 c0 -27 5 -50 10 -50 6 0 10 15 10 33 l0 32 20 -32 c28
-46 40 -41 40 17 0 28 -4 50 -10 50 -5 0 -10 -15 -10 -32 l0 -33 -21 33 c-12
17 -25 32 -30 32 -5 0 -9 -22 -9 -50z"/>
<path d="M1922 1298 c-21 -21 -14 -66 13 -84 23 -15 27 -15 50 0 17 11 25 26
25 44 0 35 -16 52 -50 52 -14 0 -31 -5 -38 -12z m62 -21 c14 -22 -4 -52 -30
-52 -23 0 -31 39 -13 61 14 17 28 14 43 -9z"/>
<path d="M2030 1261 l0 -51 43 1 c28 2 33 3 15 6 -20 3 -28 12 -33 32 -3 16
-5 34 -3 41 2 7 -3 15 -9 17 -9 3 -13 -10 -13 -46z"/>
<path d="M2142 1298 c-35 -35 6 -106 52 -89 27 10 44 56 30 79 -13 21 -65 27
-82 10z m62 -20 c14 -23 -3 -53 -30 -53 -20 0 -31 33 -20 61 7 19 35 14 50 -8z"/>
<path d="M2261 1296 c-7 -8 -11 -27 -9 -43 6 -52 89 -65 96 -14 3 17 -1 21
-25 20 -17 -1 -21 -3 -10 -6 19 -5 22 -18 7 -28 -20 -12 -50 6 -50 29 0 34 26
53 51 38 16 -10 19 -9 19 3 0 20 -63 20 -79 1z"/>
<path d="M2370 1260 c0 -27 5 -50 10 -50 6 0 10 23 10 50 0 28 -4 50 -10 50
-5 0 -10 -22 -10 -50z"/>
<path d="M2470 1261 l0 -51 39 0 c40 0 59 19 44 43 -4 7 -7 21 -8 32 0 16 -8
21 -37 23 l-38 3 0 -50z m60 24 c0 -8 -9 -15 -20 -15 -11 0 -20 7 -20 15 0 8
9 15 20 15 11 0 20 -7 20 -15z m5 -50 c0 -5 -10 -11 -22 -13 -16 -2 -23 2 -23
13 0 11 7 15 23 13 12 -2 22 -7 22 -13z"/>
<path d="M2594 1265 c-9 -25 -13 -49 -9 -53 4 -4 10 -1 12 6 3 6 15 12 28 12
13 0 25 -6 28 -12 2 -7 8 -10 12 -6 11 10 -25 98 -41 98 -7 0 -20 -20 -30 -45z
m40 0 c3 -9 0 -15 -9 -15 -9 0 -12 6 -9 15 4 8 7 15 9 15 2 0 5 -7 9 -15z"/>
<path d="M2701 1258 c2 -48 2 -50 8 -18 l7 35 20 -32 c28 -48 44 -42 44 17 0
28 -4 50 -10 50 -5 0 -10 -15 -10 -32 l0 -33 -21 33 c-12 17 -25 32 -30 32 -5
0 -8 -24 -8 -52z"/>
<path d="M2810 1260 c0 -50 0 -50 33 -50 40 0 57 15 57 50 0 35 -17 50 -57 50
-33 0 -33 0 -33 -50z m58 28 c17 -17 15 -55 -4 -62 -29 -11 -34 -6 -34 34 0
41 14 52 38 28z"/>
<path d="M2928 1294 c-2 -10 -2 -33 0 -51 4 -34 24 -45 60 -32 18 7 22 16 22
54 0 25 -4 45 -10 45 -5 0 -10 -18 -10 -40 0 -28 -5 -43 -16 -47 -20 -7 -36
15 -31 44 5 28 -9 54 -15 27z"/>
<path d="M3040 1260 c0 -27 5 -50 10 -50 6 0 10 12 10 28 l1 27 20 -27 c30
-40 39 -35 39 22 0 28 -4 50 -10 50 -5 0 -10 -15 -10 -32 l0 -33 -21 33 c-12
17 -25 32 -30 32 -5 0 -9 -22 -9 -50z"/>
<path d="M3161 1296 c-7 -8 -11 -27 -9 -43 6 -52 89 -65 96 -14 3 17 -2 21
-24 21 -27 0 -27 -1 -8 -14 18 -14 18 -15 2 -21 -29 -11 -48 2 -48 34 0 33 22
46 52 30 16 -9 19 -8 16 3 -6 19 -62 22 -77 4z"/>
</g>
</svg>
