<svg width="28" height="28" viewBox="0 0 28 28" fill="none" xmlns="http://www.w3.org/2000/svg">
<path d="M9.3334 12.25H18.6667M9.3334 16.9167H14.0001M3.50007 14C3.50007 8.20101 8.20108 3.5 14.0001 3.5C19.7991 3.5 24.5001 8.20101 24.5001 14C24.5001 19.799 19.7991 24.5 14.0001 24.5C13.1915 24.5 12.4043 24.4086 11.6483 24.2356C10.9179 24.0685 10.157 24.0453 9.42798 24.2178C7.79986 24.6031 5.55262 24.9136 4.01515 24.4768C3.36729 24.2928 3.30387 23.4913 3.6161 22.8945C3.9793 22.2003 4.29525 21.3458 4.53404 20.5865C4.80147 19.7362 4.6318 18.8302 4.29146 18.0063C3.78146 16.7718 3.50007 15.4188 3.50007 14Z" stroke="#363538" stroke-width="2" stroke-linecap="round" stroke-linejoin="round"/>
</svg>
