<svg width="36" height="34" viewBox="0 0 36 34" fill="none" xmlns="http://www.w3.org/2000/svg">
<path d="M17.6412 34.005C9.15518 34.005 0 28.6822 0 17.0025C0 5.32278 9.15518 0 17.6412 0C22.3557 0 26.7051 1.55121 29.9292 4.37989C33.4271 7.48231 35.2824 11.8622 35.2824 17.0025C35.2824 22.1428 33.4271 26.4922 29.9292 29.5947C26.7051 32.4233 22.3253 34.005 17.6412 34.005Z" fill="url(#paint0_radial_525_2478)"/>
<path d="M32.2075 6.89526C33.8287 9.51103 34.6742 12.6256 34.6742 16.09C34.6742 21.2303 32.8189 25.5797 29.321 28.6822C26.097 31.5108 21.7171 33.0925 17.033 33.0925C11.5399 33.0925 5.77916 30.8569 2.37866 26.1151C5.65141 31.4865 11.8076 34.0049 17.6413 34.0049C22.3254 34.0049 26.7053 32.4233 29.9294 29.5946C33.4272 26.4922 35.2826 22.1427 35.2826 17.0025C35.2826 13.1275 34.2271 9.6844 32.2075 6.89526Z" fill="#EB8F00"/>
<path d="M17.7629 22.021C21.0478 22.021 23.3594 23.7243 24.059 24.7888C24.3266 25.1265 24.3844 25.5827 24.211 25.9751C24.0772 26.2214 23.8217 26.3735 23.5419 26.3705C23.4385 26.3644 23.3351 26.3431 23.2377 26.3096C21.4584 25.8017 19.6152 25.5462 17.7629 25.5492C15.9197 25.5371 14.0826 25.8047 12.3184 26.34C12.2211 26.3735 12.1177 26.3948 12.0143 26.4009C11.7344 26.41 11.4729 26.2579 11.3451 26.0055C11.1687 25.6131 11.2295 25.1538 11.4972 24.8193C12.1664 23.7243 14.5084 22.021 17.7629 22.021Z" fill="#422B0D"/>
<path d="M9.55056 29.6555C7.57353 29.6555 6.05273 27.7393 6.05273 26.0969C6.05273 24.9411 6.5698 23.6028 7.29979 21.7474C7.39103 21.4737 7.5127 21.1999 7.63436 20.8958C8.06018 19.7947 8.54684 18.718 9.09432 17.6717C9.20382 17.4618 9.45323 17.3706 9.67222 17.4588C9.76347 17.5044 9.83951 17.5804 9.88513 17.6717C10.3414 18.6146 10.8584 19.7704 11.3755 20.9566C12.653 23.8157 13.018 24.9715 13.018 26.1273C13.0484 27.7393 11.4972 29.6555 9.55056 29.6555Z" fill="url(#paint1_radial_525_2478)"/>
<path d="M11.6797 27.4623C11.2326 28.1528 10.2197 28.022 10.2197 26.8753C10.2197 26.1423 10.3688 22.3768 10.9984 22.903C12.0325 23.7607 12.3245 26.486 11.6797 27.4623Z" fill="#81D4FA"/>
<path d="M7.42146 12.0751C7.04126 12.6378 6.13791 12.2758 6.40252 11.5945C7.02605 10.1133 8.19098 8.92704 9.66311 8.28223C10.2015 8.02673 10.7824 7.86553 11.3755 7.80166C11.6766 7.74082 11.9717 7.93549 12.0325 8.2366C12.0933 8.53772 11.8987 8.83275 11.5945 8.89359H11.555C9.85777 9.45628 8.40085 10.5786 7.42146 12.0751Z" fill="#422B0D"/>
<path d="M27.8883 12.0751C28.2685 12.6378 29.1718 12.2758 28.9072 11.5945C28.2806 10.1102 27.1096 8.924 25.6314 8.28223C25.0931 8.02673 24.5182 7.86553 23.9251 7.80166C23.624 7.74082 23.3289 7.93549 23.2711 8.2366C23.2103 8.53772 23.405 8.83275 23.7061 8.89359H23.7456C25.4459 9.45324 26.9089 10.5756 27.8883 12.0751Z" fill="#422B0D"/>
<path d="M11.8835 12.1482C10.609 12.1482 9.4502 13.2249 9.4502 15.0134C9.4502 16.8018 10.609 17.8755 11.8835 17.8755C13.1579 17.8755 14.3167 16.7988 14.3167 15.0134C14.3167 13.228 13.1579 12.1482 11.8835 12.1482Z" fill="#422B0D"/>
<path d="M11.765 13.3435C11.3331 13.1367 10.813 13.3192 10.6031 13.7511C10.4419 14.0887 10.5149 14.4933 10.7856 14.7548C11.2175 14.9617 11.7376 14.7792 11.9475 14.3473C12.1087 14.0096 12.0357 13.6051 11.765 13.3435Z" fill="#896024"/>
<path d="M23.5419 12.1482C22.2675 12.1482 21.1086 13.2249 21.1086 15.0134C21.1086 16.8018 22.2675 17.8755 23.5419 17.8755C24.8163 17.8755 25.9752 16.7988 25.9752 15.0134C25.9752 13.228 24.8224 12.1482 23.5419 12.1482Z" fill="#422B0D"/>
<path d="M23.4293 13.3435C22.9974 13.1367 22.4773 13.3192 22.2674 13.7511C22.1062 14.0887 22.1792 14.4933 22.4499 14.7548C22.8818 14.9617 23.4019 14.7792 23.6118 14.3473C23.773 14.0096 23.7 13.6051 23.4293 13.3435Z" fill="#896024"/>
<defs>
<radialGradient id="paint0_radial_525_2478" cx="0" cy="0" r="1" gradientUnits="userSpaceOnUse" gradientTransform="translate(17.6412 17.0025) scale(17.3248 17.3248)">
<stop offset="0.5" stop-color="#FDE030"/>
<stop offset="0.92" stop-color="#F7C02B"/>
<stop offset="1" stop-color="#F4A223"/>
</radialGradient>
<radialGradient id="paint1_radial_525_2478" cx="0" cy="0" r="1" gradientUnits="userSpaceOnUse" gradientTransform="translate(9.79997 18.9775) scale(8.03588 12.3752)">
<stop offset="0.46" stop-color="#29B6F6"/>
<stop offset="1" stop-color="#1E88E5"/>
</radialGradient>
</defs>
</svg>
