<svg width="27" height="34" viewBox="0 0 27 34" fill="none" xmlns="http://www.w3.org/2000/svg">
<path d="M5.27585 10.4072C5.11435 12.1298 5.00102 15.1785 6.01817 16.4761C6.01817 16.4761 5.53934 13.1272 9.83177 8.92539C11.5601 7.23391 11.9596 4.93328 11.3561 3.20781C11.0133 2.23032 10.3871 1.42284 9.84311 0.859012C9.52578 0.527517 9.76944 -0.0193081 10.2313 0.000524886C13.0249 0.12519 17.5525 0.90151 19.4763 5.72944C20.3206 7.84874 20.3829 10.0389 19.9806 12.2658C19.7256 13.6881 18.819 16.8501 20.8873 17.2383C22.3634 17.5159 23.0774 16.3429 23.3976 15.4986C23.5307 15.1473 23.9926 15.0595 24.2419 15.34C26.7352 18.1761 26.9477 21.5165 26.432 24.3923C25.4347 29.9512 19.805 33.9972 14.212 33.9972C7.22515 33.9972 1.6634 29.9994 0.221256 22.7632C-0.359568 19.8421 -0.0649056 14.0621 4.44002 9.9822C4.77435 9.67621 5.32118 9.9482 5.27585 10.4072Z" fill="url(#paint0_radial_525_2483)"/>
<path d="M16.7649 20.8024C14.1895 17.4875 15.3426 13.705 15.9744 12.1977C16.0594 11.9994 15.8328 11.8124 15.6543 11.9342C14.5465 12.6879 12.277 14.4615 11.2202 16.9577C9.78937 20.3321 9.89137 21.9839 10.7385 24.0012C11.2485 25.2167 10.6564 25.4745 10.3589 25.5199C10.0699 25.5652 9.80354 25.3725 9.59104 25.1714C8.98188 24.5905 8.54272 23.8341 8.33306 23.0181C8.28773 22.8424 8.05823 22.7942 7.9534 22.9387C7.16008 24.0352 6.74925 25.7947 6.72942 27.0385C6.66709 30.8833 9.8432 33.9999 13.6851 33.9999C18.5272 33.9999 22.0547 28.645 19.2724 24.1684C18.4649 22.8651 17.7056 22.0123 16.7649 20.8024Z" fill="url(#paint1_radial_525_2483)"/>
<defs>
<radialGradient id="paint0_radial_525_2483" cx="0" cy="0" r="1" gradientUnits="userSpaceOnUse" gradientTransform="translate(12.8283 34.0853) rotate(-179.751) scale(19.9995 32.8152)">
<stop offset="0.3144" stop-color="#FF9800"/>
<stop offset="0.6616" stop-color="#FF6D00"/>
<stop offset="0.9715" stop-color="#F44336"/>
</radialGradient>
<radialGradient id="paint1_radial_525_2483" cx="0" cy="0" r="1" gradientUnits="userSpaceOnUse" gradientTransform="translate(13.9514 14.1836) rotate(90.5787) scale(20.9256 15.7481)">
<stop offset="0.2141" stop-color="#FFF176"/>
<stop offset="0.3275" stop-color="#FFF27D"/>
<stop offset="0.4868" stop-color="#FFF48F"/>
<stop offset="0.6722" stop-color="#FFF7AD"/>
<stop offset="0.7931" stop-color="#FFF9C4"/>
<stop offset="0.8221" stop-color="#FFF8BD" stop-opacity="0.804"/>
<stop offset="0.8627" stop-color="#FFF6AB" stop-opacity="0.529"/>
<stop offset="0.9101" stop-color="#FFF38D" stop-opacity="0.2088"/>
<stop offset="0.9409" stop-color="#FFF176" stop-opacity="0"/>
</radialGradient>
</defs>
</svg>
