<svg width="22" height="22" viewBox="0 0 22 22" fill="none" xmlns="http://www.w3.org/2000/svg">
<path d="M1.83325 5.49974V3.6664C1.83325 3.16014 2.24366 2.74974 2.74992 2.74974H4.58325C5.08951 2.74974 5.49992 3.16014 5.49992 3.6664V5.49974M1.83325 5.49974H5.49992M1.83325 5.49974V16.4997M5.49992 5.49974V16.4997M1.83325 16.4997V18.3331C1.83325 18.8393 2.24366 19.2497 2.74992 19.2497H4.58325C5.08951 19.2497 5.49992 18.8393 5.49992 18.3331V16.4997M1.83325 16.4997H5.49992M8.24992 5.49974V3.6664C8.24992 3.16014 8.66032 2.74974 9.16658 2.74974H10.9999C11.5062 2.74974 11.9166 3.16014 11.9166 3.6664V5.49974M8.24992 5.49974H11.9166M8.24992 5.49974V16.4997M11.9166 5.49974V16.4997M8.24992 16.4997V18.3331C8.24992 18.8393 8.66032 19.2497 9.16658 19.2497H10.9999C11.5062 19.2497 11.9166 18.8393 11.9166 18.3331V16.4997M8.24992 16.4997H11.9166M14.6514 5.90407L14.3315 4.09886C14.2432 3.60037 14.5757 3.12464 15.0741 3.0363L16.8794 2.71637C17.3778 2.62802 17.8536 2.96051 17.9419 3.459L18.2618 5.26421M14.6514 5.90407L18.2618 5.26421M14.6514 5.90407L16.571 16.7353M18.2618 5.26421L20.1814 16.0954M16.571 16.7353L16.891 18.5405C16.9793 19.039 17.455 19.3715 17.9535 19.2831L19.7587 18.9632C20.2572 18.8748 20.5897 18.3991 20.5014 17.9006L20.1814 16.0954M16.571 16.7353L20.1814 16.0954" stroke="#848484" stroke-width="1.2" stroke-linecap="round" stroke-linejoin="round"/>
</svg>
