<svg width="18" height="20" viewBox="0 0 18 20" fill="none" xmlns="http://www.w3.org/2000/svg">
<path d="M7.00001 16.1765H2.44439C1.56653 16.1765 1.14075 15.1028 1.78001 14.5012C2.55856 13.7684 3.00001 12.7467 3.00001 11.6776V9C3.00001 5.6863 5.68631 3 9.00001 3M7.00001 16.1765V17C7.00001 18.1046 7.89544 19 9.00001 19C10.1046 19 11 18.1046 11 17V16.1765M7.00001 16.1765H11M11 16.1765H15.5556C16.4335 16.1765 16.8593 15.1028 16.22 14.5012C15.4415 13.7684 15 12.7467 15 11.6776V9C15 5.68629 12.3137 3 9.00001 3M9.00001 3V1.5" stroke="black" stroke-width="1.5" stroke-linecap="round" stroke-linejoin="round"/>
</svg>
