<svg width="22" height="13" viewBox="0 0 22 13" fill="none" xmlns="http://www.w3.org/2000/svg">
<path d="M5.41812 8.99353L5.11384 9.3083V1.34464C5.11384 1.06637 5.0033 0.799492 4.80653 0.602723C4.60976 0.405954 4.34289 0.29541 4.06461 0.29541C3.78634 0.29541 3.51946 0.405954 3.3227 0.602723C3.12593 0.799492 3.01538 1.06637 3.01538 1.34464V9.3083L2.71111 8.99353C2.51353 8.79596 2.24556 8.68496 1.96615 8.68496C1.68674 8.68496 1.41877 8.79596 1.2212 8.99353C1.02362 9.19111 0.912628 9.45907 0.912628 9.73849C0.912628 10.0179 1.02362 10.2859 1.2212 10.4834L3.31966 12.5819C3.41945 12.6774 3.53711 12.7523 3.66591 12.8022C3.7915 12.8577 3.9273 12.8864 4.06461 12.8864C4.20193 12.8864 4.33773 12.8577 4.46332 12.8022C4.59212 12.7523 4.70978 12.6774 4.80957 12.5819L6.90803 10.4834C7.00586 10.3856 7.08346 10.2695 7.1364 10.1417C7.18935 10.0138 7.2166 9.87684 7.2166 9.73849C7.2166 9.60014 7.18935 9.46314 7.1364 9.33532C7.08346 9.2075 7.00586 9.09136 6.90803 8.99353C6.8102 8.8957 6.69406 8.8181 6.56624 8.76516C6.43842 8.71221 6.30143 8.68496 6.16308 8.68496C6.02472 8.68496 5.88773 8.71221 5.75991 8.76516C5.63209 8.8181 5.51595 8.8957 5.41812 8.99353ZM10.36 2.39387H20.8523C21.1306 2.39387 21.3975 2.28333 21.5942 2.08656C21.791 1.88979 21.9015 1.62291 21.9015 1.34464C21.9015 1.06637 21.791 0.799492 21.5942 0.602723C21.3975 0.405954 21.1306 0.29541 20.8523 0.29541H10.36C10.0817 0.29541 9.81485 0.405954 9.61808 0.602723C9.42131 0.799492 9.31077 1.06637 9.31077 1.34464C9.31077 1.62291 9.42131 1.88979 9.61808 2.08656C9.81485 2.28333 10.0817 2.39387 10.36 2.39387ZM20.8523 5.54156H10.36C10.0817 5.54156 9.81485 5.65211 9.61808 5.84888C9.42131 6.04565 9.31077 6.31252 9.31077 6.59079C9.31077 6.86907 9.42131 7.13594 9.61808 7.33271C9.81485 7.52948 10.0817 7.64003 10.36 7.64003H20.8523C21.1306 7.64003 21.3975 7.52948 21.5942 7.33271C21.791 7.13594 21.9015 6.86907 21.9015 6.59079C21.9015 6.31252 21.791 6.04565 21.5942 5.84888C21.3975 5.65211 21.1306 5.54156 20.8523 5.54156ZM20.8523 10.7877H10.36C10.0817 10.7877 9.81485 10.8983 9.61808 11.095C9.42131 11.2918 9.31077 11.5587 9.31077 11.8369C9.31077 12.1152 9.42131 12.3821 9.61808 12.5789C9.81485 12.7756 10.0817 12.8862 10.36 12.8862H20.8523C21.1306 12.8862 21.3975 12.7756 21.5942 12.5789C21.791 12.3821 21.9015 12.1152 21.9015 11.8369C21.9015 11.5587 21.791 11.2918 21.5942 11.095C21.3975 10.8983 21.1306 10.7877 20.8523 10.7877Z" fill="#BCC1CD"/>
</svg>
