<svg width="33" height="34" viewBox="0 0 33 34" fill="none" xmlns="http://www.w3.org/2000/svg">
<path d="M18.25 1.25H14.75C12.817 1.25 11.25 2.817 11.25 4.75C11.25 6.15299 9.73122 7.02986 8.51619 6.32837C6.84217 5.36187 4.7016 5.93543 3.7351 7.60945L1.9851 10.6405C1.0186 12.3146 1.59217 14.4551 3.26619 15.4216C4.4812 16.1231 4.48116 17.8769 3.26615 18.5783C1.59212 19.5448 1.01856 21.6854 1.98506 23.3594L3.73506 26.3905C4.70156 28.0646 6.84212 28.6381 8.51615 27.6716C9.73119 26.9701 11.25 27.847 11.25 29.25C11.25 31.183 12.817 32.75 14.75 32.75H18.25C20.183 32.75 21.75 31.183 21.75 29.25C21.75 27.847 23.2688 26.9701 24.4838 27.6716C26.1578 28.6381 28.2984 28.0646 29.2649 26.3905L31.0149 23.3595C31.9814 21.6854 31.4078 19.5449 29.7338 18.5784C28.5188 17.8769 28.5187 16.1231 29.7338 15.4216C31.4078 14.4551 31.9814 12.3146 31.0149 10.6405L29.2649 7.60944C28.2984 5.93542 26.1578 5.36185 24.4838 6.32835C23.2688 7.02984 21.75 6.15297 21.75 4.75C21.75 2.817 20.183 1.25 18.25 1.25Z" stroke="#525352" stroke-width="1.5" stroke-linecap="round" stroke-linejoin="round"/>
<path d="M20 17C20 18.933 18.433 20.5 16.5 20.5C14.567 20.5 13 18.933 13 17C13 15.067 14.567 13.5 16.5 13.5C18.433 13.5 20 15.067 20 17Z" stroke="#525352" stroke-width="1.5" stroke-linecap="round" stroke-linejoin="round"/>
</svg>
