<svg width="33" height="34" viewBox="0 0 33 34" fill="none" xmlns="http://www.w3.org/2000/svg">
    <path
        d="M15.6425 25.75H15.625M12.125 15.25V14.375C12.125 11.9588 14.0838 10 16.5 10H16.807C19.0537 10 20.875 11.8213 20.875 14.068V14.233C20.875 15.8854 19.8176 17.3525 18.25 17.875C16.6824 18.3975 15.625 19.8646 15.625 21.517V22.25M16.5 32.75C7.80151 32.75 0.75 25.6985 0.75 17C0.75 8.30151 7.80151 1.25 16.5 1.25C25.1985 1.25 32.25 8.30151 32.25 17C32.25 25.6985 25.1985 32.75 16.5 32.75Z"
        stroke="black" stroke-width="1.5" stroke-linecap="round" stroke-linejoin="round" />
</svg>