<svg width="36" height="36" viewBox="0 0 36 36" fill="none" xmlns="http://www.w3.org/2000/svg">
<path d="M7.20001 7.2001C7.20003 6.56818 7.36638 5.9474 7.68234 5.40015C7.99831 4.8529 8.45276 4.39846 9.00001 4.0825V28.8001C9.00001 29.2775 9.18965 29.7353 9.52722 30.0729C9.86479 30.4105 10.3226 30.6001 10.8 30.6001H25.2C25.6774 30.6001 26.1352 30.4105 26.4728 30.0729C26.8104 29.7353 27 29.2775 27 28.8001V7.2001C27 6.72271 26.8104 6.26487 26.4728 5.92731C26.1352 5.58974 25.6774 5.4001 25.2 5.4001H21.6V3.6001H25.2C26.1548 3.6001 27.0705 3.97938 27.7456 4.65451C28.4207 5.32964 28.8 6.24532 28.8 7.2001V28.8001C28.8 29.7549 28.4207 30.6705 27.7456 31.3457C27.0705 32.0208 26.1548 32.4001 25.2 32.4001H10.8C9.84523 32.4001 8.92956 32.0208 8.25443 31.3457C7.5793 30.6705 7.20001 29.7549 7.20001 28.8001V7.2001ZM10.8 3.6001V15.3001C10.8 15.4672 10.8466 15.6311 10.9344 15.7733C11.0223 15.9154 11.148 16.0303 11.2975 16.1051C11.447 16.1798 11.6144 16.2115 11.7808 16.1965C11.9473 16.1815 12.1063 16.1204 12.24 16.0201L15.3 13.7251L18.36 16.0201C18.4937 16.1204 18.6527 16.1815 18.8192 16.1965C18.9857 16.2115 19.153 16.1798 19.3025 16.1051C19.452 16.0303 19.5777 15.9154 19.6656 15.7733C19.7535 15.6311 19.8 15.4672 19.8 15.3001V3.6001H10.8ZM12.6 13.5001V5.4001H18V13.5001L15.84 11.8801C15.6842 11.7633 15.4947 11.7001 15.3 11.7001C15.1053 11.7001 14.9158 11.7633 14.76 11.8801L12.6 13.5001Z" fill="#252525"/>
</svg>
