<svg width="18" height="18" viewBox="0 0 18 18" fill="none" xmlns="http://www.w3.org/2000/svg">
<path fill-rule="evenodd" clip-rule="evenodd" d="M2.33334 7.33341C2.33334 4.57199 4.57191 2.33341 7.33334 2.33341C10.0948 2.33341 12.3333 4.57199 12.3333 7.33341C12.3333 10.0948 10.0948 12.3334 7.33334 12.3334C4.57191 12.3334 2.33334 10.0948 2.33334 7.33341ZM7.33334 0.666748C3.65144 0.666748 0.666672 3.65152 0.666672 7.33341C0.666672 11.0153 3.65144 14.0001 7.33334 14.0001C8.87393 14.0001 10.2925 13.4775 11.4214 12.6L15.9107 17.0893C16.2362 17.4148 16.7638 17.4148 17.0893 17.0893C17.4147 16.7639 17.4147 16.2363 17.0893 15.9108L12.5999 11.4215C13.4774 10.2925 14 8.87401 14 7.33341C14 3.65152 11.0152 0.666748 7.33334 0.666748Z" fill="white"/>
</svg>
