<svg width="14" height="14" viewBox="0 0 14 14" fill="none" xmlns="http://www.w3.org/2000/svg">
<path d="M4.33333 3.66667V1M9.66667 3.66667V1M4.34 5.66667H4.33333M4.34 7.66667H4.33333M4.34 9.66667H4.33333M7.00667 7.66667H7M7.00667 5.66667H7M9.67333 7.66667H9.66667M7.00667 9.66667H7M9.67333 5.66667H9.66667M3 13H11C12.1046 13 13 12.1046 13 11V4.33333C13 3.22876 12.1046 2.33333 11 2.33333H3C1.89543 2.33333 1 3.22876 1 4.33333V11C1 12.1046 1.89543 13 3 13Z" stroke="#363538" stroke-width="1.5" stroke-linecap="round" stroke-linejoin="round"/>
</svg>
