<svg width="15" height="12" viewBox="0 0 15 12" fill="none" xmlns="http://www.w3.org/2000/svg">
<path d="M7.99164 8.9465L8.93445 9.88931C9.97585 10.9307 11.6643 10.9307 12.7057 9.88931C13.7471 8.84792 13.7471 7.15948 12.7057 6.11808L10.8201 4.23246C9.77867 3.19106 8.09023 3.19106 7.04883 4.23246C6.57062 4.71067 6.312 5.32533 6.27298 5.95112M6.34171 3.05394L5.3989 2.11113C4.3575 1.06973 2.66907 1.06973 1.62767 2.11113C0.586269 3.15252 0.586269 4.84096 1.62767 5.88236L3.51329 7.76798C4.55468 8.80938 6.24312 8.80938 7.28452 7.76798C7.76273 7.28977 8.02135 6.67511 8.06037 6.04932" stroke="#363538" stroke-width="1.5" stroke-linecap="round" stroke-linejoin="round"/>
</svg>
