<svg width="12" height="14" viewBox="0 0 12 14" fill="none" xmlns="http://www.w3.org/2000/svg">
<path d="M8.00001 5.66667C8.00001 6.77124 7.10458 7.66667 6.00001 7.66667C4.89544 7.66667 4.00001 6.77124 4.00001 5.66667C4.00001 4.5621 4.89544 3.66667 6.00001 3.66667C7.10458 3.66667 8.00001 4.5621 8.00001 5.66667Z" stroke="#363538" stroke-width="1.5" stroke-linecap="round" stroke-linejoin="round"/>
<path d="M6.00001 1C3.42268 1 1.33334 3.08934 1.33334 5.66667C1.33334 6.80901 1.7438 7.85549 2.42527 8.66667L4.91537 12.1496C5.44717 12.8934 6.55285 12.8934 7.08465 12.1496L9.57475 8.66667C10.2562 7.85549 10.6667 6.80901 10.6667 5.66667C10.6667 3.08934 8.57734 1 6.00001 1Z" stroke="#363538" stroke-width="1.5" stroke-linecap="round" stroke-linejoin="round"/>
</svg>
