<svg width="14" height="14" viewBox="0 0 14 14" fill="none" xmlns="http://www.w3.org/2000/svg">
<path d="M5.82944 2.2467C6.33477 1.32011 7.66524 1.32011 8.17057 2.2467L8.98149 3.73361C9.17326 4.08525 9.51295 4.33205 9.90664 4.40577L11.5714 4.71752C12.6088 4.91178 13.0199 6.17714 12.2948 6.94407L11.1313 8.17478C10.8561 8.46583 10.7263 8.86516 10.7779 9.26236L10.9958 10.9419C11.1316 11.9886 10.0553 12.7706 9.10181 12.318L7.57178 11.5917C7.20994 11.42 6.79007 11.42 6.42823 11.5917L4.8982 12.318C3.94474 12.7706 2.86837 11.9886 3.00418 10.9419L3.22212 9.26236C3.27366 8.86516 3.14391 8.46583 2.86875 8.17478L1.70519 6.94407C0.980114 6.17714 1.39125 4.91178 2.42865 4.71752L4.09337 4.40577C4.48706 4.33205 4.82675 4.08525 5.01852 3.73361L5.82944 2.2467Z" stroke="#9E8B4E" stroke-width="1.5" stroke-linejoin="round"/>
</svg>
