<svg width="428" height="845" viewBox="0 0 428 845" fill="none" xmlns="http://www.w3.org/2000/svg">
<path d="M557.549 684.976C529.058 663.577 486.322 653.943 451.439 643.217C398.367 626.898 348.044 617.412 288.845 618.724C233.491 619.952 105.92 626.49 85.0045 703.709C70.9855 755.467 105.2 813.802 156.118 817.525C221.196 822.284 271.481 775.96 320.746 730.94C369.157 686.7 393.034 609.624 372.852 557.81C332.087 453.152 208.468 429.773 96.1742 426.18C34.5919 424.21 -34.6778 437.579 -90.4027 481.076C-116.292 501.285 -113.5 518.488 -101.876 541.106C-91.989 560.345 -69.6764 597 -43.4857 597.626C-15.235 598.301 21.1855 574.868 44.6489 557.162C110.384 507.556 206.892 436.925 206.421 351.196C206.068 286.787 182.435 231.344 125.895 205.245C81.7507 184.868 -21.313 171.978 -71.2414 217.604C-103.023 246.647 -97.3437 307.353 -62.2536 317.728C-20.0047 330.22 39.0618 303.04 72.6722 267.094C116.181 220.563 136.482 155.965 130.917 101.567C126.113 54.6103 84.0185 7.89703 49.0402 -16.9462C5.97807 -47.531 -59.8162 -29.1089 -112.942 -22.18" stroke="#347B42" stroke-width="54" stroke-linecap="round"/>
</svg>
